<svg xmlns="http://www.w3.org/2000/svg" viewBox="0 0 478 395.95"><defs><style>.a{fill:#79af33;}.b,.c{fill:#fff;}.b{opacity:0.5;}.c{stroke:#fff;stroke-miterlimit:10;stroke-width:10px;}.d{fill:#44c4a1;}.e{fill:#3ea69b;}.f{fill:#31978c;}.g{fill:#f4c76e;}.h{fill:#efb73e;}.i{fill:#d39924;}.j{fill:#e56353;}.k{fill:#64798a;}.l{fill:#3a556a;}.m{fill:#2f4859;}.n{fill:#d15241;}.o{fill:#fcd462;}</style></defs><title>assignment-01</title><circle class="a" cx="239" cy="198" r="197.95"/><path class="b" d="M187.77,6.79C82.17,35.09,19.5,143.63,47.79,249.23A197.36,197.36,0,0,0,140,369.43L338,26.57A197.37,197.37,0,0,0,187.77,6.79Z"/><path class="c" d="M187,162l-119.17.42L27.09,184.54,7.19,195.07M119,235.22l-7,6.08c-2.92,2.34-3.51,6.44-1.75,9.95l18.14,31a7.6,7.6,0,0,0,9.36,3.51l22.24-7.61a115.56,115.56,0,0,0,48.57,28.09l4.68,22.82a8.09,8.09,0,0,0,7.61,6.44h36.28a8.11,8.11,0,0,0,7.61-6.44l4.68-22.82a115.62,115.62,0,0,0,48.57-28.09l22.23,7.61a8.34,8.34,0,0,0,9.37-3.51l18.14-31c1.75-3.51,1.17-7.61-1.76-9.95l-7.44-6.2h52.09V210.76h.12v24.4h8.48v.29h46.23c4.1-.58,7.61-4.1,7.61-8.19V210.87h0v-24h0v-17a7.75,7.75,0,0,0-7.61-7.61H419.46V162h-8.78v24.17h-.08V161.89H358.28l7.63-6.61c2.93-2.34,3.51-6.44,1.76-9.95l-18.14-31.6a7.62,7.62,0,0,0-9.37-3.51l-22.23,7.61a115.62,115.62,0,0,0-48.57-28.09l-4.68-22.82a8.11,8.11,0,0,0-7.61-6.44H220.79a8.11,8.11,0,0,0-7.61,6.44L208.5,89.74a115.56,115.56,0,0,0-48.57,28.09l-22.24-7.61a8.32,8.32,0,0,0-9.36,3.51l-18.14,31c-1.76,3.51-1.17,7.61,1.75,9.95l8.51,7.37m-113.26,33a3.46,3.46,0,0,0,0,6.44l19.9,11.12L67.8,234.72,187,235m51.93,27.37a63.81,63.81,0,0,1-52.14-27.15h52.46v-.12h51.89A63.76,63.76,0,0,1,238.93,262.37Zm0-127.57A63.78,63.78,0,0,1,291,161.89H239.14v.18H186.71A63.8,63.8,0,0,1,238.93,134.8ZM68.11,210.64h-.06v-24h.06Z"/><rect class="d" x="239.1" y="210.52" width="171.46" height="24.58"/><rect class="e" x="239.41" y="186.18" width="171.46" height="24.58"/><rect class="f" x="239.14" y="161.89" width="171.46" height="24.58"/><rect class="g" x="275" y="210.52" width="135.63" height="24.58"/><rect class="h" x="275.25" y="186.18" width="135.63" height="24.58"/><rect class="i" x="275.03" y="161.89" width="135.63" height="24.58"/><rect class="j" x="410.68" y="162.01" width="8.78" height="73.15"/><path class="k" d="M473,227.26V210.87H419.16v24.58h46.23C469.49,234.87,473,231.36,473,227.26Z"/><rect class="l" x="419.16" y="186.3" width="53.84" height="24.58"/><path class="m" d="M473,186.3V169.91a7.75,7.75,0,0,0-7.61-7.61H419.16v24.58H473Z"/><path class="j" d="M348.36,226.67a114.12,114.12,0,0,0,0-56.17l17.55-15.22c2.93-2.34,3.51-6.44,1.76-9.95l-18.14-31.6a7.62,7.62,0,0,0-9.37-3.51l-22.23,7.61a115.62,115.62,0,0,0-48.57-28.09l-4.68-22.82a8.11,8.11,0,0,0-7.61-6.44H220.79a8.11,8.11,0,0,0-7.61,6.44L208.5,89.74a115.56,115.56,0,0,0-48.57,28.09l-22.24-7.61a8.32,8.32,0,0,0-9.36,3.51l-18.14,31c-1.76,3.51-1.17,7.61,1.75,9.95l17.56,15.21a114.16,114.16,0,0,0,0,56.18L111.94,241.3c-2.92,2.34-3.51,6.44-1.75,9.95l18.14,31a7.6,7.6,0,0,0,9.36,3.51l22.24-7.61a115.56,115.56,0,0,0,48.57,28.09l4.68,22.82a8.1,8.1,0,0,0,7.61,6.44h36.28a8.11,8.11,0,0,0,7.61-6.44l4.68-22.82a115.62,115.62,0,0,0,48.57-28.09l22.23,7.61a8.34,8.34,0,0,0,9.37-3.51l18.14-31c1.75-3.51,1.17-7.61-1.76-9.95ZM238.93,272.9a74.32,74.32,0,1,1,74.32-74.32A74.42,74.42,0,0,1,238.93,272.9Z"/><path class="n" d="M238.93,119.59a79,79,0,1,0,79,79A79,79,0,0,0,238.93,119.59Zm0,142.78a63.79,63.79,0,1,1,63.78-63.78A63.94,63.94,0,0,1,238.93,262.37Z"/><rect class="d" x="67.8" y="210.64" width="171.46" height="24.58"/><rect class="e" x="68.11" y="186.35" width="171.46" height="24.58"/><rect class="f" x="67.83" y="162.07" width="171.46" height="24.58"/><rect class="g" x="67.8" y="210.64" width="216.81" height="24.58"/><rect class="h" x="68.19" y="186.35" width="216.81" height="24.58"/><rect class="i" x="67.84" y="162.07" width="216.81" height="24.58"/><path class="o" d="M68.05,162.3l-41,22.24a19.79,19.79,0,0,1,0,28.09l41,22.23Z"/><path class="k" d="M32.94,198.58a20.44,20.44,0,0,0-5.85-14L7.19,195.07a3.46,3.46,0,0,0,0,6.44L27.09,212C30.6,209.12,32.94,203.85,32.94,198.58Z"/></svg>