<svg xmlns="http://www.w3.org/2000/svg" viewBox="0 0 395.95 395.95"><defs><style>.a{fill:#79af33;}.b,.c,.d,.m{fill:#fff;}.b{opacity:0.5;}.c{stroke:#fff;}.c,.f,.g,.h,.l,.m{stroke-miterlimit:10;}.c,.f,.g,.h{stroke-width:10px;}.e{fill:#2f4859;}.f,.g,.h{fill:none;stroke:#aea79f;}.g{stroke-dasharray:27.59 18.39;}.h{stroke-dasharray:31.73 21.15;}.i{fill:#777;}.j,.l{fill:#64798a;}.k{fill:#3a556a;}.l,.m{stroke:#64798a;stroke-width:4px;}.n{fill:#ebf0f3;}.o{fill:#e1e6e9;}.p{fill:#d5d6db;}.q{fill:#fcd462;}.r{fill:#f6c358;}.s{fill:#dc8744;}.t{fill:#44c4a1;}.u{fill:#3ea69b;}.v{fill:#31978c;}.w{fill:#e56353;}.x{fill:#d15241;}.y{fill:#ce412d;}.z{fill:#27a2db;}.aa{fill:#2d93ba;}.ab{fill:#1c75a1;}</style></defs><title>assignment-06</title><circle class="a" cx="198" cy="198" r="197.95"/><path class="b" d="M146.77,6.79C41.17,35.09-21.5,143.63,6.79,249.23A197.36,197.36,0,0,0,99,369.43L297,26.57A197.37,197.37,0,0,0,146.77,6.79Z"/><rect class="c" x="18" y="59.54" width="360" height="276.92" rx="27"/><rect class="d" x="18" y="59.54" width="360" height="276.92" rx="27"/><path class="e" d="M38.77,59.54H357.23A20.77,20.77,0,0,1,378,80.31v0a0,0,0,0,1,0,0H18a0,0,0,0,1,0,0v0A20.77,20.77,0,0,1,38.77,59.54Z"/><polyline class="f" points="356.46 299.92 356.46 314.92 341.46 314.92"/><line class="g" x1="323.07" y1="314.92" x2="148.35" y2="314.92"/><polyline class="f" points="139.15 314.92 124.15 314.92 124.15 299.92"/><line class="h" x1="124.15" y1="278.77" x2="124.15" y2="183.58"/><polyline class="f" points="124.15 173 124.15 158 139.15 158"/><line class="g" x1="157.55" y1="158" x2="332.27" y2="158"/><polyline class="f" points="341.46 158 356.46 158 356.46 173"/><line class="h" x1="356.46" y1="194.15" x2="356.46" y2="289.35"/><path class="i" d="M218.52,249.73H180.88l-8,23.66h12.7v13.07H144.41V273.39h12.65l28.52-79.63H173V182h53.41v11.79H213.31l29.24,79.63h11.69v13.07H213.3V273.39h13Zm-3.94-12.25-13.9-43.72h-1.43l-14.48,43.72Z"/><path class="i" d="M332.74,273.76v12.7H307.8V277.6q-10.37,10.06-23.14,10.06a25.2,25.2,0,0,1-17.24-6.46,21,21,0,0,1-7.32-16.53,21.25,21.25,0,0,1,7.77-16.82,27.78,27.78,0,0,1,18.75-6.69,36,36,0,0,1,19.75,6.16v-7.21a27.13,27.13,0,0,0-1.05-8.56q-1.05-3-4.92-5.41a19,19,0,0,0-10.1-2.41q-10.76,0-15.55,8.57l-13.68-3.61q9.09-17,31.4-17a40.88,40.88,0,0,1,14.16,2.21,20.8,20.8,0,0,1,8.91,5.71,18.87,18.87,0,0,1,3.94,7.55q1,4,1,12.92v33.65Zm-26.37-14.34q-9.24-7.22-18.7-7.21a14.6,14.6,0,0,0-9.92,3.45,11.3,11.3,0,0,0-4,8.94,11.54,11.54,0,0,0,3.49,8.56q3.5,3.46,9.5,3.46,10.38,0,19.61-8.71Z"/><rect class="j" x="42.85" y="112.89" width="52.47" height="166.15"/><rect class="e" x="42.85" y="112.89" width="52.47" height="12.83"/><polygon class="k" points="94.74 147.29 94.74 143.21 70.84 143.21 70.84 125.72 66.76 125.72 66.76 143.21 42.85 143.21 42.85 147.29 66.76 147.29 66.76 165.36 42.85 165.36 42.85 169.44 66.76 169.44 66.76 188.1 42.85 188.1 42.85 192.18 66.76 192.18 66.76 210.25 42.85 210.25 42.85 214.91 66.76 214.91 66.76 232.99 42.85 232.99 42.85 237.07 66.76 237.07 66.76 255.14 42.85 255.14 42.85 259.81 66.76 259.81 66.76 279.04 70.84 279.04 70.84 259.81 94.74 259.81 94.74 255.14 70.84 255.14 70.84 237.07 94.74 237.07 94.74 232.99 70.84 232.99 70.84 214.91 94.74 214.91 94.74 210.25 70.84 210.25 70.84 192.18 94.74 192.18 94.74 188.1 70.84 188.1 70.84 169.44 94.74 169.44 94.74 165.36 70.84 165.36 70.84 147.29 94.74 147.29"/><path class="l" d="M202.36,94.5A4.09,4.09,0,0,0,198,90.17h-116a4.09,4.09,0,0,0-4.33,4.33v13.85H202.36V94.5Z"/><path class="m" d="M77.75,108.35v63.23c0,2.07,1.73,3.44,4.33,3.44H198c2.59,0,4.32-1.37,4.32-3.44V108.35Z"/><rect class="n" x="84.67" y="117" width="11.25" height="11.25"/><rect class="o" x="104.58" y="117" width="11.25" height="11.25"/><rect class="p" x="124.48" y="117" width="11.25" height="11.25"/><rect class="q" x="144.38" y="117" width="11.25" height="11.25"/><rect class="r" x="164.29" y="117" width="11.25" height="11.25"/><rect class="s" x="184.19" y="117" width="11.25" height="11.25"/><rect class="t" x="84.67" y="136.04" width="11.25" height="11.25"/><rect class="u" x="104.58" y="136.04" width="11.25" height="11.25"/><rect class="v" x="124.48" y="136.04" width="11.25" height="11.25"/><rect class="w" x="144.38" y="136.04" width="11.25" height="11.25"/><rect class="x" x="164.29" y="136.04" width="11.25" height="11.25"/><rect class="y" x="184.19" y="136.04" width="11.25" height="11.25"/><rect class="z" x="84.67" y="155.08" width="11.25" height="11.25"/><rect class="aa" x="104.58" y="155.08" width="11.25" height="11.25"/><rect class="ab" x="124.48" y="155.08" width="11.25" height="11.25"/><rect class="j" x="144.38" y="155.08" width="11.25" height="11.25"/><rect class="k" x="164.29" y="155.08" width="11.25" height="11.25"/><rect class="e" x="184.19" y="155.08" width="11.25" height="11.25"/></svg>