<svg xmlns="http://www.w3.org/2000/svg" xmlns:xlink="http://www.w3.org/1999/xlink" viewBox="0 0 406 395.95"><defs><style>.a{fill:none;}.b{fill:#79af33;}.c,.d,.m{fill:#fff;}.c{opacity:0.5;}.d{stroke:#fff;stroke-miterlimit:10;stroke-width:10px;}.e{fill:#64798a;}.f{fill:#ebf0f3;}.g{fill:#d5d6db;}.h{fill:#2f4859;}.i{fill:#fcd462;}.j{fill:#44c4a1;}.k{fill:#e56353;}.l{fill:#3a556a;}.n{clip-path:url(#a);}.o{fill:#d15241;}.p{fill:#ce412d;}</style><clipPath id="a"><rect class="a" x="65.08" y="142.79" width="277.54" height="147.23"/></clipPath></defs><title>assignment-02</title><circle class="b" cx="203" cy="198" r="197.95"/><path class="c" d="M151.77,6.79C46.17,35.09-16.5,143.63,11.79,249.23A197.36,197.36,0,0,0,104,369.43L302,26.57A197.37,197.37,0,0,0,151.77,6.79Z"/><path class="d" d="M401,311.28H382.19V60.81c0-5.44-4-9.4-8.91-9.4H33.21a9.1,9.1,0,0,0-9.4,9.4V311.28H5V337H6.7l26,7.57H373.28l26-7.57H401Z"/><path class="e" d="M382.19,60.81V311.28H23.81V60.81a9.1,9.1,0,0,1,9.4-9.4H373.28C378.23,51.41,382.19,55.37,382.19,60.81Z"/><rect class="f" x="5" y="311.28" width="396" height="25.74"/><polygon class="g" points="400.5 336.67 5.5 336.67 32.72 344.59 373.28 344.59 400.5 336.67"/><rect class="g" x="175.28" y="321.18" width="55.44" height="5.94"/><path class="h" d="M353,73.19H53a7.28,7.28,0,0,0-7.42,7.42v30.2H360.91V80.61A7.72,7.72,0,0,0,353,73.19Z"/><circle class="i" cx="279.73" cy="92" r="8.42"/><circle class="j" cx="310.42" cy="92" r="8.42"/><circle class="k" cx="341.6" cy="92" r="8.42"/><path class="f" d="M114.4,105.36h53.46l-3-9.4a3.73,3.73,0,0,0-3.47-2.48H109.94a.48.48,0,0,0,.49.5Z"/><path class="l" d="M360.91,111.3h-248a3.72,3.72,0,0,1-3.46-2.47L105,96.45A3.72,3.72,0,0,0,101.53,94H62.42A3.72,3.72,0,0,0,59,96.45L54.5,108.83A3.72,3.72,0,0,1,51,111.3H45.1v26.24H360.41V111.3Z"/><path class="m" d="M102.52,127.64H68.36a3.47,3.47,0,0,1,0-6.93h34.15a3.47,3.47,0,0,1,0,6.93Z"/><path class="m" d="M161.42,127.64H127.27a3.47,3.47,0,1,1,0-6.93h34.15a3.47,3.47,0,1,1,0,6.93Z"/><path class="m" d="M220.33,127.64H185.68a3.47,3.47,0,1,1,0-6.93h34.65a3.47,3.47,0,0,1,0,6.93Z"/><path class="m" d="M279.23,127.64H245.08a3.47,3.47,0,1,1,0-6.93h34.15a3.38,3.38,0,0,1,3.47,3.46A3.72,3.72,0,0,1,279.23,127.64Z"/><path class="m" d="M337.64,127.64H303.49a3.47,3.47,0,1,1,0-6.93h34.15a3.47,3.47,0,0,1,0,6.93Z"/><rect class="m" x="45.1" y="137.54" width="315.32" height="152.46"/><g class="n"><path class="k" d="M110.93,254.71a91.84,91.84,0,0,0-3,23.76,105.19,105.19,0,0,0,1,12.37h23.76a97.33,97.33,0,0,1-1-12.37A71.3,71.3,0,0,1,203,207.19c39.11,0,71.28,32.17,71.28,71.28a103.09,103.09,0,0,1-1,12.37h23.76a95.53,95.53,0,0,0,1-12.37,97.64,97.64,0,0,0-3-23.76l14.85-12.87a6.75,6.75,0,0,0,1.49-8.42l-15.35-26.23a6.43,6.43,0,0,0-7.92-3l-18.31,6.43a99.15,99.15,0,0,0-40.59-23.76l-4-19.3a6.87,6.87,0,0,0-6.44-5.45H188.65a6.38,6.38,0,0,0-6.44,5.45l-5,19.3c-15.35,4.46-29.7,12.38-40.59,23.76l-18.32-6.43a6.43,6.43,0,0,0-7.92,3L95.09,233.42a6.86,6.86,0,0,0,1.48,8.42Z"/><path class="o" d="M145.58,290.35A49.88,49.88,0,0,1,144.09,278a58.91,58.91,0,0,1,117.82,0,52.91,52.91,0,0,1-1.49,12.38h12.87a97.35,97.35,0,0,0,1-12.38A71.29,71.29,0,0,0,203,206.69c-39.11,0-71.28,32.18-71.28,71.28a103.25,103.25,0,0,0,1,12.38Z"/><path class="p" d="M234.68,290.35a34.15,34.15,0,1,0-63.36,0Z"/></g></svg>