<svg xmlns="http://www.w3.org/2000/svg" viewBox="0 0 395.95 395.95"><defs><style>.a{fill:#79af33;}.b,.c{fill:#fff;}.b{opacity:0.5;}.c{stroke:#fff;stroke-miterlimit:10;stroke-width:10px;}.d{fill:#df382c;}.e{fill:#44c4a1;}.f{fill:#d15241;}.g{fill:#efb73e;}.h{fill:#f6c358;}.i{fill:#3ea69b;}.j{fill:#eee;}.k{fill:#b2382b;}.l{fill:#dba13a;}</style></defs><title>assignment-05</title><circle class="a" cx="198" cy="198" r="197.95"/><path class="b" d="M146.77,6.79C41.17,35.09-21.5,143.63,6.79,249.23A197.36,197.36,0,0,0,99,369.43L297,26.57A197.37,197.37,0,0,0,146.77,6.79Z"/><path class="c" d="M377.93,258.43c0-.34,0-.68,0-1-.05-1.12-.11-2.24-.18-3.35,0-.17,0-.34,0-.51-.09-1.26-.21-2.51-.34-3.75,0-.32-.07-.63-.11-.94-.12-1.05-.26-2.09-.4-3.13,0-.24-.07-.48-.1-.72-.19-1.23-.39-2.46-.62-3.68l-.15-.8c-.19-1-.4-2-.62-3.05l-.18-.8c-.27-1.21-.56-2.42-.87-3.61,0-.19-.11-.38-.16-.56-.27-1-.56-2.08-.87-3.11l-.24-.81q-.54-1.8-1.14-3.57l-.06-.15c-.38-1.13-.79-2.24-1.21-3.36l-.28-.75q-1.35-3.49-2.91-6.89l-.3-.63c-.5-1.08-1-2.14-1.55-3.19l-.08-.17c-.58-1.13-1.18-2.25-1.79-3.37-.09-.16-.18-.31-.26-.47-.57-1-1.15-2-1.75-3l-.17-.28q-1-1.65-2-3.27l-.16-.24c-.66-1-1.33-2-2-3l-.21-.31q-2.24-3.16-4.66-6.18l-.22-.27c-1.63-2-3.33-4-5.09-5.87l-.19-.21c-1.79-1.91-3.64-3.77-5.55-5.56l-.11-.1a116,116,0,0,0-30-20.29h0c.59-2.86,1.09-5.77,1.47-8.71h0c.12-.94.23-1.89.33-2.83,0,0,0-.09,0-.14.1-.89.18-1.79.25-2.68,0-.11,0-.21,0-.31.07-.83.12-1.66.17-2.5l0-.5c0-.81.07-1.61.09-2.42l0-.6c0-1,0-2,0-3q0-4.49-.33-8.9-.22-2.94-.6-5.83a114.92,114.92,0,0,0-8.16-30.31c-.37-.86-.74-1.72-1.13-2.58a116.06,116.06,0,0,0-57.87-57.87c-.85-.38-1.71-.76-2.58-1.13a116.15,116.15,0,0,0-16.12-5.45,114.52,114.52,0,0,0-14.18-2.71c-1.93-.25-3.88-.44-5.84-.59C204,18.11,201,18,198,18a115.63,115.63,0,0,0-37.11,6.08q-2.7.92-5.32,2t-5.19,2.19c-1.71.77-3.4,1.59-5.06,2.44s-3.3,1.74-4.92,2.67-3.2,1.9-4.77,2.9q-3.52,2.25-6.86,4.76-2.24,1.66-4.38,3.43A117.16,117.16,0,0,0,107,62.27,115.36,115.36,0,0,0,99,73.71c-.49.8-1,1.6-1.42,2.41q-2.79,4.84-5.11,10c-.39.86-.76,1.72-1.13,2.58-.73,1.73-1.42,3.49-2.07,5.26-.33.88-.64,1.78-.94,2.67-.91,2.69-1.73,5.42-2.44,8.2A114.17,114.17,0,0,0,83.22,119q-.37,2.89-.6,5.83-.33,4.41-.33,8.9c0,1,0,2,0,3l0,.6c0,.81.05,1.61.09,2.42l0,.5c0,.84.1,1.67.17,2.5,0,.1,0,.2,0,.31.07.89.15,1.79.25,2.68,0,0,0,.09,0,.14.1.94.21,1.89.33,2.83h0c.38,2.94.88,5.85,1.47,8.72h0a116,116,0,0,0-30,20.29l-.11.1q-2.87,2.69-5.55,5.57l-.19.2q-2.64,2.83-5.09,5.87l-.22.27q-2.43,3-4.66,6.18l-.21.31c-.69,1-1.36,2-2,3l-.16.24q-1.05,1.62-2,3.27l-.17.28c-.6,1-1.18,2-1.75,3-.08.16-.17.31-.26.47-.61,1.12-1.21,2.24-1.79,3.37l-.08.17c-.53,1-1.05,2.11-1.55,3.19l-.3.63q-1.56,3.39-2.91,6.89l-.28.75c-.42,1.12-.83,2.23-1.21,3.36l-.06.15q-.6,1.77-1.14,3.57l-.24.81c-.31,1-.6,2.06-.87,3.11-.05.18-.11.37-.16.56-.31,1.19-.6,2.4-.87,3.61l-.18.8c-.22,1-.43,2-.62,3.05l-.15.8c-.23,1.22-.43,2.45-.62,3.68,0,.24-.06.48-.1.72-.14,1-.28,2.08-.4,3.13,0,.31-.07.62-.11.94-.13,1.24-.25,2.49-.34,3.75,0,.17,0,.34,0,.51-.07,1.11-.13,2.23-.18,3.35,0,.34,0,.68,0,1,0,1.28-.07,2.57-.07,3.86q0,4.48.34,8.9c.15,2,.34,3.9.59,5.83s.54,3.85.88,5.75.72,3.78,1.15,5.65c.22.93.45,1.86.68,2.78a115.63,115.63,0,0,0,32.24,54.85c.67.64,1.35,1.27,2,1.89Q60,351.68,64.48,355q3.34,2.5,6.87,4.76a115.74,115.74,0,0,0,14.74,8q2.56,1.16,5.19,2.19t5.32,1.95c1.79.61,3.61,1.17,5.44,1.69s3.68,1,5.54,1.43a116,116,0,0,0,26.13,3c.9,0,1.8,0,2.69,0l.79,0,2-.07.78,0c.88-.05,1.76-.1,2.63-.17l.24,0c.8-.06,1.59-.13,2.39-.21l.84-.08,1.87-.22.81-.1c.84-.11,1.68-.22,2.52-.35l.51-.08,2.05-.34.92-.17,1.7-.32.89-.18,2.38-.52.77-.19,1.7-.41,1-.27,1.48-.4,1-.28,2.22-.66,1-.32,1.37-.44,1.15-.4,1.24-.43,1.13-.41c.69-.25,1.37-.51,2.05-.78l1.2-.48,1.08-.44,1.25-.53,1-.44q2.27-1,4.47-2.09l.85-.42L187,365c.27-.13.53-.27.79-.41,1.51-.8,3-1.64,4.47-2.5l.7-.42c.45-.26.9-.53,1.34-.81l.63-.39c1-.64,2-1.29,3-2h0c1,.67,2,1.32,3,2l.63.39c.44.28.89.55,1.34.81l.7.42c1.47.86,3,1.7,4.47,2.5.26.14.52.28.79.41l1.32.68.85.42q2.21,1.09,4.47,2.09l1,.44,1.25.53,1.08.44,1.2.48c.68.27,1.36.53,2.05.78l1.13.41,1.24.43,1.15.4,1.37.44,1,.32,2.22.66,1,.28,1.49.4,1,.27,1.7.42.77.18,2.38.52.89.17c.57.12,1.13.23,1.7.33l.92.17,2.05.34.51.08c.84.13,1.68.24,2.52.35l.81.1,1.87.22.84.08c.8.08,1.59.15,2.39.21l.24,0c.87.07,1.75.12,2.63.17l.78,0,2,.07.79,0c.89,0,1.79,0,2.69,0q4.48,0,8.9-.34c2-.15,3.9-.34,5.83-.59a114.71,114.71,0,0,0,30.31-8.16l2.58-1.13a116.09,116.09,0,0,0,30.18-19.84c.68-.62,1.36-1.25,2-1.89a115.63,115.63,0,0,0,32.24-54.85c.23-.92.46-1.85.68-2.78q.65-2.81,1.15-5.65t.88-5.75c.25-1.93.44-3.87.59-5.83q.34-4.41.34-8.9C378,261,378,259.71,377.93,258.43Z"/><path class="d" d="M311.28,157.43A115.93,115.93,0,0,1,247,238.57a115.85,115.85,0,0,1-49,119.94A115.73,115.73,0,1,0,311.28,157.43Z"/><path class="e" d="M146.57,262.29A115.81,115.81,0,0,1,149,238.57a115.93,115.93,0,0,1-64.29-81.14A115.73,115.73,0,1,0,198,358.51,115.61,115.61,0,0,1,146.57,262.29Z"/><path class="f" d="M249.43,262.29A115.81,115.81,0,0,0,247,238.57a115.93,115.93,0,0,1-98,0,115.85,115.85,0,0,0,49,119.94A115.61,115.61,0,0,0,249.43,262.29Z"/><path class="g" d="M198,166.06a115.84,115.84,0,0,1,113.28-8.63,115.71,115.71,0,1,0-226.56,0A115.84,115.84,0,0,1,198,166.06Z"/><path class="h" d="M198,166.06a115.8,115.8,0,0,1,49,72.51,115.93,115.93,0,0,0,64.29-81.14A115.84,115.84,0,0,0,198,166.06Z"/><path class="i" d="M149,238.57a115.8,115.8,0,0,1,49-72.51,115.84,115.84,0,0,0-113.28-8.63A115.93,115.93,0,0,0,149,238.57Z"/><path class="j" d="M198,166.06a115.8,115.8,0,0,0-49,72.51,115.93,115.93,0,0,0,98,0A115.8,115.8,0,0,0,198,166.06Z"/><path class="d" d="M311.28,157.43A115.93,115.93,0,0,1,247,238.57a115.85,115.85,0,0,1-49,119.94A115.73,115.73,0,1,0,311.28,157.43Z"/><path class="e" d="M146.57,262.29A115.81,115.81,0,0,1,149,238.57a115.93,115.93,0,0,1-64.29-81.14A115.73,115.73,0,1,0,198,358.51,115.61,115.61,0,0,1,146.57,262.29Z"/><path class="k" d="M249.43,262.29A115.81,115.81,0,0,0,247,238.57a115.93,115.93,0,0,1-98,0,115.85,115.85,0,0,0,49,119.94A115.61,115.61,0,0,0,249.43,262.29Z"/><path class="g" d="M198,166.06a115.84,115.84,0,0,1,113.28-8.63,115.71,115.71,0,1,0-226.56,0A115.84,115.84,0,0,1,198,166.06Z"/><path class="l" d="M198,166.06a115.8,115.8,0,0,1,49,72.51,115.93,115.93,0,0,0,64.29-81.14A115.84,115.84,0,0,0,198,166.06Z"/><path class="i" d="M149,238.57a115.8,115.8,0,0,1,49-72.51,115.84,115.84,0,0,0-113.28-8.63A115.93,115.93,0,0,0,149,238.57Z"/><path class="j" d="M198,166.06a115.8,115.8,0,0,0-49,72.51,115.93,115.93,0,0,0,98,0A115.8,115.8,0,0,0,198,166.06Z"/></svg>