<svg xmlns="http://www.w3.org/2000/svg" viewBox="0 0 450 450"><defs><style>.a{fill:#999;}.b,.c,.e,.g{fill:#fff;}.b{opacity:0.5;}.c{stroke:#fff;}.c,.f,.g{stroke-miterlimit:10;}.c,.g{stroke-width:10px;}.d{fill:#666;}.f,.h{fill:none;}.f{stroke:#999;stroke-width:5px;}.g,.h{stroke:#fed859;}.h{stroke-linecap:round;stroke-linejoin:round;stroke-width:20px;}.i{fill:#fed859;}</style></defs><title>example-guide</title><circle class="a" cx="225.03" cy="225.03" r="224.97"/><path class="b" d="M166.8,7.72C46.79,39.88-24.44,163.24,7.72,283.25A224.29,224.29,0,0,0,112.54,419.86l225-389.66A224.24,224.24,0,0,0,166.8,7.72Z"/><polygon class="c" points="95 95.15 95 75 55 75 55 95.15 25 95.15 25 375.05 194.94 375.05 194.94 394.85 255.92 394.85 255.92 375.05 425 375.05 425 95.15 95 95.15"/><polygon class="d" points="25 95.15 425 95.15 425 375.05 255.92 375.05 255.92 394.85 194.94 394.85 194.94 375.05 25 375.05 25 95.15"/><rect class="e" x="45" y="115.15" width="360" height="239.32"/><polyline class="f" points="266 330.93 285.5 320.81 285.5 330.93 305.25 320.69 305.25 330.93 325.63 320.36 325.63 330.93 345.81 320.46 345.81 330.93 365.91 320.51 365.91 330.93 384.45 321.31"/><polyline class="f" points="305.25 290.69 305.25 300.93 325.63 290.36 325.63 300.93 345.81 290.46 345.81 300.93 365.91 290.51 365.91 300.93 384.45 291.31"/><polyline class="f" points="325.63 260.36 325.63 270.93 345.81 260.46 345.81 270.93 365.91 260.51 365.91 270.93 384.45 261.31"/><polyline class="f" points="325.63 230.36 325.63 240.93 345.81 230.46 345.81 240.93 365.91 230.51 365.91 240.93 384.45 231.31"/><polyline class="f" points="305.25 200.69 305.25 210.93 325.63 200.36 325.63 210.93 345.81 200.46 345.81 210.93 365.91 200.51 365.91 210.93 384.45 201.31"/><polyline class="f" points="285.5 180.93 305.25 170.69 305.25 180.93 325.63 170.36 325.63 180.93 345.81 170.46 345.81 180.93 365.91 170.51 365.91 180.93 384.45 171.31"/><polyline class="f" points="246 150.93 266 140.56 266 150.93 285.5 140.81 285.5 150.93 305.25 140.69 305.25 150.93 325.63 140.36 325.63 150.93 345.81 140.46 345.81 150.93 365.91 140.51 365.91 150.93 384.45 141.31"/><polyline class="f" points="65 330.93 85 320.56 85 330.93 104.5 320.81 104.5 330.93 124.25 320.69 124.25 330.93 144.63 320.36 144.63 330.93 164.81 320.46 164.81 330.93"/><polyline class="f" points="65 300.93 85 290.56 85 300.93 104.5 290.81 104.5 300.93 124.25 290.69 124.25 300.93 144.63 290.36"/><polyline class="f" points="65 270.93 85 260.56 85 270.93 104.5 260.81 104.5 270.93 124.25 260.69 124.25 270.93"/><polyline class="f" points="65 240.93 85 230.56 85 240.93 104.5 230.81 104.5 240.93 124.25 230.69 124.25 240.93"/><polyline class="f" points="65 210.93 85 200.56 85 210.93 104.5 200.81 104.5 210.93 124.25 200.69 124.25 210.93 144.63 200.36"/><polyline class="f" points="65 180.93 85 170.56 85 180.93 104.5 170.81 104.5 180.93 124.25 170.69 124.25 180.93 144.63 170.36 144.63 180.93 164.81 170.46 164.81 180.93"/><polyline class="f" points="65 150.93 85 140.56 85 150.93 104.5 140.81 104.5 150.93 124.25 140.69 124.25 150.93 144.63 140.36 144.63 150.93 164.81 140.46 164.81 150.93 184.91 140.51 184.91 150.93 203.45 141.31"/><circle class="g" cx="225" cy="250" r="75"/><polyline class="h" points="189 250 213 274 261 226"/><rect class="d" x="220" y="105" width="10" height="250"/><polygon class="i" points="55 75 95 75 95 135 75.5 114.5 55 135 55 75"/></svg>