<?xml version="1.0" encoding="iso-8859-1"?>
<!-- Generator: Adobe Illustrator 17.1.0, SVG Export Plug-In . SVG Version: 6.00 Build 0)  -->
<!DOCTYPE svg PUBLIC "-//W3C//DTD SVG 1.1//EN" "http://www.w3.org/Graphics/SVG/1.1/DTD/svg11.dtd">
<svg version="1.1" id="Capa_1" xmlns="http://www.w3.org/2000/svg" xmlns:xlink="http://www.w3.org/1999/xlink" x="0px" y="0px"
	 viewBox="0 0 242.667 242.667" style="enable-background:new 0 0 242.667 242.667;" xml:space="preserve">
<path d="M168.496,111.025h15.219v65.454c0,3.996-3.24,7.236-7.236,7.236H66.188c-3.996,0-7.236-3.24-7.236-7.236v-65.454h15.219
	c-0.723,3.323-1.115,6.769-1.115,10.308c0,26.663,21.614,48.277,48.277,48.277c26.663,0,48.277-21.614,48.277-48.277
	C169.61,117.794,169.219,114.347,168.496,111.025z M121.333,153.852c17.959,0,32.518-14.559,32.518-32.518
	c0-17.959-14.559-32.518-32.518-32.518c-17.959,0-32.518,14.559-32.518,32.518C88.815,139.293,103.374,153.852,121.333,153.852z
	 M160.293,87.937h12.385c3.631,0,6.575-2.944,6.575-6.575V68.978c0-3.631-2.943-6.574-6.575-6.574h-12.385
	c-3.631,0-6.574,2.943-6.574,6.574v12.385C153.719,84.994,156.662,87.937,160.293,87.937z M242.667,0v242.667H0V0H242.667z
	 M198.623,63.539c0-10.766-8.728-19.494-19.494-19.494H63.539c-10.766,0-19.494,8.728-19.494,19.494v115.59
	c0,10.766,8.728,19.494,19.494,19.494h115.59c10.766,0,19.494-8.728,19.494-19.494V63.539z"/>
<g>
</g>
<g>
</g>
<g>
</g>
<g>
</g>
<g>
</g>
<g>
</g>
<g>
</g>
<g>
</g>
<g>
</g>
<g>
</g>
<g>
</g>
<g>
</g>
<g>
</g>
<g>
</g>
<g>
</g>
</svg>
