<?xml version="1.0" encoding="iso-8859-1"?>
<!-- Generator: Adobe Illustrator 17.1.0, SVG Export Plug-In . SVG Version: 6.00 Build 0)  -->
<!DOCTYPE svg PUBLIC "-//W3C//DTD SVG 1.1//EN" "http://www.w3.org/Graphics/SVG/1.1/DTD/svg11.dtd">
<svg version="1.1" id="Capa_1" xmlns="http://www.w3.org/2000/svg" xmlns:xlink="http://www.w3.org/1999/xlink" x="0px" y="0px"
	 viewBox="0 0 242.667 242.667" style="enable-background:new 0 0 242.667 242.667;" xml:space="preserve">
<path d="M0,0v242.667h242.667V0H0z M185.593,118.481c-5.554,7.835-29.352,46.013-43.947,59.361
	c-15.095,13.805-32.182,20.755-45.475,0s-19.208-62.744-22.388-73.459c-3.148-10.611-7.463-13.759-12.36-12.36
	s-11.427,7.929-11.427,7.929l-7.696-10.494c0,0,18.423-18.889,32.882-28.917c14.459-10.028,26.585-8.629,33.115,8.629
	c6.53,17.257,9.095,52.937,12.127,63.431c3.032,10.494,12.36,14.692,20.522,0c8.162-14.692,18.656-33.815,10.727-42.443
	c-7.929-8.629-20.289,0.7-20.289,0.7s10.961-42.676,47.807-38.245C216.039,57.042,197.468,101.731,185.593,118.481z"/>
<g>
</g>
<g>
</g>
<g>
</g>
<g>
</g>
<g>
</g>
<g>
</g>
<g>
</g>
<g>
</g>
<g>
</g>
<g>
</g>
<g>
</g>
<g>
</g>
<g>
</g>
<g>
</g>
<g>
</g>
</svg>
