<?xml version="1.0" encoding="iso-8859-1"?>
<!-- Generator: Adobe Illustrator 17.1.0, SVG Export Plug-In . SVG Version: 6.00 Build 0)  -->
<!DOCTYPE svg PUBLIC "-//W3C//DTD SVG 1.1//EN" "http://www.w3.org/Graphics/SVG/1.1/DTD/svg11.dtd">
<svg version="1.1" id="Capa_1" xmlns="http://www.w3.org/2000/svg" xmlns:xlink="http://www.w3.org/1999/xlink" x="0px" y="0px"
	 viewBox="0 0 242.667 242.667" style="enable-background:new 0 0 242.667 242.667;" xml:space="preserve">
<path d="M0,0v242.667h242.667V0H0z M186.132,86.443c-4.15,3.618-8.725,6.703-8.725,6.703s3.653,15.464-6.562,38.872
	c-10.215,23.409-32.204,41.568-55.613,45.54c-23.408,3.972-35.751,1.561-45.257-1.135c-9.505-2.695-19.72-9.789-19.72-9.789
	s16.599,0.426,26.813-2.979c10.215-3.405,16.173-8.512,16.173-8.512s-10.924-0.851-19.578-8.512
	c-8.654-7.661-9.08-13.336-9.08-13.336s4.54,0.993,8.938,0.993s5.107-0.284,5.107-0.284s-12.343-3.405-19.152-14.613
	c-6.81-11.208-5.107-15.464-5.107-15.464s2.554,2.128,7.094,3.547c4.54,1.419,7.235,0.426,7.235,0.426s-11.633-6.384-12.484-19.72
	c-0.851-13.336,3.547-19.578,3.547-19.578s7.945,14.471,28.09,22.699s32.346,7.661,32.346,7.661s-6.242-22.983,17.592-32.914
	c23.834-9.931,34.049,7.661,34.049,7.661s7.484-2.164,10.995-3.972s5.639-4.15,5.639-4.15s-1.171,4.894-4.256,8.938
	c-3.086,4.043-7.448,7.874-7.448,7.874s4.682-1.17,8.831-2.554c4.15-1.383,6.81-2.447,6.81-2.447S190.282,82.825,186.132,86.443z"/>
<g>
</g>
<g>
</g>
<g>
</g>
<g>
</g>
<g>
</g>
<g>
</g>
<g>
</g>
<g>
</g>
<g>
</g>
<g>
</g>
<g>
</g>
<g>
</g>
<g>
</g>
<g>
</g>
<g>
</g>
</svg>
