<svg xmlns="http://www.w3.org/2000/svg" viewBox="0 0 150 150"><defs><style>.a{fill:#fff;}</style></defs><title>logo-white-circle</title><circle class="a" cx="75" cy="75" r="75"/><path d="M54.38,50.1a1.39,1.39,0,0,1-.38.46.87.87,0,0,1-.5.14,1.31,1.31,0,0,1-.68-.23c-.25-.16-.54-.33-.88-.52a7.85,7.85,0,0,0-1.19-.52,5.23,5.23,0,0,0-1.62-.23,5,5,0,0,0-1.47.2,3.1,3.1,0,0,0-1,.57,2.09,2.09,0,0,0-.64.86,2.8,2.8,0,0,0-.21,1.1,1.88,1.88,0,0,0,.43,1.27,3.25,3.25,0,0,0,1.13.87,10.43,10.43,0,0,0,1.6.65c.6.19,1.22.39,1.85.61a15.43,15.43,0,0,1,1.84.75,6.14,6.14,0,0,1,1.61,1.08,4.68,4.68,0,0,1,1.13,1.6,5.44,5.44,0,0,1,.43,2.29,7.55,7.55,0,0,1-.5,2.75A6.51,6.51,0,0,1,53.81,66a7.16,7.16,0,0,1-2.37,1.5,8.77,8.77,0,0,1-3.19.55,10,10,0,0,1-2-.21,10.47,10.47,0,0,1-1.93-.57,9.83,9.83,0,0,1-1.73-.91,7.51,7.51,0,0,1-1.44-1.17l1.18-1.93a1.2,1.2,0,0,1,.39-.35.94.94,0,0,1,.51-.14,1.45,1.45,0,0,1,.81.3c.29.21.64.44,1,.69a8.7,8.7,0,0,0,1.4.68,5.55,5.55,0,0,0,1.93.3A4,4,0,0,0,51,64,2.94,2.94,0,0,0,52,61.62a2.19,2.19,0,0,0-.42-1.39,3.35,3.35,0,0,0-1.14-.91,8.08,8.08,0,0,0-1.6-.63c-.6-.17-1.21-.35-1.83-.55a15.78,15.78,0,0,1-1.83-.72,6,6,0,0,1-1.61-1.1,5.07,5.07,0,0,1-1.13-1.68,6.55,6.55,0,0,1-.43-2.5,6,6,0,0,1,1.85-4.3,6.73,6.73,0,0,1,2.22-1.4,8.15,8.15,0,0,1,3-.53,9.9,9.9,0,0,1,3.54.61,8.13,8.13,0,0,1,2.76,1.67Z"/><path d="M63.34,67.85H59.29V46.15h4.05Z"/><path d="M83.33,49.47H76.79V67.85h-4V49.47H66.22V46.15H83.33Z"/><path d="M90.23,49.36v6h7.59v3.1H90.23v6.14h9.63v3.23H86.18V46.15H99.86v3.21Z"/><path d="M46.94,100.52v3.33H34.24V82.15h4v18.37Z"/><path d="M69.74,93A12.26,12.26,0,0,1,69,97.42a10.61,10.61,0,0,1-2.23,3.52,10.05,10.05,0,0,1-3.47,2.31,12.42,12.42,0,0,1-9,0,10.05,10.05,0,0,1-3.47-2.31,10.51,10.51,0,0,1-2.25-3.52,12.76,12.76,0,0,1,0-8.84,10.51,10.51,0,0,1,2.25-3.52,10.2,10.2,0,0,1,3.47-2.31,11.57,11.57,0,0,1,4.48-.83,12,12,0,0,1,3.11.38,10.52,10.52,0,0,1,2.67,1.08,9.72,9.72,0,0,1,2.18,1.69,10.26,10.26,0,0,1,1.64,2.23,11.13,11.13,0,0,1,1,2.67A12.45,12.45,0,0,1,69.74,93Zm-4.12,0a9.92,9.92,0,0,0-.48-3.2,6.84,6.84,0,0,0-1.37-2.41,5.78,5.78,0,0,0-2.15-1.51,7.25,7.25,0,0,0-2.86-.53,7.17,7.17,0,0,0-2.85.53,5.82,5.82,0,0,0-2.16,1.51,6.71,6.71,0,0,0-1.38,2.41,10.91,10.91,0,0,0,0,6.4,6.58,6.58,0,0,0,1.38,2.4,5.82,5.82,0,0,0,2.16,1.51,7.35,7.35,0,0,0,2.85.53,7.44,7.44,0,0,0,2.86-.53,5.78,5.78,0,0,0,2.15-1.51,6.71,6.71,0,0,0,1.37-2.4A9.92,9.92,0,0,0,65.62,93Z"/><path d="M91.18,93v8.78a11.43,11.43,0,0,1-3.52,1.77,13.62,13.62,0,0,1-4,.57,13.37,13.37,0,0,1-4.81-.83A10.73,10.73,0,0,1,75.18,101a10.18,10.18,0,0,1-2.35-3.51A11.8,11.8,0,0,1,72,93a12.22,12.22,0,0,1,.79-4.48A10.2,10.2,0,0,1,75.06,85a9.91,9.91,0,0,1,3.55-2.28,14.16,14.16,0,0,1,7.15-.6,13.25,13.25,0,0,1,2.13.57,9.67,9.67,0,0,1,1.79.9,10.62,10.62,0,0,1,1.48,1.15L90,86.58a1.09,1.09,0,0,1-.71.53,1.26,1.26,0,0,1-.94-.21l-1-.57a6.54,6.54,0,0,0-1.1-.5,10.91,10.91,0,0,0-1.37-.35,11.17,11.17,0,0,0-1.75-.13,7.46,7.46,0,0,0-2.9.54A6.19,6.19,0,0,0,78,87.44a6.85,6.85,0,0,0-1.41,2.41,10.33,10.33,0,0,0,0,6.47,6.87,6.87,0,0,0,1.5,2.48,6.33,6.33,0,0,0,2.33,1.54,8.19,8.19,0,0,0,3,.54,8.28,8.28,0,0,0,2.15-.26,10.5,10.5,0,0,0,1.84-.69V96H84.8a.82.82,0,0,1-.61-.22.72.72,0,0,1-.21-.53V93Z"/><path d="M115.76,93a12.26,12.26,0,0,1-.78,4.42,10.61,10.61,0,0,1-2.23,3.52,10.05,10.05,0,0,1-3.47,2.31,12.42,12.42,0,0,1-9,0,10.19,10.19,0,0,1-3.48-2.31,10.64,10.64,0,0,1-2.24-3.52,12.76,12.76,0,0,1,0-8.84,10.64,10.64,0,0,1,2.24-3.52,10.34,10.34,0,0,1,3.48-2.31,11.57,11.57,0,0,1,4.48-.83,12,12,0,0,1,3.11.38,10.52,10.52,0,0,1,2.67,1.08,9.72,9.72,0,0,1,2.18,1.69,10.26,10.26,0,0,1,1.64,2.23,10.72,10.72,0,0,1,1,2.67A12.45,12.45,0,0,1,115.76,93Zm-4.12,0a9.92,9.92,0,0,0-.48-3.2,6.84,6.84,0,0,0-1.37-2.41,5.86,5.86,0,0,0-2.15-1.51,8,8,0,0,0-5.71,0,5.82,5.82,0,0,0-2.16,1.51,6.71,6.71,0,0,0-1.38,2.41,10.91,10.91,0,0,0,0,6.4,6.58,6.58,0,0,0,1.38,2.4,5.82,5.82,0,0,0,2.16,1.51,8,8,0,0,0,5.71,0,5.86,5.86,0,0,0,2.15-1.51,6.71,6.71,0,0,0,1.37-2.4A9.92,9.92,0,0,0,111.64,93Z"/></svg>