<svg xmlns="http://www.w3.org/2000/svg" viewBox="0 0 150 150"><defs><style>.a{fill:#fff;}</style></defs><title>user-black-square</title><rect width="150" height="150"/><path class="a" d="M15.44,150H134.56a5.38,5.38,0,0,0,4.07-1.78,4.4,4.4,0,0,0,1.09-3.51,65.56,65.56,0,0,0-34.5-49.57,42.68,42.68,0,0,1-60.44,0,65.54,65.54,0,0,0-34.5,49.57,4.4,4.4,0,0,0,1.09,3.51A5.38,5.38,0,0,0,15.44,150Z"/><path class="a" d="M48.16,90.44c.69.73,1.42,1.42,2.17,2.09a36.84,36.84,0,0,0,49.34,0c.75-.67,1.48-1.36,2.17-2.09s1.37-1.48,2-2.26a37.09,37.09,0,1,0-57.7,0C46.79,89,47.46,89.71,48.16,90.44Z"/><path d="M140,10V140H10V10H140M150,0H0V150H150V0Z"/></svg>