<?xml version="1.0" encoding="utf-8"?>
<!-- Generator: Adobe Illustrator 22.1.0, SVG Export Plug-In . SVG Version: 6.00 Build 0)  -->
<svg version="1.1" id="Layer_1" xmlns="http://www.w3.org/2000/svg" xmlns:xlink="http://www.w3.org/1999/xlink" x="0px" y="0px"
	 viewBox="0 0 396 396" style="enable-background:new 0 0 396 396;" xml:space="preserve">
<style type="text/css">
	.st0{fill:#79AF33;}
	.st1{opacity:0.5;fill:#FFFFFF;enable-background:new    ;}
	.st2{fill:#FFFFFF;stroke:#FFFFFF;stroke-width:10;stroke-miterlimit:10;}
	.st3{fill:#3A556A;}
	.st4{fill:#EBF0F3;}
	.st5{fill:#FCD462;}
	.st6{fill:#44C4A1;}
	.st7{fill:#E56353;}
	.st8{fill:#FFFFFF;}
	.st9{fill:#3EA69B;}
	.st10{fill:#31978C;}
	.st11{fill:#64798A;}
	.st12{fill:#2F4859;}
	.st13{fill:#F6C358;}
	.st14{fill:#DC8744;}
</style>
<g>
	<circle class="st0" cx="198" cy="198" r="198"/>
	<path class="st1" d="M146.8,6.8C41.2,35.1-21.5,143.6,6.8,249.2c13.5,50.7,46.7,94,92.2,120.2L297,26.6
		C251.6,0.3,197.5-6.9,146.8,6.8z"/>
	<path class="st2" d="M360,48.1c-0.2-4.2-3.5-7.5-7.7-7.7H43.8c-4.2,0-7.7,3.4-7.7,7.6c0,0,0,0,0,0v46H36v253.9
		c0,4.2,3.4,7.7,7.7,7.7h0h308.5c4.2,0,7.7-3.4,7.7-7.7l0,0V94.2h0.2L360,48.1z"/>
	<path class="st3" d="M352.3,40.4H43.8c-4.2,0-7.7,3.4-7.7,7.6c0,0,0,0,0,0v46.2H360V48.1C359.8,43.9,356.5,40.5,352.3,40.4z"/>
	<rect x="48.6" y="58.6" class="st4" width="202.8" height="17.8"/>
	<circle class="st5" cx="277" cy="67.5" r="8.9"/>
	<circle class="st6" cx="308.5" cy="67.5" r="8.9"/>
	<circle class="st7" cx="340.1" cy="67.5" r="8.9"/>
	<path class="st8" d="M359.8,94.1v253.8c0,4.2-3.4,7.7-7.7,7.7l0,0H43.7c-4.2,0-7.7-3.4-7.7-7.7l0,0V94.1H359.8z"/>
	<polygon class="st9" points="115,156.3 125,146.2 269.9,291.1 260.1,301.2 	"/>
	<polygon class="st6" points="107,165.4 115.9,156.3 260.1,300.2 250.9,309.4 	"/>
	<polygon class="st10" points="125,147.1 134.2,137.9 278.2,281.9 269,291.2 	"/>
	<polygon class="st3" points="262.4,303.7 272.6,293.6 292.8,313.9 282.7,324.1 	"/>
	<path class="st11" d="M277,329.8l6-6l-20.2-20.2l-8.9,8.9l17.4,17.4c1.5,1.6,4,1.6,5.5,0.1C276.9,329.9,276.9,329.8,277,329.8z"/>
	<path class="st12" d="M292.3,314.5l6.1-6c1.6-1.5,1.6-3.9,0.2-5.5c0-0.1-0.1-0.1-0.2-0.2l-17.1-17.5l-9.1,9L292.3,314.5z"/>
	<path class="st5" d="M134.2,137.9l-23.6-6.9c0,2.8-1,5.5-2.8,7.7c-2,2.1-4.8,3.1-7.7,2.8l6.9,23.9L134.2,137.9z"/>
	<path class="st11" d="M107.8,139.1c2.1-2.1,3.2-5,2.9-7.9l-11.4-3c-1-0.3-2.1,0.2-2.4,1.2c-0.1,0.4-0.1,0.8,0,1.2l3.2,11.4
		C103,142.1,105.7,141,107.8,139.1z"/>
	
		<rect x="80.5" y="203.1" transform="matrix(0.7071 -0.7071 0.7071 0.7071 -104.2219 207.1306)" class="st5" width="234.8" height="52.6"/>
	
		<rect x="80.7" y="223.6" transform="matrix(0.7071 -0.7071 0.7071 0.7071 -104.2834 207.2822)" class="st13" width="234.8" height="11.8"/>
	
		<rect x="289.1" y="164.9" transform="matrix(0.7071 -0.7071 0.7071 0.7071 -34.327 254.5625)" class="st14" width="2" height="7.7"/>
	
		<rect x="285.9" y="168.3" transform="matrix(0.7071 -0.7071 0.7071 0.7071 -37.6758 253.2739)" class="st14" width="2" height="7.7"/>
	
		<rect x="282.3" y="172" transform="matrix(0.7071 -0.7071 0.7071 0.7071 -41.3159 251.8248)" class="st14" width="2" height="7.7"/>
	
		<rect x="277.2" y="172" transform="matrix(0.7071 -0.7071 0.7071 0.7071 -44.4407 248.8801)" class="st14" width="2" height="12.2"/>
	
		<rect x="274.9" y="179" transform="matrix(0.7071 -0.7071 0.7071 0.7071 -48.4889 248.6453)" class="st14" width="2" height="7.7"/>
	
		<rect x="271.3" y="182.7" transform="matrix(0.7071 -0.7071 0.7071 0.7071 -52.1349 247.2221)" class="st14" width="2" height="7.7"/>
	
		<rect x="268" y="186.1" transform="matrix(0.7071 -0.7071 0.7071 0.7071 -55.5067 245.8655)" class="st14" width="2" height="7.7"/>
	
		<rect x="262.9" y="186.1" transform="matrix(0.7071 -0.7071 0.7071 0.7071 -58.5822 242.9325)" class="st14" width="2" height="12.2"/>
	
		<rect x="260.9" y="193.5" transform="matrix(0.7071 -0.7071 0.7071 0.7071 -62.7986 243.0107)" class="st14" width="2" height="7.7"/>
	
		<rect x="257" y="196.9" transform="matrix(0.7071 -0.7071 0.7071 0.7071 -66.3216 241.2527)" class="st14" width="2" height="7.7"/>
	
		<rect x="253.8" y="200.3" transform="matrix(0.7071 -0.7071 0.7071 0.7071 -69.6704 239.9642)" class="st14" width="2" height="7.7"/>
	
		<rect x="248.7" y="200.3" transform="matrix(0.7071 -0.7071 0.7071 0.7071 -72.7459 237.037)" class="st14" width="2" height="12.2"/>
	
		<rect x="246.7" y="207.6" transform="matrix(0.7071 -0.7071 0.7071 0.7071 -76.9518 237.0689)" class="st14" width="2" height="7.7"/>
	
		<rect x="243.2" y="211.3" transform="matrix(0.7071 -0.7071 0.7071 0.7071 -80.5966 235.6603)" class="st14" width="2" height="7.7"/>
	
		<rect x="239.3" y="214.7" transform="matrix(0.7071 -0.7071 0.7071 0.7071 -84.1383 233.9252)" class="st14" width="2" height="7.7"/>
	
		<rect x="234.5" y="214.4" transform="matrix(0.7071 -0.7071 0.7071 0.7071 -86.9526 231.0877)" class="st14" width="2" height="12.2"/>
	
		<rect x="232.5" y="221.7" transform="matrix(0.7071 -0.7071 0.7071 0.7071 -91.1097 231.1676)" class="st14" width="2" height="7.7"/>
	
		<rect x="228.9" y="225.4" transform="matrix(0.7071 -0.7071 0.7071 0.7071 -94.7498 229.7185)" class="st14" width="2" height="7.7"/>
	
		<rect x="225.4" y="229.1" transform="matrix(0.7071 -0.7071 0.7071 0.7071 -98.3975 228.3228)" class="st14" width="2" height="7.7"/>
	
		<rect x="220.3" y="228.6" transform="matrix(0.7071 -0.7071 0.7071 0.7071 -101.1105 225.1864)" class="st14" width="2" height="12.2"/>
	
		<rect x="218.3" y="235.9" transform="matrix(0.7071 -0.7071 0.7071 0.7071 -105.2793 225.2863)" class="st14" width="2" height="7.7"/>
	
		<rect x="214.7" y="239.6" transform="matrix(0.7071 -0.7071 0.7071 0.7071 -108.9453 223.7937)" class="st14" width="2" height="7.7"/>
	
		<rect x="211.1" y="243.3" transform="matrix(0.7071 -0.7071 0.7071 0.7071 -112.5954 222.3605)" class="st14" width="2" height="7.7"/>
	
		<rect x="205.7" y="243" transform="matrix(0.7071 -0.7071 0.7071 0.7071 -115.5555 219.1345)" class="st14" width="2" height="12.2"/>
	
		<rect x="203.8" y="250.3" transform="matrix(0.7071 -0.7071 0.7071 0.7071 -119.7155 219.2273)" class="st14" width="2" height="7.7"/>
	
		<rect x="200.4" y="253.7" transform="matrix(0.7071 -0.7071 0.7071 0.7071 -123.1014 217.8707)" class="st14" width="2" height="7.7"/>
	
		<rect x="196.9" y="257.4" transform="matrix(0.7071 -0.7071 0.7071 0.7071 -126.7591 216.4592)" class="st14" width="2" height="7.7"/>
	
		<rect x="191.8" y="257.4" transform="matrix(0.7071 -0.7071 0.7071 0.7071 -129.8363 213.5421)" class="st14" width="2" height="12.2"/>
	
		<rect x="189.5" y="264.5" transform="matrix(0.7071 -0.7071 0.7071 0.7071 -133.931 213.2709)" class="st14" width="2" height="7.7"/>
	
		<rect x="186.2" y="267.9" transform="matrix(0.7071 -0.7071 0.7071 0.7071 -137.2681 211.9765)" class="st14" width="2" height="7.7"/>
	
		<rect x="182.7" y="271.5" transform="matrix(0.7071 -0.7071 0.7071 0.7071 -140.8994 210.5203)" class="st14" width="2" height="7.7"/>
	
		<rect x="177.6" y="271.6" transform="matrix(0.7071 -0.7071 0.7071 0.7071 -144.0271 207.5827)" class="st14" width="2" height="12.2"/>
	
		<rect x="175.6" y="278.9" transform="matrix(0.7071 -0.7071 0.7071 0.7071 -148.1943 207.6726)" class="st14" width="2" height="7.7"/>
	
		<rect x="171.7" y="282.3" transform="matrix(0.7071 -0.7071 0.7071 0.7071 -151.7172 205.9146)" class="st14" width="2" height="7.7"/>
	
		<rect x="168.5" y="285.7" transform="matrix(0.7071 -0.7071 0.7071 0.7071 -155.069 204.619)" class="st14" width="2" height="7.7"/>
	
		<rect x="163.3" y="285.7" transform="matrix(0.7071 -0.7071 0.7071 0.7071 -158.185 201.6814)" class="st14" width="2" height="12.2"/>
	
		<rect x="161.3" y="293" transform="matrix(0.7071 -0.7071 0.7071 0.7071 -162.3404 201.7337)" class="st14" width="2" height="7.7"/>
	
		<rect x="157.5" y="296.4" transform="matrix(0.7071 -0.7071 0.7071 0.7071 -165.888 200.0163)" class="st14" width="2" height="7.7"/>
	
		<rect x="153.9" y="300.1" transform="matrix(0.7071 -0.7071 0.7071 0.7071 -169.5181 198.5771)" class="st14" width="2" height="7.7"/>
	
		<rect x="149.1" y="299.8" transform="matrix(0.7071 -0.7071 0.7071 0.7071 -172.3253 195.7367)" class="st14" width="2" height="12.2"/>
	
		<rect x="147.1" y="307.2" transform="matrix(0.7071 -0.7071 0.7071 0.7071 -176.5546 195.812)" class="st14" width="2" height="7.7"/>
	
		<rect x="143.5" y="310.9" transform="matrix(0.7071 -0.7071 0.7071 0.7071 -180.1889 194.3628)" class="st14" width="2" height="7.7"/>
	
		<rect x="139.7" y="314.2" transform="matrix(0.7071 -0.7071 0.7071 0.7071 -183.6901 192.6383)" class="st14" width="2" height="7.7"/>
	
		<rect x="134.9" y="314" transform="matrix(0.7071 -0.7071 0.7071 0.7071 -186.4861 189.8483)" class="st14" width="2" height="12.2"/>
	<polygon class="st7" points="250.9,309.3 278.1,281.8 281.4,285.3 254,312.5 	"/>
</g>
</svg>
