<svg xmlns="http://www.w3.org/2000/svg" viewBox="0 0 395.95 395.95"><defs><style>.a{fill:#79af33;}.b,.c,.j{fill:#fff;}.b{opacity:0.5;}.c{stroke:#fff;stroke-miterlimit:10;stroke-width:10px;}.d{fill:#64798a;}.e{fill:#ebf0f3;}.f{fill:#3a556a;}.g{fill:#e56353;}.h{fill:#d15241;}.i{fill:#9b2b1f;}</style></defs><title>assignment-04</title><circle class="a" cx="198" cy="198" r="197.95"/><path class="b" d="M146.77,6.79C41.17,35.09-21.5,143.63,6.79,249.23A197.36,197.36,0,0,0,99,369.43L297,26.57A197.37,197.37,0,0,0,146.77,6.79Z"/><rect class="c" x="36" y="36" width="324" height="324"/><rect class="d" x="36" y="36" width="324" height="324"/><rect class="e" x="36" y="107.68" width="324" height="180.63"/><rect class="e" x="36" y="107.68" width="324" height="180.63"/><rect class="f" x="300.55" y="52.2" width="40.91" height="40.91"/><rect class="f" x="218.57" y="52.36" width="40.91" height="40.91"/><rect class="f" x="136.6" y="52.12" width="40.91" height="40.91"/><rect class="f" x="54.63" y="52.28" width="40.91" height="40.91"/><rect class="f" x="300.46" y="302.82" width="40.91" height="40.91"/><rect class="f" x="218.49" y="302.98" width="40.91" height="40.91"/><rect class="f" x="136.52" y="302.73" width="40.91" height="40.91"/><rect class="f" x="54.55" y="302.9" width="40.91" height="40.91"/><path class="g" d="M134,198a64.12,64.12,0,0,0,64,64V134A64.12,64.12,0,0,0,134,198Z"/><circle class="h" cx="198" cy="198" r="64.38"/><path class="g" d="M165.81,253.76a64.38,64.38,0,0,0,64.38-111.52Z"/><path class="i" d="M217.29,192.47l-40.09-32.8a3.67,3.67,0,0,0-6.08,2.83v66a3.67,3.67,0,0,0,6.08,2.83l40.09-32.81C218.91,196.52,218.91,193.69,217.29,192.47Z"/><path class="j" d="M223,197.46l-40.1-32.81a3.67,3.67,0,0,0-6.07,2.83v66a3.66,3.66,0,0,0,6.07,2.83l40.1-32.8A4.4,4.4,0,0,0,223,197.46Z"/></svg>