<svg xmlns="http://www.w3.org/2000/svg" viewBox="0 0 395.95 395.95"><defs><style>.a{fill:#79af33;}.b,.c,.i{fill:#fff;}.b{opacity:0.5;}.c{stroke:#fff;stroke-miterlimit:10;stroke-width:10px;}.d{fill:#3a556a;}.e{fill:#ebf0f3;}.f{fill:#fcd462;}.g{fill:#44c4a1;}.h{fill:#e56353;}.j{fill:#3ea69b;}.k{fill:#31978c;}.l{fill:#64798a;}.m{fill:#2f4859;}.n{fill:#f6c358;}.o{fill:#dc8744;}</style></defs><title>assignment-03</title><circle class="a" cx="198" cy="198" r="197.95"/><path class="b" d="M146.77,6.79C41.17,35.09-21.5,143.63,6.79,249.23A197.36,197.36,0,0,0,99,369.43L297,26.57A197.37,197.37,0,0,0,146.77,6.79Z"/><path class="c" d="M360,48.06a8,8,0,0,0-7.73-7.66H43.8a7.66,7.66,0,0,0-7.67,7.66v46H36V347.94a7.66,7.66,0,0,0,7.66,7.66H352.14a7.66,7.66,0,0,0,7.66-7.66V94.23h.2Z"/><path class="d" d="M352.27,40.4H43.8a7.66,7.66,0,0,0-7.67,7.66V94.23H360V48.06A8,8,0,0,0,352.27,40.4Z"/><rect class="e" x="48.63" y="58.61" width="202.83" height="17.81"/><circle class="f" cx="277" cy="67.49" r="8.94"/><circle class="g" cx="308.52" cy="67.49" r="8.94"/><circle class="h" cx="340.11" cy="67.49" r="8.94"/><path class="i" d="M359.8,94.1V347.94a7.66,7.66,0,0,1-7.66,7.66H43.66A7.66,7.66,0,0,1,36,347.94V94.1Z"/><polygon class="j" points="114.97 156.26 124.98 146.18 269.94 291.08 260.13 301.23 114.97 156.26"/><polygon class="g" points="106.97 165.41 115.91 156.26 260.13 300.22 250.93 309.36 106.97 165.41"/><polygon class="k" points="124.98 147.13 134.19 137.92 278.21 281.94 269 291.15 124.98 147.13"/><polygon class="d" points="262.42 303.71 272.63 293.63 292.79 313.93 282.71 324.08 262.42 303.71"/><path class="l" d="M277,329.79l6.05-6.05-20.23-20.23-8.94,8.94,17.41,17.41A3.92,3.92,0,0,0,277,329.79Z"/><path class="m" d="M292.26,314.47l6.11-6.05a3.89,3.89,0,0,0,0-5.65l-17.14-17.54-9.14,9Z"/><path class="f" d="M134.19,137.92l-23.59-6.86a11.32,11.32,0,0,1-2.82,7.66,9.21,9.21,0,0,1-7.67,2.83L107,165.41Z"/><path class="l" d="M107.84,139.06a9.77,9.77,0,0,0,2.89-7.93l-11.42-3a1.91,1.91,0,0,0-2.42,2.42L100.11,142A11,11,0,0,0,107.84,139.06Z"/><rect class="f" x="80.51" y="203.06" width="234.81" height="52.62" transform="translate(-104.22 207.13) rotate(-45)"/><rect class="n" x="80.66" y="223.64" width="234.81" height="11.76" transform="translate(-104.28 207.28) rotate(-45)"/><rect class="o" x="289.11" y="164.89" width="2.02" height="7.66" transform="translate(-34.33 254.56) rotate(-45)"/><rect class="o" x="285.88" y="168.29" width="2.02" height="7.66" transform="translate(-37.68 253.27) rotate(-45)"/><rect class="o" x="282.31" y="171.96" width="2.02" height="7.66" transform="translate(-41.32 251.82) rotate(-45)"/><rect class="o" x="277.2" y="172.01" width="2.02" height="12.16" transform="translate(-44.45 248.88) rotate(-45)"/><rect class="o" x="274.89" y="179.02" width="2.02" height="7.66" transform="translate(-48.49 248.65) rotate(-45)"/><rect class="o" x="271.34" y="182.71" width="2.02" height="7.66" transform="translate(-52.13 247.22) rotate(-45)"/><rect class="o" x="268.02" y="186.11" width="2.02" height="7.66" transform="translate(-55.51 245.86) rotate(-45)"/><rect class="o" x="262.94" y="186.1" width="2.02" height="12.16" transform="translate(-58.58 242.93) rotate(-45)"/><rect class="o" x="260.93" y="193.48" width="2.02" height="7.66" transform="translate(-62.8 243.01) rotate(-45)"/><rect class="o" x="257.05" y="196.86" width="2.02" height="7.66" transform="translate(-66.33 241.25) rotate(-45)"/><rect class="o" x="253.82" y="200.26" width="2.02" height="7.66" transform="translate(-69.68 239.96) rotate(-45)"/><rect class="o" x="248.75" y="200.25" width="2.02" height="12.16" transform="translate(-72.75 237.04) rotate(-45)"/><rect class="o" x="246.68" y="207.59" width="2.02" height="7.66" transform="translate(-76.95 237.07) rotate(-45)"/><rect class="o" x="243.16" y="211.29" width="2.02" height="7.66" transform="translate(-80.6 235.66) rotate(-45)"/><rect class="o" x="239.29" y="214.7" width="2.02" height="7.66" transform="translate(-84.14 233.92) rotate(-45)"/><rect class="o" x="234.46" y="214.42" width="2.02" height="12.16" transform="translate(-86.95 231.09) rotate(-45)"/><rect class="o" x="232.48" y="221.73" width="2.02" height="7.66" transform="translate(-91.11 231.17) rotate(-45)"/><rect class="o" x="228.91" y="225.4" width="2.02" height="7.66" transform="translate(-94.75 229.72) rotate(-45)"/><rect class="o" x="225.4" y="229.11" width="2.02" height="7.66" transform="translate(-98.4 228.32) rotate(-45)"/><rect class="o" x="220.26" y="228.56" width="2.02" height="12.16" transform="translate(-101.11 225.19) rotate(-45)"/><rect class="o" x="218.29" y="235.9" width="2.02" height="7.66" transform="translate(-105.28 225.28) rotate(-45)"/><rect class="o" x="214.66" y="239.58" width="2.02" height="7.66" transform="translate(-108.95 223.79) rotate(-45)"/><rect class="o" x="211.1" y="243.26" width="2.02" height="7.66" transform="translate(-112.59 222.36) rotate(-45)"/><rect class="o" x="205.73" y="242.98" width="2.02" height="12.16" transform="translate(-115.56 219.13) rotate(-45)"/><rect class="o" x="203.76" y="250.3" width="2.02" height="7.66" transform="translate(-119.72 219.22) rotate(-45)"/><rect class="o" x="200.43" y="253.7" width="2.02" height="7.66" transform="translate(-123.1 217.87) rotate(-45)"/><rect class="o" x="196.9" y="257.41" width="2.02" height="7.66" transform="translate(-126.76 216.46) rotate(-45)"/><rect class="o" x="191.84" y="257.42" width="2.02" height="12.16" transform="translate(-129.84 213.54) rotate(-45)"/><rect class="o" x="189.47" y="264.48" width="2.02" height="7.66" transform="translate(-133.94 213.27) rotate(-45)"/><rect class="o" x="186.23" y="267.86" width="2.02" height="7.66" transform="translate(-137.27 211.97) rotate(-45)"/><rect class="o" x="182.66" y="271.51" width="2.02" height="7.66" transform="translate(-140.9 210.52) rotate(-45)"/><rect class="o" x="177.55" y="271.57" width="2.02" height="12.16" transform="translate(-144.03 207.58) rotate(-45)"/><rect class="o" x="175.57" y="278.89" width="2.02" height="7.66" transform="translate(-148.19 207.67) rotate(-45)"/><rect class="o" x="171.69" y="282.27" width="2.02" height="7.66" transform="translate(-151.72 205.91) rotate(-45)"/><rect class="o" x="168.46" y="285.67" width="2.02" height="7.66" transform="translate(-155.08 204.62) rotate(-45)"/><rect class="o" x="163.35" y="285.71" width="2.02" height="12.16" transform="translate(-158.19 201.68) rotate(-45)"/><rect class="o" x="161.33" y="293" width="2.02" height="7.66" transform="translate(-162.34 201.73) rotate(-45)"/><rect class="o" x="157.49" y="296.42" width="2.02" height="7.66" transform="translate(-165.89 200.02) rotate(-45)"/><rect class="o" x="153.93" y="300.09" width="2.02" height="7.66" transform="translate(-169.52 198.57) rotate(-45)"/><rect class="o" x="149.1" y="299.81" width="2.02" height="12.16" transform="translate(-172.33 195.73) rotate(-45)"/><rect class="o" x="147.08" y="307.2" width="2.02" height="7.66" transform="translate(-176.56 195.81) rotate(-45)"/><rect class="o" x="143.51" y="310.86" width="2.02" height="7.66" transform="translate(-180.19 194.36) rotate(-45)"/><rect class="o" x="139.68" y="314.22" width="2.02" height="7.66" transform="translate(-183.69 192.64) rotate(-45)"/><rect class="o" x="134.91" y="313.96" width="2.02" height="12.16" transform="translate(-186.49 189.84) rotate(-45)"/><polygon class="h" points="250.86 309.29 278.08 281.81 281.44 285.3 254.02 312.52 250.86 309.29"/></svg>