<svg xmlns="http://www.w3.org/2000/svg" viewBox="0 0 395.95 395.95"><defs><style>.a{fill:#79af33;}.b,.c,.g{fill:#fff;}.b{opacity:0.5;}.c{stroke:#fff;stroke-miterlimit:10;stroke-width:10px;}.d{fill:#f6c358;}.e{fill:#fcd462;}.f{fill:#64798a;}.h{fill:#d5d6db;}.i{fill:#44c4a1;}.j{fill:#e56353;}.k{fill:#ebf0f3;}.l{fill:#e1e6e9;}.m{fill:#27a2db;}.n{fill:#dc8744;}</style></defs><title>assignemnt-04</title><circle class="a" cx="198" cy="198" r="197.95"/><path class="b" d="M146.77,6.79C41.17,35.09-21.5,143.63,6.79,249.23A197.36,197.36,0,0,0,99,369.43L297,26.57A197.37,197.37,0,0,0,146.77,6.79Z"/><path class="c" d="M360,172.94l-34.83-30.11V61.57a6.32,6.32,0,0,0-6.08-6.48H223.67L210.55,43.75a19.56,19.56,0,0,0-25.11,0L172.33,55.09H76.91a6.23,6.23,0,0,0-6.08,6.07V113h0v29.83L36,172.94V337.78h0a19.6,19.6,0,0,0,4,11.74h0a19.2,19.2,0,0,0,15,7.29H340.56a18.6,18.6,0,0,0,15-7.29l-72.73-40.09h.41L356,349.52A19.6,19.6,0,0,0,360,337.78V172.94Z"/><polygon class="d" points="198 262.45 360 172.94 36 172.94 198 262.45"/><path class="d" d="M185.44,43.75,36,172.94H360L210.55,43.75A19.56,19.56,0,0,0,185.44,43.75Z"/><path class="e" d="M36,172.94h0V337.78a19.6,19.6,0,0,0,4,11.74l158-87.07Z"/><path class="f" d="M319.09,55.09H76.91a6.23,6.23,0,0,0-6.08,6.07v40.91H325.17V61.57A6.32,6.32,0,0,0,319.09,55.09Z"/><path class="g" d="M325.17,102.07H125.1a3,3,0,0,1-2.83-2L119,89.92a3,3,0,0,0-2.84-2H84.6a3,3,0,0,0-2.83,2L78.52,100a3,3,0,0,1-2.83,2H70.83V286.34H325.17Z"/><path class="h" d="M70.83,286.34v17a6.23,6.23,0,0,0,6.07,6.08H319.09a6.24,6.24,0,0,0,6.08-6.08v-17Z"/><circle class="e" cx="259.96" cy="71.69" r="6.88"/><circle class="i" cx="284.67" cy="71.69" r="6.88"/><circle class="j" cx="309.78" cy="71.69" r="6.88"/><path class="k" d="M126.32,97.61h42.92l-2.43-7.69a3,3,0,0,0-2.83-2H123.07a.4.4,0,0,0,.41.41Z"/><rect class="l" x="70.83" y="113" width="254.34" height="66.42"/><circle class="h" cx="84.6" cy="146.21" r="6.48"/><polygon class="k" points="80.95 146.21 85.41 150.26 85.41 141.76 80.95 146.21"/><circle class="h" cx="311.4" cy="146.21" r="6.48"/><polygon class="k" points="315.04 146.21 310.59 150.26 310.59 141.76 315.04 146.21"/><circle class="m" cx="275.35" cy="296.06" r="4.86"/><circle class="j" cx="290.34" cy="296.06" r="4.86"/><circle class="i" cx="305.32" cy="296.06" r="4.86"/><rect class="f" x="80.95" y="294.04" width="68.45" height="4.46"/><rect class="f" x="83.79" y="250.7" width="45.77" height="4.46"/><rect class="f" x="83.79" y="268.52" width="30.78" height="4.46"/><rect class="f" x="144.54" y="250.7" width="45.77" height="4.46"/><rect class="f" x="144.54" y="268.52" width="30.78" height="4.46"/><rect class="f" x="205.69" y="250.7" width="45.77" height="4.46"/><rect class="f" x="205.69" y="268.52" width="30.78" height="4.46"/><rect class="f" x="266.44" y="250.7" width="45.77" height="4.46"/><rect class="f" x="266.44" y="268.52" width="30.78" height="4.46"/><path class="i" d="M186.66,190.36H148.59a3.63,3.63,0,0,0-3.65,3.64v38.07a3.63,3.63,0,0,0,3.65,3.65h38.07a3.63,3.63,0,0,0,3.64-3.65V194A3.63,3.63,0,0,0,186.66,190.36Z"/><path class="d" d="M125.91,190.36H87.84A3.63,3.63,0,0,0,84.19,194v38.07a3.63,3.63,0,0,0,3.65,3.65h38.07a3.63,3.63,0,0,0,3.64-3.65V194A3.62,3.62,0,0,0,125.91,190.36Z"/><path class="j" d="M247.41,190.36H209.34a3.63,3.63,0,0,0-3.65,3.64v38.07a3.63,3.63,0,0,0,3.65,3.65h38.07a3.63,3.63,0,0,0,3.64-3.65V194C251.46,192,249.43,190.36,247.41,190.36Z"/><path class="m" d="M308.56,190.36H270.5a3.63,3.63,0,0,0-3.65,3.64v38.07a3.63,3.63,0,0,0,3.65,3.65h38.06a3.63,3.63,0,0,0,3.65-3.65V194A3.63,3.63,0,0,0,308.56,190.36Z"/><rect class="k" x="80.14" y="64.81" width="162.41" height="13.77"/><path class="e" d="M360,172.94h0L198,262.45l158,87.07A19.6,19.6,0,0,0,360,337.78V172.94Z"/><path class="d" d="M40.05,349.52a19.2,19.2,0,0,0,15,7.29H340.56a18.6,18.6,0,0,0,15-7.29l-158-87.07Z"/><polygon class="e" points="36 172.94 36 172.94 36 321.58 198 262.45 36 172.94"/><path class="n" d="M36,321.58v16.2a19.6,19.6,0,0,0,4,11.74l158-87.07Z"/></svg>