<svg xmlns="http://www.w3.org/2000/svg" xmlns:xlink="http://www.w3.org/1999/xlink" viewBox="0 0 425.96 402.78"><defs><style>.a{fill:none;}.b{fill:#ff9800;}.c,.d,.g{fill:#fff;}.c{opacity:0.4;}.d{stroke:#fff;stroke-miterlimit:10;stroke-width:10px;}.e{fill:#ebf0f3;}.f{fill:#e1e6e9;}.h{fill:#64798a;}.i{fill:#3a556a;}.j{fill:#2f4859;}.k{fill:#e56353;}.l{fill:#27a2db;}.m{fill:#2d93ba;}.n{font-size:24.55px;font-family:Menlo-Bold, Menlo;font-weight:700;}.n,.o{fill:#aea79f;}.p{fill:#44c4a1;}.q{clip-path:url(#a);}.r{fill:#ffb4a9;}.s{fill:#fff0d3;}.t{fill:#ff6337;}.u{fill:#ffd9d4;}.v{fill:#ff4128;}</style><clipPath id="a"><rect class="a" x="61.2" y="183.49" width="97.2" height="85.05" transform="translate(-136.93 273.57) rotate(-75)"/></clipPath></defs><title>a0</title><circle class="b" cx="219.1" cy="198" r="197.95"/><path class="c" d="M167.86,6.79C62.26,35.09-.4,143.63,27.89,249.23a197.36,197.36,0,0,0,92.23,120.2l198-342.86A197.37,197.37,0,0,0,167.86,6.79Z"/><path class="d" d="M417.3,134.64,274.73,96.44l11.53-43a2.39,2.39,0,0,0-1.91-3.31L236.54,37.29a2.9,2.9,0,0,0-3.31,1.91l-11.53,43L79.13,44a5,5,0,0,0-6.06,3.5L5.16,300.94A5,5,0,0,0,8.66,307l338.18,90.61a5,5,0,0,0,6.06-3.5L420.8,140.7A5,5,0,0,0,417.3,134.64Z"/><path class="e" d="M417.3,134.64,79.13,44a5,5,0,0,0-6.06,3.5L5.16,300.94A5,5,0,0,0,8.66,307l338.18,90.61a5,5,0,0,0,6.06-3.5L420.8,140.7A5,5,0,0,0,417.3,134.64Z"/><rect class="f" x="102.75" y="70.6" width="211.5" height="333.9" transform="translate(-74.93 377.46) rotate(-75)"/><rect class="g" x="109.43" y="77.41" width="198.45" height="320.85" transform="translate(-75.07 377.82) rotate(-75)"/><path class="f" d="M272.31,110.7,216.67,95.79a5.4,5.4,0,1,0-2.8,10.43L269.08,121a5.47,5.47,0,0,0,6.61-3.82A5.11,5.11,0,0,0,272.31,110.7Z"/><path class="g" d="M272.77,109,217.13,94.05a5.4,5.4,0,0,0-2.79,10.43l55.2,14.79a5.46,5.46,0,0,0,6.61-3.82C276.85,112.85,275.38,109.66,272.77,109Z"/><path class="h" d="M284.35,50.1,236.54,37.29a2.9,2.9,0,0,0-3.31,1.91L217.39,98.31a2.9,2.9,0,0,0,1.91,3.31l47.81,12.81a2.91,2.91,0,0,0,3.31-1.91l15.84-59.11A2.39,2.39,0,0,0,284.35,50.1Z"/><circle class="i" cx="254.62" cy="65.43" r="15.3"/><path class="j" d="M265.09,59.38a14.73,14.73,0,0,1,.11,6.55,12.1,12.1,0,0,1-14.88,8.59A12.27,12.27,0,0,1,243,68.83a11.9,11.9,0,0,0,8.48,8.33,12.09,12.09,0,0,0,14.88-8.59A12.28,12.28,0,0,0,265.09,59.38Z"/><rect class="k" x="215.85" y="31.67" width="19.8" height="281.25" transform="translate(0.9 345.76) rotate(-75)"/><rect class="l" x="61.2" y="183.49" width="97.2" height="85.05" transform="translate(-136.93 273.57) rotate(-75)"/><rect class="m" x="90.3" y="236.08" width="10.8" height="85.05" transform="translate(-198.18 298.94) rotate(-75)"/><text class="n" transform="matrix(0.97, 0.26, -0.26, 0.97, 195.48, 217.94)">REGISTERED!</text><rect class="o" x="261.93" y="178.66" width="9.9" height="158.4" transform="translate(-51.26 448.91) rotate(-75)"/><rect class="o" x="254.48" y="206.48" width="9.9" height="158.4" transform="matrix(0.26, -0.97, 0.97, 0.26, -83.66, 462.33)"/><rect class="p" x="247.14" y="233.86" width="9.9" height="158.4" transform="translate(-115.55 475.53) rotate(-75)"/><g class="q"><path class="r" d="M130.89,302.4,124,300.55l6.13-22.88a10.77,10.77,0,0,0-7.61-13.19l-3.46-.93,1.85-6.93,3.47.93a18,18,0,0,1,12.69,22l-6.13,22.87Z"/><path class="r" d="M55.59,282.23l6.13-22.88a18,18,0,0,1,22-12.69l3.46.93-1.86,6.93-3.46-.92a10.78,10.78,0,0,0-13.19,7.61l-6.13,22.88-6.93-1.86Z"/><path class="s" d="M116.63,249.3l-13.86-3.72-5.62,57.94L111,307.23,123.4,261A9.56,9.56,0,0,0,116.63,249.3Z"/><path class="g" d="M102.77,245.58l-9.24-2.47a9.56,9.56,0,0,0-11.72,6.76L69.42,296.09l27.73,7.43,12.39-46.22A9.58,9.58,0,0,0,102.77,245.58Z"/><circle class="t" cx="88.78" cy="214.59" r="11.96"/><path class="r" d="M122.79,206.14l-14,26.2a21.54,21.54,0,0,0,26.37-15.23Z"/><path class="u" d="M121.3,213.4a63.07,63.07,0,0,0,1.5-7.26l-16.45-14.58a21.53,21.53,0,0,0,2.45,40.78C112.62,233.36,118.22,224.88,121.3,213.4Z"/><path class="v" d="M119.94,190.74l2,20.26a43.32,43.32,0,0,0,13.28,6.11A21.54,21.54,0,0,0,119.94,190.74Z"/><path class="t" d="M119.94,190.74a21.45,21.45,0,0,0-13.59.82A43.19,43.19,0,0,0,121.89,211C124.28,200.53,123.5,191.69,119.94,190.74Z"/></g></svg>