<svg xmlns="http://www.w3.org/2000/svg" viewBox="0 0 450 450"><defs><style>.a{fill:#999;}.b,.c,.d{fill:#fff;}.b{opacity:0.5;}.c{stroke:#fff;stroke-miterlimit:10;stroke-width:10px;}.e{fill:#666;}.f{fill:#ff9800;}</style></defs><title>calendar</title><circle class="a" cx="225.03" cy="225.03" r="224.97"/><path class="b" d="M166.8,7.72C46.79,39.88-24.44,163.24,7.72,283.25A224.29,224.29,0,0,0,112.54,419.86l225-389.66A224.24,224.24,0,0,0,166.8,7.72Z"/><polygon class="c" points="395 57.5 395 42.5 375 42.5 375 57.5 365 57.5 365 42.5 345 42.5 345 57.5 105 57.5 105 42.5 85 42.5 85 57.5 75 57.5 75 42.5 55 42.5 55 57.5 25 57.5 25 407.5 425 407.5 425 57.5 395 57.5"/><rect class="d" x="25" y="57.5" width="400" height="350"/><rect class="e" x="360" y="302.5" width="30" height="30"/><rect class="e" x="360" y="252.5" width="30" height="30"/><rect class="e" x="360" y="202.5" width="30" height="30"/><rect class="e" x="360" y="152.5" width="30" height="30"/><rect class="e" x="310" y="302.5" width="30" height="30"/><rect class="e" x="310" y="252.5" width="30" height="30"/><rect class="e" x="310" y="202.5" width="30" height="30"/><rect class="e" x="310" y="152.5" width="30" height="30"/><rect class="e" x="260" y="302.5" width="30" height="30"/><rect class="e" x="260" y="252.5" width="30" height="30"/><rect class="e" x="260" y="202.5" width="30" height="30"/><rect class="e" x="260" y="152.5" width="30" height="30"/><rect class="e" x="210" y="302.5" width="30" height="30"/><rect class="e" x="210" y="252.5" width="30" height="30"/><rect class="e" x="210" y="202.5" width="30" height="30"/><rect class="e" x="210" y="152.5" width="30" height="30"/><rect class="e" x="160" y="352.5" width="30" height="30"/><rect class="e" x="160" y="302.5" width="30" height="30"/><rect class="e" x="160" y="252.5" width="30" height="30"/><rect class="e" x="160" y="202.5" width="30" height="30"/><rect class="e" x="160" y="152.5" width="30" height="30"/><rect class="f" x="110" y="352.5" width="30" height="30"/><rect class="f" x="110" y="302.5" width="30" height="30"/><rect class="f" x="110" y="252.5" width="30" height="30"/><rect class="f" x="110" y="202.5" width="30" height="30"/><rect class="f" x="110" y="152.5" width="30" height="30"/><rect class="e" x="60" y="352.5" width="30" height="30"/><rect class="e" x="60" y="302.5" width="30" height="30"/><rect class="e" x="60" y="252.5" width="30" height="30"/><rect class="e" x="60" y="202.5" width="30" height="30"/><rect class="f" x="25" y="57.5" width="400" height="75"/><rect class="a" x="375" y="42.5" width="20" height="50"/><polygon class="b" points="375 42.5 395 42.5 375 92.5 375 42.5"/><rect class="a" x="345" y="42.5" width="20" height="50"/><polygon class="b" points="345 42.5 365 42.5 345 92.5 345 42.5"/><rect class="a" x="85" y="42.5" width="20" height="50"/><polygon class="b" points="85 42.5 105 42.5 85 92.5 85 42.5"/><rect class="a" x="55" y="42.5" width="20" height="50"/><polygon class="b" points="55 42.5 75 42.5 55 92.5 55 42.5"/></svg>