<svg xmlns="http://www.w3.org/2000/svg" viewBox="0 0 450 450"><defs><style>.a{fill:#999;}.b,.c,.d{fill:#fff;}.b{opacity:0.5;}.c{stroke:#fff;stroke-width:10px;}.c,.f{stroke-miterlimit:10;}.e{fill:#ff9800;}.f{fill:none;stroke:#666;stroke-width:5px;}</style></defs><title>contact</title><circle class="a" cx="225.03" cy="225.03" r="224.97"/><path class="b" d="M166.8,7.72C46.79,39.88-24.44,163.24,7.72,283.25A224.29,224.29,0,0,0,112.54,419.86l225-389.66A224.24,224.24,0,0,0,166.8,7.72Z"/><polygon class="c" points="403.5 75.25 403.5 48.25 417.5 48.25 417.5 58.25 427.5 58.25 427.5 317.25 362.5 317.25 362.5 392.25 22.5 392.25 23 132.75 43 132.75 43 152.75 63 152.75 63 132.75 77.84 132.75 78 47.75 93 47.75 93 75.75 403.5 75.25"/><polygon class="d" points="23 132.75 43 132.75 43 152.75 63 152.75 63 132.75 83 132.75 83 152.75 103 152.75 103 132.75 123 132.75 123 152.75 143 152.75 143 132.75 163 132.75 163 152.75 183 152.75 183 132.75 203.5 132.75 203.5 153.25 223.5 153.25 223.5 133.25 242.5 133.25 242.5 153.25 263.5 153.25 263.5 133.25 283.5 133.25 283.5 153.25 303.5 153.25 303.5 133.25 322.5 133.25 322.5 153.25 343.5 153.25 343.5 133.25 362.5 133.25 362.5 392.25 22.5 392.25 23 132.75"/><circle class="e" cx="110.39" cy="277.5" r="57.5"/><path class="e" d="M110.39,222.5a55,55,0,1,1-55,55,55,55,0,0,1,55-55m0-5a60,60,0,1,0,60,60,60.07,60.07,0,0,0-60-60Z"/><polygon class="a" points="88 57.75 108 57.75 108 77.75 128 77.75 128 57.75 148 57.75 148 77.75 168 77.75 168 57.75 188 57.75 188 77.75 208 77.75 208 57.75 228 57.75 228 77.75 248 77.75 248 57.75 268.5 57.75 268.5 78.25 288.5 78.25 288.5 58.25 307.5 58.25 307.5 78.25 328.5 78.25 328.5 58.25 348.5 58.25 348.5 78.25 368.5 78.25 368.5 58.25 387.5 58.25 387.5 78.25 408.5 78.25 408.5 58.25 427.5 58.25 427.5 317.25 87.5 317.25 88 57.75"/><polygon class="d" points="78 47.75 98 47.75 98 67.75 118 67.75 118 47.75 138 47.75 138 67.75 158 67.75 158 47.75 178 47.75 178 67.75 198 67.75 198 47.75 218 47.75 218 67.75 238 67.75 238 47.75 258.5 47.75 258.5 68.25 278.5 68.25 278.5 48.25 297.5 48.25 297.5 68.25 318.5 68.25 318.5 48.25 338.5 48.25 338.5 68.25 358.5 68.25 358.5 48.25 377.5 48.25 377.5 68.25 398.5 68.25 398.5 48.25 417.5 48.25 417.5 307.25 77.5 307.25 78 47.75"/><polyline class="f" points="246.16 227.78 266.16 217.41 266.16 227.78 285.66 217.67 285.66 227.78 305.41 217.54 305.41 227.78 325.79 217.22 325.79 227.78 345.97 217.31 345.97 227.78 366.07 217.36 366.07 227.78 384.61 218.16"/><polyline class="f" points="246.16 197.78 266.16 187.41 266.16 197.78 285.66 187.67 285.66 197.78 305.41 187.54 305.41 197.78 325.79 187.22"/><polyline class="f" points="246.16 167.78 266.16 157.41 266.16 167.78 285.66 157.67 285.66 167.78 305.41 157.54 305.41 167.78 325.79 157.22"/><circle class="e" cx="165.39" cy="192.5" r="57.5"/><path class="e" d="M165.39,137.5a55,55,0,1,1-55,55,55,55,0,0,1,55-55m0-5a60,60,0,1,0,60,60,60.07,60.07,0,0,0-60-60Z"/><circle class="d" cx="165.39" cy="164.65" r="20.19"/><path class="d" d="M165.39,237.75a44.13,44.13,0,0,0,38.29-21.58,41.78,41.78,0,0,0-76.58,0C135.45,229.4,149.37,237.75,165.39,237.75Z"/></svg>