<svg xmlns="http://www.w3.org/2000/svg" viewBox="0 0 450 450"><defs><style>.a{fill:#999;}.b,.c,.e{fill:#fff;}.b{opacity:0.5;}.c{stroke:#fff;stroke-miterlimit:10;stroke-width:10px;}.d{fill:#eceeef;}.f{fill:#fed859;}.g{fill:none;stroke:#fed859;stroke-linecap:round;stroke-linejoin:round;stroke-width:20px;}</style></defs><title>example-files</title><circle class="a" cx="225.03" cy="225.03" r="224.97"/><path class="b" d="M166.8,7.72C46.79,39.88-24.44,163.24,7.72,283.25A224.29,224.29,0,0,0,112.54,419.86l225-389.66A224.24,224.24,0,0,0,166.8,7.72Z"/><polygon class="c" points="375.28 115.57 358.19 48.52 337.36 54.39 317.29 17.86 187.6 96.58 139.29 110.18 139.29 81.29 25 81.29 25 384.14 425 384.14 425 115.57 375.28 115.57"/><polygon class="d" points="419.29 203.57 136.63 375.12 34.64 189.41 317.29 17.86 419.29 203.57"/><polygon class="e" points="410.99 255.65 95.73 344.45 42.94 137.32 358.19 48.52 410.99 255.65"/><polygon class="f" points="25 81.29 25 384.14 425 384.14 425 115.57 139.29 115.57 139.29 81.29 25 81.29"/><circle class="e" cx="225" cy="250" r="75"/><polyline class="g" points="189 250 213 274 261 226"/></svg>