<svg xmlns="http://www.w3.org/2000/svg" viewBox="0 0 450 450"><defs><style>.a{fill:#999;}.b,.c{fill:#fff;}.b{opacity:0.5;}.d{fill:#666;}.e,.g,.h{fill:none;}.e{stroke:#fff;}.e,.h{stroke-linecap:round;stroke-width:20px;}.e,.g{stroke-miterlimit:10;}.f{fill:#4d4d4d;}.g,.h{stroke:#fed859;}.g{stroke-width:10px;}.h{stroke-linejoin:round;}</style></defs><title>example-site</title><circle class="a" cx="225.03" cy="225.03" r="224.97"/><path class="b" d="M166.8,7.72C46.79,39.88-24.44,163.24,7.72,283.25A224.29,224.29,0,0,0,112.54,419.86l225-389.66A224.24,224.24,0,0,0,166.8,7.72Z"/><rect class="c" x="25" y="67.5" width="400" height="315"/><rect class="d" x="25" y="67.5" width="400" height="55"/><line class="e" x1="145" y1="95" x2="265" y2="95"/><circle class="c" cx="115" cy="95" r="10"/><circle class="c" cx="85" cy="95" r="10"/><circle class="c" cx="55" cy="95" r="10"/><path class="f" d="M410.74,408.15a4.76,4.76,0,0,1-3.41-1.42L362.58,362,355,384.76a4.82,4.82,0,0,1-9.09.17L317.16,308.3a4.76,4.76,0,0,1,.55-4.43,4.8,4.8,0,0,1,5.66-1.78L400,330.83a4.82,4.82,0,0,1-.17,9.09l-22.77,7.59,44.75,44.74a4.83,4.83,0,0,1,0,6.82l-7.67,7.66A4.75,4.75,0,0,1,410.74,408.15Z"/><path class="c" d="M321.67,304.28a2.46,2.46,0,0,1,.82.15l76.63,28.74a2.32,2.32,0,0,1-.08,4.38L376,345.23a2.32,2.32,0,0,0-.9,3.84L420,394a2.34,2.34,0,0,1,0,3.29L412.38,405a2.33,2.33,0,0,1-3.29,0l-44.95-45a2.27,2.27,0,0,0-1.63-.69,2.32,2.32,0,0,0-2.21,1.59L352.62,384a2.32,2.32,0,0,1-4.38.08L319.5,307.42a2.33,2.33,0,0,1,2.17-3.14m0-5a7.32,7.32,0,0,0-6.85,9.9l28.74,76.63a7.32,7.32,0,0,0,13.8-.26l6.31-18.93,41.89,41.88a7.3,7.3,0,0,0,10.35,0l7.66-7.66a7.32,7.32,0,0,0,0-10.35L381.69,348.6l18.93-6.31a7.32,7.32,0,0,0,.26-13.8l-76.63-28.74a7.44,7.44,0,0,0-2.58-.47Z"/><circle class="g" cx="225" cy="250" r="75"/><polyline class="h" points="189 250 213 274 261 226"/></svg>