<?xml version="1.0" encoding="utf-8"?>
<!-- Generator: Adobe Illustrator 23.0.0, SVG Export Plug-In . SVG Version: 6.00 Build 0)  -->
<svg version="1.1" id="Layer_1" xmlns="http://www.w3.org/2000/svg" xmlns:xlink="http://www.w3.org/1999/xlink" x="0px" y="0px"
	 viewBox="0 0 478 396" style="enable-background:new 0 0 478 396;" xml:space="preserve">
<style type="text/css">
	.st0{fill:#03A9F4;}
	.st1{opacity:0.4;fill:#FFFFFF;enable-background:new    ;}
	.st2{fill:#FFFFFF;stroke:#FFFFFF;stroke-width:10;stroke-miterlimit:10;}
	.st3{fill:none;stroke:#FFFFFF;stroke-width:12;stroke-miterlimit:10;}
	.st4{fill:none;stroke:#FFFFFF;stroke-width:12;stroke-linecap:round;stroke-linejoin:round;}
	.st5{fill:none;stroke:#FFFFFF;stroke-width:14;stroke-miterlimit:10;}
	.st6{fill:#869BB2;}
	.st7{clip-path:url(#SVGID_2_);}
	.st8{fill:#434C6D;stroke:#434C6D;stroke-width:2.81;stroke-miterlimit:10;}
	.st9{fill:#CED9EA;}
	.st10{fill:#434C6D;}
	.st11{fill:#FFFFFF;}
	.st12{clip-path:url(#SVGID_4_);}
	.st13{fill:#AFBBD0;}
	.st14{fill:none;stroke:#434C6D;stroke-width:3;stroke-miterlimit:10;}
	.st15{fill:#1CCDCA;stroke:#44C4A1;stroke-miterlimit:10;}
	.st16{fill:#EF4A36;stroke:#DF382C;stroke-miterlimit:10;}
	.st17{fill:#79AF33;stroke:#38B44A;stroke-miterlimit:10;}
	.st18{fill:#DF382C;}
	.st19{fill:none;stroke:#DF382C;stroke-width:3;stroke-linecap:round;stroke-miterlimit:10;}
	.st20{fill:#AFBBD0;stroke:#434C6D;stroke-width:3;stroke-miterlimit:10;}
	.st21{clip-path:url(#SVGID_6_);}
	.st22{fill:#EFB73E;}
	.st23{fill:#27A2DB;}
	.st24{fill:#44C4A1;}
	.st25{fill:none;stroke:#434C6D;stroke-width:3;stroke-linecap:round;stroke-linejoin:round;}
	.st26{opacity:0.3;fill:#AFBBD0;stroke:#FFFFFF;stroke-width:1.02;stroke-miterlimit:10;enable-background:new    ;}
	.st27{fill:none;stroke:#434C6D;stroke-width:4;stroke-miterlimit:10;}
	
		.st28{opacity:0.5;fill:none;stroke:#FFFFFF;stroke-width:2.04;stroke-linecap:round;stroke-linejoin:round;enable-background:new    ;}
	.st29{opacity:0.5;fill:#808080;enable-background:new    ;}
	.st30{fill:#C18E29;}
</style>
<g>
	<title>project-01</title>
	<circle class="st0" cx="239" cy="198" r="197.9"/>
	<path class="st1" d="M187.8,6.8C82.2,35.1,19.5,143.6,47.8,249.2c13.5,50.7,46.7,94,92.3,120.2L338,26.6
		C292.6,0.2,238.5-6.9,187.8,6.8z"/>
	<path class="st2" d="M467,248.4l-7.2,1.2v-13.3l11.1-5.5l-4.3-8.8l-6.8,3.4v-27.2h-60.2V49.1l0,0c0-0.9-0.3-1.8-0.8-2.6
		c-0.7-1-1.7-1.7-2.9-2c-0.3-0.1-0.6-0.1-0.9-0.1H56.1c-2.6,0-4.6,2.1-4.6,4.6l0,0l0,0v11.5l-1.8,0.3l1.8,10v205.8l0,0
		c0,2.6,2.1,4.6,4.6,4.6h0h131.4l-14.9,50.4h-8c-5.2-0.2-9.5,3.9-9.7,9c-0.2,5.2,3.9,9.5,9,9.7c0.2,0,0.4,0,0.6,0h121.8
		c5.2-0.2,9.2-4.5,9-9.7c-0.2-4.9-4.1-8.9-9-9h-8l-14.9-50.4h78.1v70.2h110.1l8.1-11.7v-80.2l8.9-1.5L467,248.4z"/>
	<path class="st3" d="M58.8,335.3c0.5-0.5-0.5-8.5,9-9s9,9,9,9"/>
	<path class="st4" d="M14.5,336.4c-4.7,1.1-9.5,3.4-9.5,7.9v3"/>
	<path class="st4" d="M121.1,336.4c4.7,1.1,9.5,3.4,9.5,7.9v3"/>
	<path class="st5" d="M16.3,323h40.1c1.4,0,2.5,1.1,2.5,2.5v22.1c0,1.4-1.1,2.5-2.5,2.5H16.3c-1.4,0-2.4-1.1-2.4-2.5v-22.1
		C13.8,324.1,14.9,323,16.3,323z"/>
	<path class="st5" d="M79.3,323h40.1c1.4,0,2.4,1.1,2.4,2.5v22.1c0,1.4-1.1,2.5-2.4,2.5H79.3c-1.4,0-2.4-1.1-2.4-2.5v-22.1
		C76.8,324.1,77.9,323,79.3,323z"/>
	<polygon class="st6" points="276.1,342.4 174.9,342.4 196.5,269.3 254.5,269.3 	"/>
	<g>
		<defs>
			<rect id="SVGID_1_" x="183.3" y="258" width="84.3" height="39.4"/>
		</defs>
		<clipPath id="SVGID_2_">
			<use xlink:href="#SVGID_1_"  style="overflow:visible;"/>
		</clipPath>
		<g class="st7">
			<polygon class="st8" points="276.1,342.4 174.9,342.4 196.5,269.3 254.5,269.3 			"/>
		</g>
	</g>
	<path class="st9" d="M162,337.5h127c1,0,1.8,0.8,1.8,1.8v5.1c0,1-0.8,1.8-1.8,1.8H162c-1,0-1.8-0.8-1.8-1.8v-5.1
		C160.2,338.3,161,337.5,162,337.5z"/>
	<path class="st10" d="M254.5,269.3l20.1,68.2h11.8c2.4,0.1,4.3,2.2,4.1,4.6c-0.1,2.2-1.9,4-4.1,4.1H164.6c-2.4-0.1-4.3-2.2-4.1-4.6
		c0.1-2.2,1.9-4,4.1-4.1h11.8l20.1-68.2L254.5,269.3 M258.2,264.3h-65.5l-1.1,3.6l-19.1,64.6h-8c-5.2,0.2-9.2,4.5-9,9.7
		c0.2,4.9,4.1,8.9,9,9h121.8c5.2-0.2,9.2-4.5,9-9.7c-0.2-4.9-4.1-8.9-9-9h-8l-19.1-64.6l-1-3.6L258.2,264.3z"/>
	<path class="st9" d="M56,47.7h338.9c1.2,0,2.1,1,2.1,2.1v227.6c0,1.2-1,2.1-2.1,2.1H56c-1.2,0-2.1-1-2.1-2.1V49.9
		C53.9,48.7,54.9,47.7,56,47.7z"/>
	<path class="st10" d="M394.6,50.2v226.9H56.4V50.2H394.6 M394.9,45.2H56c-2.6,0-4.6,2.1-4.6,4.6l0,0v227.6c0,2.6,2.1,4.6,4.6,4.6h0
		h338.9c2.6,0,4.6-2.1,4.6-4.6l0,0V49.9C399.6,47.3,397.5,45.2,394.9,45.2C394.9,45.2,394.9,45.2,394.9,45.2z"/>
	<path class="st11" d="M54,246.5V49.9c0-1.1,0.9-2,2-2.1h338.9c1.1,0,2.1,0.9,2.1,2c0,0,0,0,0,0v196.7H54z"/>
	<path class="st10" d="M394.4,50.4V244H56.5V50.4H394.4 M394.9,45.2H56c-2.6,0-4.6,2.1-4.6,4.6v199.3h348.2V49.9
		C399.5,47.3,397.5,45.2,394.9,45.2z"/>
	<circle class="st10" cx="225.5" cy="264" r="7.2"/>
	<g>
		<defs>
			<polyline id="SVGID_3_" points="389.3,53.7 389.3,235.2 61.6,235.2 61.6,53.7 389.3,53.7 			"/>
		</defs>
		<clipPath id="SVGID_4_">
			<use xlink:href="#SVGID_3_"  style="overflow:visible;"/>
		</clipPath>
		<g class="st12">
			<path class="st13" d="M352.1,93.4v153.3h-138V93.4H352.1 M355.4,90.1H210.8V250h144.6V90.1z"/>
			<rect x="95.6" y="90.1" class="st13" width="120.1" height="159.9"/>
			<line class="st14" x1="256.9" y1="205.3" x2="330.9" y2="205.3"/>
			<rect x="232.8" y="197.2" class="st15" width="16" height="16"/>
			<line class="st14" x1="256.9" y1="178.8" x2="330.9" y2="178.8"/>
			<rect x="232.8" y="170.7" class="st9" width="16" height="16"/>
			<line class="st14" x1="256.9" y1="152.2" x2="330.9" y2="152.2"/>
			<rect x="232.8" y="144.2" class="st16" width="16" height="16"/>
			<line class="st14" x1="256.9" y1="125.7" x2="330.9" y2="125.7"/>
			<rect x="232.8" y="117.7" class="st17" width="16" height="16"/>
			<rect x="118.4" y="134" class="st18" width="82.6" height="68.1"/>
			<rect x="119.9" y="176.8" class="st11" width="79.6" height="24.5"/>
			<path class="st18" d="M198,178.3v21.5h-76.6v-21.5H198 M201,175.3h-82.6v27.5H201V175.3z"/>
			<line class="st19" x1="130" y1="183.8" x2="130" y2="194.5"/>
			<line class="st19" x1="136.6" y1="183.8" x2="136.6" y2="194.5"/>
			<line class="st19" x1="149.4" y1="189.1" x2="189.4" y2="189.1"/>
			<line class="st19" x1="156.1" y1="183.8" x2="156.1" y2="194.5"/>
			<path class="st11" d="M148.9,146.8v14.9c0,2,1.6,3.6,3.6,3.6c0.6,0,1.1-0.1,1.6-0.4l14.9-7.4c1.8-0.9,2.5-3,1.6-4.8
				c-0.3-0.7-0.9-1.2-1.6-1.6l-14.9-7.4c-1.8-0.9-3.9-0.1-4.8,1.7C149,145.7,148.9,146.3,148.9,146.8z"/>
		</g>
	</g>
	<polygon class="st20" points="355.4,200.4 458.3,200.4 458.3,340.1 450.9,350.8 343.1,350.8 343.1,207 	"/>
	<g>
		<defs>
			<rect id="SVGID_5_" x="453.4" y="217.6" width="19.6" height="51.5"/>
		</defs>
		<clipPath id="SVGID_6_">
			<use xlink:href="#SVGID_5_"  style="overflow:visible;"/>
		</clipPath>
		<g class="st21">
			
				<rect x="433.8" y="251.9" transform="matrix(0.9861 -0.1664 0.1664 0.9861 -36.4514 78.6277)" class="st22" width="34.3" height="9.8"/>
			
				<rect x="436.2" y="229.9" transform="matrix(0.8969 -0.4421 0.4421 0.8969 -57.0944 224.6445)" class="st18" width="34.3" height="9.8"/>
		</g>
	</g>
	<rect x="343.1" y="207" class="st10" width="107.8" height="143.8"/>
	
		<rect x="380" y="271.9" transform="matrix(0.7071 -0.7071 0.7071 0.7071 -90.4193 355.3878)" class="st23" width="7.5" height="29.9"/>
	
		<rect x="390" y="288.4" transform="matrix(0.7071 -0.7071 0.7071 0.7071 -87.9651 371.9091)" class="st9" width="29.9" height="7.5"/>
	
		<rect x="406.5" y="256" transform="matrix(0.7071 -0.7071 0.7071 0.7071 -71.4338 369.4508)" class="st18" width="7.5" height="29.9"/>
	
		<rect x="374.1" y="261.9" transform="matrix(0.7071 -0.7071 0.7071 0.7071 -73.9021 352.9237)" class="st24" width="29.9" height="7.5"/>
	<path class="st14" d="M58.8,336c0.5-0.5-0.5-8.5,9-9s9,9,9,9"/>
	<path class="st25" d="M118.6,342l-94.7-6c0,0-18.9,0-18.9,9v3"/>
	<path class="st25" d="M17,342l94.7-6c0,0,18.9,0,18.9,9v3"/>
	<path class="st26" d="M16.2,323.8h40.1c1.4,0,2.5,1.1,2.5,2.5v22.1c0,1.4-1.1,2.5-2.5,2.5H16.2c-1.4,0-2.4-1.1-2.4-2.5v-22.1
		C13.8,324.9,14.9,323.8,16.2,323.8z"/>
	<path class="st26" d="M79.2,323.8h40.1c1.4,0,2.4,1.1,2.4,2.5v22.1c0,1.4-1.1,2.5-2.4,2.5H79.2c-1.4,0-2.4-1.1-2.4-2.5v-22.1
		C76.8,324.9,77.9,323.8,79.2,323.8z"/>
	<path class="st27" d="M16.2,323.8h40.1c1.4,0,2.5,1.1,2.5,2.5v22.1c0,1.4-1.1,2.5-2.5,2.5H16.2c-1.4,0-2.4-1.1-2.4-2.5v-22.1
		C13.8,324.9,14.9,323.8,16.2,323.8z"/>
	<path class="st27" d="M79.2,323.8h40.1c1.4,0,2.4,1.1,2.4,2.5v22.1c0,1.4-1.1,2.5-2.4,2.5H79.2c-1.4,0-2.4-1.1-2.4-2.5v-22.1
		C76.8,324.9,77.9,323.8,79.2,323.8z"/>
	<line class="st28" x1="27.2" y1="341.8" x2="44.9" y2="333"/>
	<line class="st28" x1="90.7" y1="341.8" x2="108.4" y2="333"/>
	<polygon class="st29" points="49.6,61.6 111.3,50.8 127.1,117.3 86,124.6 61.8,107.6 	"/>
	<polygon class="st22" points="49.6,61.6 111.3,50.8 122.2,112.4 81.1,119.7 56.9,102.7 	"/>
	<path class="st10" d="M64.5,69.9l9.8,36.2l15.4,1.6l14-6.8l-3.2-37.4L64.5,69.9z M95.5,76.8l-17.2,3l1.2,4.6l16.5-2.9l1.2,14.2
		l-8.7,4.2l0,0h-0.1l-9.7-0.9l-1.8-7l4.5-0.8l1,3.5l5.2,0.5l4.8-2.2l-0.5-5.9l-15.7,2.8l-3.6-13.5l22.6-4L95.5,76.8z"/>
	<polygon class="st30" points="56.9,102.7 81.1,119.7 77.4,99.1 	"/>
</g>
</svg>
