<svg xmlns="http://www.w3.org/2000/svg" xmlns:xlink="http://www.w3.org/1999/xlink" viewBox="0 0 478.64 395.95"><defs><style>.a,.aa,.ac,.ad,.e,.f,.g,.p,.u{fill:none;}.b{fill:#03a9f4;}.c,.d,.m{fill:#fff;}.c{opacity:0.4;}.ab,.ad,.d,.e,.f,.g{stroke:#fff;}.ab,.ac,.d,.e,.g,.j,.p,.q,.r,.s,.u,.v{stroke-miterlimit:10;}.d{stroke-width:10px;}.e,.f{stroke-width:12px;}.aa,.ad,.f,.u{stroke-linecap:round;}.aa,.ad,.f{stroke-linejoin:round;}.g{stroke-width:14px;}.h{fill:#869bb2;}.i{clip-path:url(#a);}.j,.l{fill:#434c6d;}.aa,.ac,.j,.p,.v{stroke:#434c6d;}.j{stroke-width:2.81px;}.k{fill:#ced9ea;}.n{clip-path:url(#b);}.ab,.o,.v{fill:#afbbd0;}.aa,.p,.u,.v{stroke-width:3px;}.q{fill:#1ccdca;stroke:#44c4a1;}.r{fill:#ef4a36;}.r,.u{stroke:#df382c;}.s{fill:#79af33;stroke:#38b44a;}.t{fill:#df382c;}.w{clip-path:url(#c);}.x{fill:#efb73e;}.y{fill:#27a2db;}.z{fill:#44c4a1;}.ab{stroke-width:1.02px;opacity:0.3;}.ac{stroke-width:4px;}.ad{stroke-width:2.04px;}.ad,.ae{opacity:0.5;}.ae{fill:gray;}.af{fill:#c18e29;}</style><clipPath id="a"><rect class="a" x="184.3" y="258.04" width="84.33" height="39.35"/></clipPath><clipPath id="b"><path class="a" d="M390.3,53.73V235.18H62.63V53.73H390.3"/></clipPath><clipPath id="c"><rect class="a" x="454.37" y="217.57" width="19.6" height="51.46"/></clipPath></defs><title>project-02</title><circle class="b" cx="239.97" cy="198" r="197.95"/><path class="c" d="M188.74,6.79c-105.6,28.3-168.27,136.84-140,242.44A197.33,197.33,0,0,0,141,369.43L339,26.57A197.37,197.37,0,0,0,188.74,6.79Z"/><path class="d" d="M468,248.41l-7.24,1.22V236.34l11.14-5.49-4.33-8.79-6.81,3.35V198.16H400.57V49.1h0a4.61,4.61,0,0,0-.79-2.59,4.68,4.68,0,0,0-2.91-1.95,4.73,4.73,0,0,0-.93-.09H57.05a4.63,4.63,0,0,0-4.63,4.63h0V60.56l-1.77.31,1.77,10V276.71h0a4.63,4.63,0,0,0,4.63,4.63H188.48L173.61,331.7h-8a9.36,9.36,0,1,0,0,18.71H287.42a9.36,9.36,0,0,0,0-18.71h-8L264.5,281.34h78.11v70.19H452.73l8.07-11.72V259.57l8.87-1.5Z"/><path class="e" d="M59.8,335.29c.5-.5-.5-8.5,9-9s9,9,9,9"/><path class="f" d="M15.47,336.4C10.73,337.53,6,339.78,6,344.28v3"/><path class="f" d="M122.13,336.4c4.74,1.13,9.47,3.38,9.47,7.88v3"/><rect class="g" x="14.81" y="323.04" width="44.99" height="27" rx="2.45"/><rect class="g" x="77.8" y="323.04" width="44.99" height="27" rx="2.45"/><polygon class="h" points="277.06 342.37 175.87 342.37 197.45 269.28 255.48 269.28 277.06 342.37"/><g class="i"><polygon class="j" points="277.06 342.37 175.87 342.37 197.45 269.28 255.48 269.28 277.06 342.37"/></g><rect class="k" x="161.19" y="337.45" width="130.56" height="8.7" rx="1.8"/><path class="l" d="M255.48,269.28l20.13,68.17h11.78a4.36,4.36,0,0,1,0,8.71H165.54a4.36,4.36,0,0,1,0-8.71h11.78l20.13-68.17h58m3.74-5H193.71l-1.06,3.59-19.07,64.58h-8a9.36,9.36,0,0,0,0,18.71H287.39a9.36,9.36,0,0,0,0-18.71h-8l-19.08-64.58-1-3.59Z"/><rect class="k" x="54.89" y="47.72" width="343.15" height="231.87" rx="2.13"/><path class="l" d="M395.54,50.22V277.09H57.39V50.22H395.54m.37-5H57a4.63,4.63,0,0,0-4.63,4.63V277.46A4.63,4.63,0,0,0,57,282.09H395.91a4.63,4.63,0,0,0,4.63-4.63V49.85a4.63,4.63,0,0,0-4.63-4.63Z"/><path class="m" d="M55,246.53V49.85A2.06,2.06,0,0,1,57,47.79H395.91A2.06,2.06,0,0,1,398,49.85V246.53Z"/><path class="l" d="M395.39,50.36V244H57.53V50.36H395.39m.52-5.14H57a4.64,4.64,0,0,0-4.63,4.63V249.11H400.54V49.85a4.64,4.64,0,0,0-4.63-4.63Z"/><circle class="l" cx="226.46" cy="264.02" r="7.25"/><g class="n"><path class="o" d="M353.06,93.42V246.75h-138V93.42h138m3.28-3.28H211.76V250H356.34V90.14Z"/><rect class="o" x="96.58" y="90.14" width="120.08" height="159.9"/><line class="p" x1="257.87" y1="205.26" x2="331.84" y2="205.26"/><rect class="q" x="233.81" y="197.24" width="16.04" height="16.04"/><line class="p" x1="257.87" y1="178.75" x2="331.84" y2="178.75"/><rect class="k" x="233.81" y="170.73" width="16.04" height="16.04"/><line class="p" x1="257.87" y1="152.24" x2="331.84" y2="152.24"/><rect class="r" x="233.81" y="144.22" width="16.04" height="16.04"/><line class="p" x1="257.87" y1="125.73" x2="331.84" y2="125.73"/><rect class="s" x="233.81" y="117.71" width="16.04" height="16.04"/><rect class="t" x="119.37" y="134.04" width="82.58" height="68.08"/><rect class="m" x="120.87" y="176.84" width="79.58" height="24.53"/><path class="t" d="M199,178.34v21.52H122.37V178.34H199m3-3H119.37v27.52H202V175.34Z"/><line class="u" x1="130.94" y1="183.79" x2="130.94" y2="194.45"/><line class="u" x1="137.6" y1="183.79" x2="137.6" y2="194.45"/><line class="u" x1="150.39" y1="189.12" x2="190.39" y2="189.12"/><line class="u" x1="157.06" y1="183.79" x2="157.06" y2="194.45"/><path class="m" d="M149.86,146.78v14.86a3.58,3.58,0,0,0,5.18,3.2l14.87-7.43a3.58,3.58,0,0,0,0-6.4L155,143.58A3.58,3.58,0,0,0,149.86,146.78Z"/></g><polygon class="v" points="356.34 200.41 459.27 200.41 459.27 340.1 451.91 350.78 344.08 350.78 344.08 207.01 356.34 200.41"/><g class="w"><rect class="x" x="434.75" y="251.94" width="34.31" height="9.8" transform="translate(-36.43 78.76) rotate(-9.58)"/><rect class="t" x="437.2" y="229.89" width="34.31" height="9.8" transform="translate(-56.99 225.09) rotate(-26.24)"/></g><rect class="l" x="344.08" y="207.01" width="107.83" height="143.77"/><rect class="y" x="381.02" y="271.87" width="7.49" height="29.94" transform="translate(-90.13 356.08) rotate(-45)"/><rect class="k" x="390.96" y="288.39" width="29.94" height="7.49" transform="translate(-87.67 372.6) rotate(-45)"/><rect class="t" x="407.49" y="255.99" width="7.49" height="29.94" transform="translate(-71.15 370.14) rotate(-45)"/><rect class="z" x="375.08" y="261.92" width="29.94" height="7.49" transform="translate(-73.61 353.62) rotate(-45)"/><path class="p" d="M59.77,336c.5-.5-.5-8.5,9-9s9,9,9,9"/><path class="aa" d="M119.6,342l-94.69-6S6,336,6,345v3"/><path class="aa" d="M18,342l94.69-6s18.93,0,18.93,9v3"/><rect class="ab" x="14.78" y="323.79" width="44.99" height="27" rx="2.45"/><rect class="ab" x="77.77" y="323.79" width="44.99" height="27" rx="2.45"/><rect class="ac" x="14.78" y="323.79" width="44.99" height="27" rx="2.45"/><rect class="ac" x="77.77" y="323.79" width="44.99" height="27" rx="2.45"/><line class="ad" x1="28.15" y1="341.78" x2="45.9" y2="333.03"/><line class="ad" x1="91.64" y1="341.78" x2="109.39" y2="333.03"/><polygon class="ae" points="50.62 61.62 112.28 50.75 128.05 117.31 86.94 124.55 62.77 107.63 50.62 61.62"/><polygon class="x" points="50.62 61.62 112.28 50.75 123.15 112.4 82.04 119.65 57.87 102.72 50.62 61.62"/><path class="l" d="M65.44,69.86l9.76,36.21,15.42,1.55,14-6.75-3.21-37.36Zm31,6.9-17.24,3,1.2,4.57,16.47-2.91L98.07,95.6l-8.74,4.15v0l-.1,0-9.72-.93-1.81-7,4.47-.79,1,3.52,5.25.47,4.8-2.24-.46-5.93L77.08,89.65,73.47,76.2l22.61-4Z"/><polygon class="af" points="57.87 102.72 82.04 119.65 78.42 99.1 57.87 102.72"/></svg>