<svg xmlns="http://www.w3.org/2000/svg" xmlns:xlink="http://www.w3.org/1999/xlink" viewBox="0 0 478 395.95"><defs><style>.a,.p{fill:none;}.b{fill:#03a9f4;}.c,.d,.j,.t{fill:#fff;}.c{opacity:0.4;}.d,.p{stroke:#fff;}.d,.g,.p{stroke-miterlimit:10;}.d{stroke-width:10px;}.e{fill:#869bb2;}.f{clip-path:url(#a);}.g,.i,.o,.q{fill:#434c6d;}.g{stroke:#434c6d;stroke-width:2.81px;}.h{fill:#ced9ea;}.k{clip-path:url(#b);}.l{fill:#1ccdca;}.m,.s{fill:gray;}.m,.t{opacity:0.5;}.n{fill:#ecc311;}.o{font-size:82.86px;letter-spacing:-0.08em;}.o,.q{font-family:Rockwell;}.p{stroke-width:5px;}.q{font-size:34.69px;}.r{fill:#ef4a36;}.u{clip-path:url(#c);}</style><clipPath id="a"><rect class="a" x="198.1" y="255.18" width="80.28" height="37.46"/></clipPath><clipPath id="b"><path class="a" d="M392.12,64.42V234.84H84.35V64.42H392.12"/></clipPath><clipPath id="c"><path class="a" d="M33.51,192.48C27,193.64,34,232.8,34,232.8l11.65,65.25,13.05-2.32L47,230.47S40,191.31,33.51,192.48Z"/></clipPath></defs><title>project-03</title><circle class="b" cx="239" cy="198" r="197.95"/><path class="c" d="M187.77,6.79C82.17,35.09,19.5,143.63,47.79,249.23A197.36,197.36,0,0,0,140,369.43L338,26.57A197.37,197.37,0,0,0,187.77,6.79Z"/><path class="d" d="M296.24,325.79h-7.48l-14.09-47.71H399.33a4.64,4.64,0,0,0,4.63-4.63V57.21a4.63,4.63,0,0,0-4.63-4.63H77.15a4.63,4.63,0,0,0-4.63,4.63V261.34h-20L40,191.31l-6.53,1.17a1.93,1.93,0,0,0-.46.16l-.06,0a1.85,1.85,0,0,0-.39.3l-.07.06a3.07,3.07,0,0,0-.34.43l0,.06a5,5,0,0,0-.31.57h0a5.68,5.68,0,0,0-.27.7l0,.09c-.08.25-.15.51-.22.8a.29.29,0,0,1,0,.09c-.07.3-.13.6-.18.93h0c-.06.35-.11.71-.15,1.09-1.07.25-8,2.44-5.57,16.33v.05l-8.18-19-.34.14c-.61-1.16-3.13-5.1-8.08-3-5.76,2.48-3.28,8.24-3.28,8.24l.32-.14,4.82,11.2h0l21.39,49.69H30.58a2.84,2.84,0,0,0-2.69,3.23l6.17,74.78a4.93,4.93,0,0,0,3.12,4l54.45,0a4.88,4.88,0,0,0,3.11-4l5.07-61.3h102l-14.09,47.71h-7.47a9.14,9.14,0,1,0,0,18.28h116a9.14,9.14,0,0,0,0-18.28ZM31.8,229,29,213.48c-1.05-5.87-.17-8.89.76-10.38a4.56,4.56,0,0,1,.94-1.11h0c-.11,10.42,2.44,26.11,3.09,29.94V232c0,.11,0,.22.06.31v0c0,.1,0,.18,0,.25v0c0,.12,0,.2,0,.2l.39,2.16Z"/><path class="d" d="M461.21,308H431.08v-17H418.3a9,9,0,0,0-2.6-5.8,10.76,10.76,0,0,0-7.12-2.71c-4.26,0-6.78,1.95-8.19,4.26a8.36,8.36,0,0,0-1.24-1.55,10.76,10.76,0,0,0-7.12-2.71c-4.45,0-6.86,2.07-8.17,4.29a8.71,8.71,0,0,0-1.27-1.58,10.73,10.73,0,0,0-7.12-2.71c-4.23,0-6.75,1.93-8.17,4.23a8.47,8.47,0,0,0-1.22-1.52,10.76,10.76,0,0,0-7.12-2.71c-4.26,0-6.78,1.95-8.19,4.26a8.36,8.36,0,0,0-1.24-1.55,10.76,10.76,0,0,0-7.12-2.71c-4.45,0-6.86,2.07-8.18,4.29a8.25,8.25,0,0,0-1.26-1.58,10.73,10.73,0,0,0-7.12-2.71c-6.74,0-9.15,4.9-9.65,8.38h3.05a6.24,6.24,0,0,1,6.62-5.39h0a7.82,7.82,0,0,1,5,1.86,6.07,6.07,0,0,1,1.67,3.66H303.49v17h16.19v11.73h-7.79v23.59H465.21V319.83H473V308Zm-125.42-17a8.44,8.44,0,0,1,.77-2.29c1.12-2.17,3-3.23,5.86-3.23h0a7.79,7.79,0,0,1,5,1.86,6,6,0,0,1,1.67,3.66Zm16.54,0a6.25,6.25,0,0,1,6.64-5.52h0a7.79,7.79,0,0,1,5,1.86,6,6,0,0,1,1.67,3.66Zm16.35,0s0-.09,0-.13h.21a6.24,6.24,0,0,1,6.62-5.39h0a7.82,7.82,0,0,1,5,1.86,6.07,6.07,0,0,1,1.67,3.66Zm16.73,0a8.44,8.44,0,0,1,.77-2.29c1.12-2.17,3-3.23,5.86-3.23h0a7.79,7.79,0,0,1,5,1.86,6,6,0,0,1,1.67,3.66Zm16.54,0a6.25,6.25,0,0,1,6.64-5.52h0a7.79,7.79,0,0,1,5,1.86,6,6,0,0,1,1.67,3.66Z"/><polygon class="e" points="286.4 335.46 190.07 335.46 210.61 265.89 265.86 265.89 286.4 335.46"/><g class="f"><polygon class="g" points="286.4 335.46 190.07 335.46 210.61 265.89 265.86 265.89 286.4 335.46"/></g><rect class="h" x="176.09" y="330.79" width="124.29" height="8.29" rx="1.8"/><path class="i" d="M265.86,265.89,285,330.79h11.22a4.14,4.14,0,0,1,0,8.28h-116a4.14,4.14,0,1,1,0-8.28h11.21l19.16-64.9h55.25m3.74-5H206.88l-1.06,3.58-18.11,61.32h-7.47a9.14,9.14,0,1,0,0,18.28h116a9.14,9.14,0,0,0,0-18.28h-7.48l-18.11-61.32-1-3.58Z"/><rect class="h" x="75.02" y="55.08" width="326.44" height="220.5" rx="2.13"/><path class="i" d="M399,57.58v215.5H77.52V57.58H399m.37-5H77.15a4.63,4.63,0,0,0-4.63,4.63V273.45a4.63,4.63,0,0,0,4.63,4.63H399.33a4.64,4.64,0,0,0,4.63-4.63V57.21a4.63,4.63,0,0,0-4.63-4.63Z"/><path class="j" d="M75.09,244.11V57.21a2.06,2.06,0,0,1,2.06-2.06H399.33a2.05,2.05,0,0,1,2.05,2.06v186.9Z"/><path class="i" d="M398.81,57.72V241.54H77.66V57.72H398.81m.52-5.14H77.15a4.64,4.64,0,0,0-4.63,4.63V246.68H404V57.21a4.65,4.65,0,0,0-4.63-4.63Z"/><circle class="i" cx="238.24" cy="260.88" r="6.9"/><g class="k"><rect class="l" x="128.91" y="75.6" width="218.66" height="170.32"/><rect class="m" x="288.87" y="165.36" width="87.46" height="46.03"/><rect class="n" x="286.27" y="162.76" width="83.46" height="42.03"/><path class="j" d="M367.73,164.76v38H288.27v-38h79.46m4-4H284.27v46h87.46v-46Z"/><text class="o" transform="translate(322.63 229.81)">”</text><line class="p" x1="145.96" y1="223.21" x2="330.51" y2="223.21"/><line class="p" x1="145.95" y1="197.87" x2="263.55" y2="197.87"/><line class="p" x1="145.95" y1="170.54" x2="263.55" y2="170.54"/><line class="p" x1="145.96" y1="143.21" x2="330.51" y2="143.21"/><line class="p" x1="203.01" y1="115.88" x2="330.51" y2="115.88"/><path class="n" d="M165.73,131.14A22.17,22.17,0,1,1,187.9,109,22.2,22.2,0,0,1,165.73,131.14Z"/><path class="j" d="M165.73,88.8A20.17,20.17,0,1,1,145.56,109,20.2,20.2,0,0,1,165.73,88.8m0-4A24.17,24.17,0,1,0,189.9,109,24.17,24.17,0,0,0,165.73,84.8Z"/><text class="q" transform="translate(155.79 121.09)">T</text></g><rect class="r" x="311.89" y="319.83" width="153.32" height="23.59"/><rect class="n" x="405.52" y="319.83" width="35.38" height="23.59"/><rect class="i" x="319.68" y="308.04" width="153.32" height="11.79"/><rect class="l" x="343.27" y="308.04" width="11.79" height="11.79"/><rect class="l" x="449.41" y="308.04" width="11.79" height="11.79"/><rect class="n" x="303.49" y="291.09" width="127.59" height="17.01"/><circle class="j" cx="408.36" cy="300.4" r="4.14"/><path class="i" d="M408.58,301.9h-.3a1.49,1.49,0,1,1,.16-3,8,8,0,0,0,5.21-1.79,6.31,6.31,0,0,0,1.72-4.77,6.59,6.59,0,0,0-1.76-4.92,7.79,7.79,0,0,0-5-1.86h0c-6.7,0-6.78,6.51-6.78,6.78a1.5,1.5,0,1,1-3,0c0-3.37,2-9.76,9.76-9.77a10.76,10.76,0,0,1,7.12,2.71,9.43,9.43,0,0,1,2.66,7.06,9.15,9.15,0,0,1-2.67,6.95A10.74,10.74,0,0,1,408.58,301.9Z"/><circle class="j" cx="391.81" cy="300.4" r="4.14"/><path class="i" d="M392,301.9h-.3a1.49,1.49,0,1,1,.16-3,8,8,0,0,0,5.21-1.79,6.31,6.31,0,0,0,1.72-4.77,6.59,6.59,0,0,0-1.76-4.92,7.79,7.79,0,0,0-5-1.86h0c-2.82,0-4.74,1.06-5.86,3.23a8.78,8.78,0,0,0-.92,3.56,1.5,1.5,0,0,1-1.49,1.49h0a1.5,1.5,0,0,1-1.49-1.5c0-.09.11-9.76,9.76-9.77a10.76,10.76,0,0,1,7.12,2.71,9.47,9.47,0,0,1,2.66,7.06,9.15,9.15,0,0,1-2.67,6.95A10.74,10.74,0,0,1,392,301.9Z"/><circle class="j" cx="375.26" cy="300.4" r="4.14"/><path class="i" d="M382.59,285.29a10.73,10.73,0,0,0-7.12-2.71c-6.74,0-9.15,4.9-9.65,8.38h3.05a6.24,6.24,0,0,1,6.62-5.39h0a7.8,7.8,0,0,1,5,1.86,6.59,6.59,0,0,1,1.76,4.92,6.31,6.31,0,0,1-1.72,4.77,8,8,0,0,1-5.21,1.79,1.49,1.49,0,1,0-.16,3h.3a10.74,10.74,0,0,0,7.11-2.6,9.15,9.15,0,0,0,2.67-6.95A9.44,9.44,0,0,0,382.59,285.29Z"/><circle class="j" cx="358.74" cy="300.4" r="4.14"/><path class="i" d="M359,301.9h-.3a1.5,1.5,0,0,1-1.41-1.57,1.48,1.48,0,0,1,1.57-1.41,8,8,0,0,0,5.21-1.79,6.31,6.31,0,0,0,1.72-4.77,6.59,6.59,0,0,0-1.76-4.92,7.79,7.79,0,0,0-5-1.86h0c-6.7,0-6.78,6.51-6.78,6.78a1.5,1.5,0,1,1-3,0c0-3.37,2-9.76,9.76-9.77a10.76,10.76,0,0,1,7.12,2.71,9.43,9.43,0,0,1,2.66,7.06,9.15,9.15,0,0,1-2.67,6.95A10.74,10.74,0,0,1,359,301.9Z"/><circle class="j" cx="342.19" cy="300.4" r="4.14"/><path class="i" d="M342.41,301.9h-.3a1.49,1.49,0,1,1,.16-3,8,8,0,0,0,5.21-1.79,6.31,6.31,0,0,0,1.72-4.77,6.59,6.59,0,0,0-1.76-4.92,7.79,7.79,0,0,0-5-1.86h0c-2.82,0-4.74,1.06-5.86,3.23a8.78,8.78,0,0,0-.92,3.56,1.51,1.51,0,0,1-1.5,1.49h0a1.5,1.5,0,0,1-1.49-1.5c0-.09.11-9.76,9.76-9.77a10.76,10.76,0,0,1,7.12,2.71,9.47,9.47,0,0,1,2.66,7.06,9.15,9.15,0,0,1-2.67,6.95A10.74,10.74,0,0,1,342.41,301.9Z"/><circle class="j" cx="325.64" cy="300.4" r="4.14"/><path class="i" d="M333,285.29a10.73,10.73,0,0,0-7.12-2.71c-6.74,0-9.15,4.9-9.65,8.38h3.05a6.24,6.24,0,0,1,6.62-5.39h0a7.82,7.82,0,0,1,5,1.86,6.59,6.59,0,0,1,1.76,4.92,6.31,6.31,0,0,1-1.72,4.77,8,8,0,0,1-5.21,1.79,1.49,1.49,0,1,0-.16,3h.3a10.74,10.74,0,0,0,7.11-2.6,9.15,9.15,0,0,0,2.67-6.95A9.44,9.44,0,0,0,333,285.29Z"/><rect class="n" x="-30.22" y="254.73" width="137.93" height="12.54" transform="translate(263.15 122.21) rotate(66.71)"/><rect class="s" x="7.68" y="197.14" width="12.54" height="12.54" transform="translate(195.27 110.17) rotate(66.71)"/><path class="r" d="M5.53,200.59s-2.48-5.76,3.28-8.24,8.24,3.28,8.24,3.28Z"/><rect class="t" x="-27.34" y="256.63" width="137.93" height="6.27" transform="translate(263.75 118.82) rotate(66.71)"/><rect class="r" x="39.69" y="231.12" width="13.26" height="66.29" transform="translate(-45.7 12.25) rotate(-10.12)"/><path class="i" d="M47,230.47s-7-39.16-13.51-38c-1.41.25-2.19,2.29-2.54,5.32-1.07.25-8,2.44-5.57,16.33l3.5,19.57a1.84,1.84,0,0,0,3.62-.64L29,213.48c-1.05-5.87-.17-8.89.76-10.38a4.56,4.56,0,0,1,.94-1.11C30.6,213.92,34,232.8,34,232.8Z"/><g class="u"><rect class="t" x="42.77" y="191.07" width="6.63" height="106.06" transform="translate(-42.16 11.89) rotate(-10.12)"/></g><path class="i" d="M91.63,343.42a4.88,4.88,0,0,0,3.11-4l6.19-74.81a2.84,2.84,0,0,0-2.7-3.23H30.58a2.84,2.84,0,0,0-2.69,3.23l6.17,74.78a4.93,4.93,0,0,0,3.12,4Z"/><path class="j" d="M86.5,286.34a0,0,0,0,1,0,0l0,0-19.08,7.82a.62.62,0,0,0-.37.69.61.61,0,0,0,.6.5H82.45a2.77,2.77,0,0,1,2.76,3.08l-2.32,21.76a2.79,2.79,0,0,1-1.84,2.33l-15.76,5.54a2.74,2.74,0,0,1-1.83,0l-15.68-5.43a2.77,2.77,0,0,1-1.86-2.33l-1.05-9.86a1.82,1.82,0,0,1,.46-1.42,1.86,1.86,0,0,1,1.36-.61h4.37a1.84,1.84,0,0,1,1.82,1.64l.64,6.06,10.86,3.78,10.91-3.81,1.34-12.56H45.78A1.84,1.84,0,0,1,44,301.88l-.59-5.32a1.84,1.84,0,0,1,1.13-1.9l19.74-8.14a.5.5,0,0,0,.3-.56.51.51,0,0,0-.5-.41H43.26a1.23,1.23,0,0,1-1.22-1.1l-.6-5.72a1.27,1.27,0,0,1,.31-1,1.24,1.24,0,0,1,.91-.4H86.15a1.23,1.23,0,0,1,.91.41,1.22,1.22,0,0,1,.3.95Z"/></svg>