<svg xmlns="http://www.w3.org/2000/svg" xmlns:xlink="http://www.w3.org/1999/xlink" viewBox="0 0 478 395.95"><defs><style>.a,.c,.k,.n{fill:none;}.b{fill:#ced9ea;}.c{clip-path:url(#a);}.d{isolation:isolate;}.e{fill:#03a9f4;}.ab,.f,.g,.j,.r,.t,.w{fill:#fff;}.f{opacity:0.4;}.g,.t,.v{stroke:#fff;}.g,.j,.k,.q,.t,.v{stroke-miterlimit:10;}.g{stroke-width:10px;}.h{fill:#ecc311;}.i{fill:#79af33;}.j,.k{stroke:#79af33;}.l,.u{fill:#df382c;}.m,.q{fill:#434c6d;}.n,.q{stroke:#434c6d;}.n,.z{stroke-linecap:round;stroke-linejoin:round;}.n{stroke-width:3px;}.o{fill:#869bb2;}.p{clip-path:url(#b);}.q{stroke-width:2.81px;}.s{clip-path:url(#c);}.t{stroke-width:7px;}.u{fill-rule:evenodd;}.v{stroke-width:2px;}.w{font-size:31.43px;font-family:Windows-Command-Prompt, Windows Command Prompt;letter-spacing:0.03em;}.x{fill:#44c4a1;}.y{fill:#efb73e;}.aa,.z{fill:#684035;}.z{stroke:#684035;stroke-width:4px;}.aa{opacity:0.99;}.ab{opacity:0.5;mix-blend-mode:overlay;}</style><clipPath id="a"><path class="b" d="M396.2,57.68v179H72.92v-179H396.2"/></clipPath><clipPath id="b"><rect class="a" x="192.4" y="258.07" width="84.33" height="39.35"/></clipPath><clipPath id="c"><path class="c" d="M396.2,57.68v179H72.92v-179H396.2"/></clipPath></defs><title>project-01</title><g class="d"><circle class="e" cx="239" cy="198" r="197.95"/><path class="f" d="M187.77,6.79C82.17,35.09,19.5,143.63,47.79,249.23A197.36,197.36,0,0,0,140,369.43L338,26.57A197.37,197.37,0,0,0,187.77,6.79Z"/><path class="g" d="M437.19,89.33,422.07,59.08a1.5,1.5,0,0,0-2.65-.06L408.64,78.19V49.88A4.63,4.63,0,0,0,404,45.25H65.12a4.63,4.63,0,0,0-4.63,4.63v191.2H29.94A4.09,4.09,0,0,0,25.85,245l-.14,2.51a4.1,4.1,0,0,1-4.1,3.87H9.1a4.09,4.09,0,0,0-4.1,4.1v2.05a4.09,4.09,0,0,0,4.1,4.09h3l3.78,30.29a2,2,0,0,0-1.73,2.22l4.26,34.15a2,2,0,0,0,2,1.75h.25l2.1,16.78a4.55,4.55,0,0,0,4.51,4h37.5a4.53,4.53,0,0,0,3.3-1.44,4.42,4.42,0,0,0,.56-.73,4.22,4.22,0,0,0,.34-.67c.06-.15.12-.31.17-.47a4.82,4.82,0,0,0,.15-.68L71,332.82h.61a4.85,4.85,0,0,0,4.8-4.24l4.26-34.15a4.78,4.78,0,0,0-4.2-5.37l.87-6.94H196.55l-14.87,50.36h-8a9.36,9.36,0,0,0,0,18.71H295.49a9.36,9.36,0,0,0,0-18.71h-8l-14.88-50.36H404a4.63,4.63,0,0,0,4.63-4.63V193.87H473V89.33ZM201.77,282.12h0l-16.35,55.36Zm-29.22,55.5a4.39,4.39,0,0,0-2.52,1.79A4.39,4.39,0,0,1,172.55,337.62Zm126.55,1.79a4.38,4.38,0,0,0-2.53-1.79A4.38,4.38,0,0,1,299.1,339.41Zm-15.39-1.93-16.35-55.36h0ZM408.64,89.33v-5l12-21.36,13.19,26.38Z"/><rect class="h" x="368.46" y="111.73" width="104.54" height="82.14"/><rect class="i" x="368.46" y="89.33" width="104.54" height="22.4"/><rect class="j" x="376.13" y="119.2" width="89.4" height="67"/><line class="k" x1="398.33" y1="118.99" x2="398.33" y2="186.41"/><line class="k" x1="420.73" y1="118.99" x2="420.73" y2="186.41"/><line class="k" x1="443.13" y1="118.99" x2="443.13" y2="186.41"/><line class="k" x1="375.92" y1="141.39" x2="465.53" y2="141.39"/><line class="k" x1="375.92" y1="163.8" x2="465.53" y2="163.8"/><path class="l" d="M436.15,152.49l6.09-6.09a3.06,3.06,0,1,0-4.33-4.32l-6.08,6.09-6.09-6.09a3.05,3.05,0,0,0-4.32,4.32l6.08,6.09-6.08,6.09a3,3,0,0,0,0,4.32,3,3,0,0,0,2.16.9,3,3,0,0,0,2.16-.9l6.09-6.09,6.08,6.09a3.06,3.06,0,1,0,4.33-4.32Z"/><circle class="m" cx="440.07" cy="99.65" r="3.63"/><circle class="m" cx="398.97" cy="99.65" r="3.63"/><polyline class="n" points="398.97 98.44 420.73 59.76 440.07 98.44"/><polygon class="o" points="285.16 342.4 183.97 342.4 205.55 269.31 263.58 269.31 285.16 342.4"/><g class="p"><polygon class="q" points="285.16 342.4 183.97 342.4 205.55 269.31 263.58 269.31 285.16 342.4"/></g><rect class="b" x="169.29" y="337.48" width="130.56" height="8.7" rx="1.8" ry="1.8"/><path class="m" d="M263.58,269.31l20.13,68.17h11.78a4.36,4.36,0,0,1,0,8.71H173.64a4.36,4.36,0,0,1,0-8.71h11.78l20.13-68.17h58m3.74-5H201.81l-1.06,3.59-19.07,64.58h-8a9.36,9.36,0,0,0,0,18.71H295.49a9.36,9.36,0,0,0,0-18.71h-8L268.38,267.9l-1.06-3.59Z"/><rect class="b" x="62.99" y="47.75" width="343.15" height="231.87" rx="2.13" ry="2.13"/><path class="m" d="M403.64,50.25V277.12H65.49V50.25H403.64m.37-5H65.12a4.63,4.63,0,0,0-4.63,4.63V277.49a4.63,4.63,0,0,0,4.63,4.63H404a4.63,4.63,0,0,0,4.63-4.63V49.88A4.63,4.63,0,0,0,404,45.25Z"/><path class="r" d="M63.06,246.56V49.88a2.06,2.06,0,0,1,2.06-2.06H404a2.06,2.06,0,0,1,2.06,2.06V246.56Z"/><path class="m" d="M403.5,50.39V244H65.63V50.39H403.5m.51-5.14H65.12a4.64,4.64,0,0,0-4.63,4.63V249.14H408.64V49.88A4.64,4.64,0,0,0,404,45.25Z"/><circle class="m" cx="234.56" cy="264.05" r="7.25"/><path class="b" d="M396.2,57.68v179H72.92v-179H396.2"/><g class="s"><rect class="o" x="118.52" y="214.49" width="232.09" height="29.01" rx="3.6" ry="3.6"/><circle class="m" cx="299.84" cy="215.7" r="12.09"/><circle class="m" cx="256.32" cy="215.7" r="12.09"/><circle class="m" cx="212.8" cy="215.7" r="12.09"/><circle class="m" cx="169.29" cy="215.7" r="12.09"/><circle class="t" cx="299.84" cy="207.24" r="21.76"/><path class="u" d="M299.84,185.48c-12,0-21.76,10-21.76,22.31A22.29,22.29,0,0,0,293,229c1.09.2,1.49-.49,1.49-1.08s0-1.93,0-3.79c-6.05,1.34-7.33-3-7.33-3a5.89,5.89,0,0,0-2.42-3.27c-2-1.38.15-1.35.15-1.35a4.57,4.57,0,0,1,3.34,2.3c1.94,3.4,5.09,2.42,6.33,1.85a4.81,4.81,0,0,1,1.38-3c-4.83-.57-9.91-2.48-9.91-11a8.76,8.76,0,0,1,2.24-6,8.23,8.23,0,0,1,.21-5.9s1.83-.6,6,2.29a20.14,20.14,0,0,1,10.89,0c4.16-2.89,6-2.29,6-2.29a8.2,8.2,0,0,1,.22,5.9,8.75,8.75,0,0,1,2.23,6c0,8.57-5.09,10.46-9.93,11a5.4,5.4,0,0,1,1.47,4.13c0,3,0,5.39,0,6.12s.39,1.29,1.49,1.07a22.26,22.26,0,0,0,14.87-21.16C321.6,195.46,311.86,185.48,299.84,185.48Z"/><path class="v" d="M338.14,227.2l-6.08-6.07,4.43-2.56a.78.78,0,0,0-.1-1.4l-18.71-7.47a.77.77,0,0,0-.84.17.79.79,0,0,0-.18.85l7.46,18.72a.8.8,0,0,0,.68.49.79.79,0,0,0,.73-.39l2.56-4.43,6.07,6.07a.78.78,0,0,0,1.11,0l2.87-2.87A.8.8,0,0,0,338.14,227.2Z"/><path class="m" d="M334.56,114.15h7a2.32,2.32,0,0,1,2.32,2.32v1.17a2.32,2.32,0,0,0,2.33,2.32h12.76a2.32,2.32,0,0,1,2.32,2.32v18.57a2.32,2.32,0,0,1-2.32,2.32H328.76a2.32,2.32,0,0,1-2.32-2.32V122.28a2.32,2.32,0,0,1,2.32-2.32h1.16a2.32,2.32,0,0,0,2.32-2.32v-1.17A2.32,2.32,0,0,1,334.56,114.15Z"/><path class="m" d="M334.56,70.64h7A2.31,2.31,0,0,1,343.84,73v1.16a2.32,2.32,0,0,0,2.33,2.32h12.76a2.32,2.32,0,0,1,2.32,2.32V97.33a2.32,2.32,0,0,1-2.32,2.32H328.76a2.32,2.32,0,0,1-2.32-2.32V78.76a2.32,2.32,0,0,1,2.32-2.32h1.16a2.32,2.32,0,0,0,2.32-2.32V73A2.32,2.32,0,0,1,334.56,70.64Z"/><rect class="r" x="104.7" y="67.01" width="125.72" height="89.8"/><rect class="r" x="122.66" y="84.97" width="125.72" height="89.8"/><rect class="r" x="140.62" y="102.93" width="125.72" height="89.8"/><rect class="r" x="147.53" y="108.11" width="113.63" height="16.92"/><text class="w" transform="translate(163.64 158.88)">&gt;_</text><rect class="x" x="104.7" y="67.01" width="125.72" height="89.8"/><rect class="r" x="122.66" y="84.97" width="125.72" height="89.8"/><rect class="m" x="140.62" y="102.93" width="125.72" height="89.8"/><rect class="x" x="147.53" y="108.11" width="113.63" height="16.92"/><text class="w" transform="translate(163.64 158.88)">&gt;_</text></g><path class="y" d="M11.83,259.68H80.14L69.25,346.76a4.56,4.56,0,0,1-4.52,4H27.23a4.55,4.55,0,0,1-4.51-4Z"/><polygon class="z" points="71.6 327.98 75.87 293.83 16.1 293.83 20.37 327.98 71.6 327.98"/><circle class="l" cx="45.98" cy="310.23" r="13.06"/><path class="aa" d="M9.1,261.58H82.87a4.11,4.11,0,0,0,4.1-4.1v-2.05a4.1,4.1,0,0,0-4.1-4.1H70.35a4.1,4.1,0,0,1-4.09-3.87L66.12,245A4.1,4.1,0,0,0,62,241.08H29.94A4.09,4.09,0,0,0,25.85,245l-.14,2.51a4.1,4.1,0,0,1-4.1,3.87H9.1a4.09,4.09,0,0,0-4.1,4.1v2.05A4.1,4.1,0,0,0,9.1,261.58Z"/><path class="ab" d="M82.87,251.33H70.35a4.1,4.1,0,0,1-4.09-3.87L66.12,245A4.1,4.1,0,0,0,62,241.08H46V350.75H64.73a4.55,4.55,0,0,0,4.52-4L71,332.82h.61a4.85,4.85,0,0,0,4.8-4.24l4.26-34.15a4.78,4.78,0,0,0-4.2-5.37l3.44-27.48h3a4.11,4.11,0,0,0,4.1-4.1v-2.05A4.1,4.1,0,0,0,82.87,251.33Z"/></g></svg>