<svg xmlns="http://www.w3.org/2000/svg" viewBox="0 0 453.49 430.79"><defs><style>.a{fill:#ff9800;}.b,.c{fill:#fff;}.b{opacity:0.4;}.c{stroke:#fff;stroke-miterlimit:10;stroke-width:10px;}.d{fill:#ebf0f3;}.e{fill:#fcd462;}.f{fill:#f6c358;}</style></defs><title>quiz</title><circle class="a" cx="226.75" cy="216.45" r="197.95"/><path class="b" d="M175.51,25.25C69.91,53.54,7.25,162.09,35.54,267.69a197.33,197.33,0,0,0,92.23,120.19L325.72,45A197.32,197.32,0,0,0,175.51,25.25Z"/><path class="c" d="M71.23,216.45H55.57c0-94.5,76.68-171.18,171.18-171.18V60.93A155.56,155.56,0,0,0,71.23,216.45Z"/><path class="c" d="M141.43,364.41c-4.86-2.7-9.18-5.94-14-8.64l9.18-13c4.32,2.7,8.1,5.4,12.42,8.1Zm-27-18.9c-4.32-3.78-8.1-7.56-11.88-11.34l11.34-10.8a97,97,0,0,0,10.8,10.26ZM91.75,321.75c-3.24-4.32-6.48-8.64-9.72-13.5l13.5-8.64c2.7,4.32,5.4,8.1,8.64,12.42ZM74.47,293.67a129.28,129.28,0,0,1-7-15.12L82,272.61A102,102,0,0,0,88,286.11ZM62.05,263.43c-1.62-5.4-2.7-10.8-3.78-16.2l15.66-2.7,3.24,14.58ZM56.11,231a131.59,131.59,0,0,1-.54-14.58H71.23a104.05,104.05,0,0,0,.54,13Z"/><path class="c" d="M226.75,387.63A172.23,172.23,0,0,1,141.43,365l8.1-13.5c23.76,13.5,50.22,21.06,77.76,21.06A155.56,155.56,0,0,0,382.81,217h15.66C397.93,311,321.25,387.63,226.75,387.63Z"/><path class="c" d="M397.93,216.45H382.27v-4.86l15.66-.54ZM380.65,197a138.12,138.12,0,0,0-2.7-14.58l15.12-3.24c1.08,5.4,2.16,10.8,2.7,16.2Zm-6.48-29.16a149.74,149.74,0,0,0-5.4-14l14.58-6.48c2.16,4.86,4.32,10.26,5.94,15.12Zm-11.88-27.54a61.32,61.32,0,0,0-8.1-12.42l13-9.18a122.07,122.07,0,0,1,8.64,14ZM345,116a97,97,0,0,0-10.26-10.8l10.8-11.34c3.78,3.78,7.56,7.56,11.34,11.88ZM323.41,95c-3.78-3.24-8.1-5.94-11.88-8.64l8.64-13a105.32,105.32,0,0,1,13.5,9.72Zm-24.84-16.2c-4.32-2.16-9.18-4.32-13.5-6.48L291,57.69c4.86,2.16,10.26,4.32,15.12,7ZM271,67.41a144.76,144.76,0,0,0-14.58-3.78L259.69,48c5.4,1.08,10.8,2.16,16.2,3.78ZM241.87,62a136.53,136.53,0,0,0-15.12-.54V45.81c5.4,0,10.8,0,16.2.54Z"/><polygon class="c" points="226.75 11.25 293.71 146.25 442.75 167.85 334.75 273.15 360.13 421.65 226.75 351.45 93.37 421.65 118.75 273.15 10.75 167.85 159.79 146.25 226.75 11.25"/><path class="d" d="M71.23,216.45H55.57c0-94.5,76.68-171.18,171.18-171.18V60.93A155.56,155.56,0,0,0,71.23,216.45Z"/><path class="d" d="M141.43,364.41c-4.86-2.7-9.18-5.94-14-8.64l9.18-13c4.32,2.7,8.1,5.4,12.42,8.1Zm-27-18.9c-4.32-3.78-8.1-7.56-11.88-11.34l11.34-10.8a97,97,0,0,0,10.8,10.26ZM91.75,321.75c-3.24-4.32-6.48-8.64-9.72-13.5l13.5-8.64c2.7,4.32,5.4,8.1,8.64,12.42ZM74.47,293.67a129.28,129.28,0,0,1-7-15.12L82,272.61A102,102,0,0,0,88,286.11ZM62.05,263.43c-1.62-5.4-2.7-10.8-3.78-16.2l15.66-2.7,3.24,14.58ZM56.11,231a131.59,131.59,0,0,1-.54-14.58H71.23a104.05,104.05,0,0,0,.54,13Z"/><path class="d" d="M226.75,387.63A172.23,172.23,0,0,1,141.43,365l8.1-13.5c23.76,13.5,50.22,21.06,77.76,21.06A155.56,155.56,0,0,0,382.81,217h15.66C397.93,311,321.25,387.63,226.75,387.63Z"/><path class="d" d="M397.93,216.45H382.27v-4.86l15.66-.54ZM380.65,197a138.12,138.12,0,0,0-2.7-14.58l15.12-3.24c1.08,5.4,2.16,10.8,2.7,16.2Zm-6.48-29.16a149.74,149.74,0,0,0-5.4-14l14.58-6.48c2.16,4.86,4.32,10.26,5.94,15.12Zm-11.88-27.54a61.32,61.32,0,0,0-8.1-12.42l13-9.18a122.07,122.07,0,0,1,8.64,14ZM345,116a97,97,0,0,0-10.26-10.8l10.8-11.34c3.78,3.78,7.56,7.56,11.34,11.88ZM323.41,95c-3.78-3.24-8.1-5.94-11.88-8.64l8.64-13a105.32,105.32,0,0,1,13.5,9.72Zm-24.84-16.2c-4.32-2.16-9.18-4.32-13.5-6.48L291,57.69c4.86,2.16,10.26,4.32,15.12,7ZM271,67.41a144.76,144.76,0,0,0-14.58-3.78L259.69,48c5.4,1.08,10.8,2.16,16.2,3.78ZM241.87,62a136.53,136.53,0,0,0-15.12-.54V45.81c5.4,0,10.8,0,16.2.54Z"/><polygon class="e" points="226.75 11.25 293.71 146.25 442.75 167.85 334.75 273.15 360.13 421.65 226.75 351.45 93.37 421.65 118.75 273.15 10.75 167.85 159.79 146.25 226.75 11.25"/><polygon class="f" points="226.75 107.91 261.85 179.19 340.69 191.07 283.99 246.69 297.49 324.99 226.75 287.73 156.01 324.99 169.51 246.69 112.81 191.07 191.65 179.19 226.75 107.91"/></svg>