<svg xmlns="http://www.w3.org/2000/svg" viewBox="0 0 450 450"><defs><style>.a{fill:#999;}.b,.c,.e{fill:#fff;}.b{opacity:0.5;}.c{stroke:#fff;stroke-width:10px;}.c,.g{stroke-miterlimit:10;}.d{fill:#ff9800;}.f{fill:#eceeef;}.g{fill:none;stroke:#666;stroke-width:5px;}</style></defs><title>syllabus</title><circle class="a" cx="225.03" cy="225.03" r="224.97"/><path class="b" d="M166.8,7.72C46.79,39.88-24.44,163.24,7.72,283.25A224.29,224.29,0,0,0,112.54,419.86l225-389.66A224.24,224.24,0,0,0,166.8,7.72Z"/><rect class="c" x="75" y="25" width="300" height="400"/><rect class="d" x="75" y="25" width="300" height="400"/><polygon class="e" points="301.4 397 104.5 397 104.5 53 345.5 53 345.5 352 301.4 397"/><polygon class="f" points="345.5 352 300.5 352 300.5 397 345.5 352"/><polyline class="g" points="135.44 305.28 155.44 294.91 155.44 305.28 174.94 295.17 174.94 305.28 194.69 295.04 194.69 305.28 215.07 294.72 215.07 305.28 235.26 294.81 235.26 305.28 255.35 294.86 255.35 305.28 273.9 295.67 273.9 305.28 294.67 294.51 294.67 305.28 314.56 294.97"/><polyline class="g" points="135.44 275.28 155.44 264.91 155.44 275.28 174.94 265.17 174.94 275.28 194.69 265.04 194.69 275.28 215.07 264.72 215.07 275.28 235.26 264.81 235.26 275.28 255.35 264.86 255.35 275.28 273.9 265.67 273.9 275.28 294.67 264.51 294.67 275.28 314.56 264.97"/><polyline class="g" points="135.44 245.28 155.44 234.91 155.44 245.28 174.94 235.17 174.94 245.28 194.69 235.04 194.69 245.28 215.07 234.72 215.07 245.28 235.26 234.81 235.26 245.28 255.35 234.86 255.35 245.28 273.9 235.66 273.9 245.28 294.67 234.51 294.67 245.28 314.56 234.97"/><polyline class="g" points="135.44 215.28 155.44 204.91 155.44 215.28 174.94 205.17 174.94 215.28 194.69 205.04 194.69 215.28 215.07 204.72 215.07 215.28 235.26 204.81 235.26 215.28 255.35 204.86 255.35 215.28 273.9 205.66 273.9 215.28 294.67 204.51 294.67 215.28 314.56 204.97"/><polyline class="g" points="135.44 185.28 155.44 174.91 155.44 185.28 174.94 175.17 174.94 185.28 194.69 175.04 194.69 185.28 215.07 174.72 215.07 185.28 235.26 174.81"/><polyline class="g" points="135.44 155.28 155.44 144.91 155.44 155.28 174.94 145.17 174.94 155.28 194.69 145.04 194.69 155.28 215.07 144.72 215.07 155.28 235.26 144.81"/><polygon class="a" points="253 73 196.89 73 176.89 53 160 53 160 38 183.11 38 203.11 58 247 58 268 38 290 38 290 53 274 53 253 73"/><polygon class="b" points="220 73 196.89 73 176.89 53 160 53 160 38 183.11 38 203.11 58 230 58 220 73"/></svg>