<svg xmlns="http://www.w3.org/2000/svg" viewBox="0 0 512 512"><title>man-02</title><g style="isolation:isolate"><path d="M291.5,283.61h-71a138,138,0,0,1-138-138.06h0A138,138,0,0,1,220.5,7.5h71A138.06,138.06,0,0,1,429.56,145.55h0A138.06,138.06,0,0,1,291.5,283.61Z" style="fill:#5a4650"/><path d="M405.69,374.51l-77.48-22.79a23.67,23.67,0,0,1-17-22.71V291.5H200.78V329a23.67,23.67,0,0,1-17,22.71l-77.48,22.79a55.22,55.22,0,0,0-39.64,53v77H445.33v-77A55.22,55.22,0,0,0,405.69,374.51Z" style="fill:#b67f5f"/><path d="M200.78,317a116.27,116.27,0,0,0,110.44,0V291.5H200.78Z" style="fill:#a06e50"/><path d="M370.39,173.17H358.56a15.78,15.78,0,0,1-15.78-15.78V117.94A15.78,15.78,0,0,0,327,102.17H185a15.78,15.78,0,0,0-15.78,15.77v39.45a15.78,15.78,0,0,1-15.78,15.78H141.61a19.72,19.72,0,0,0,0,39.44h12.23a102.46,102.46,0,0,0,204.32,0h12.23a19.72,19.72,0,1,0,0-39.44Z" style="fill:#cd916e"/><path d="M185,102.17a15.78,15.78,0,0,0-15.78,15.77v39.45a15.78,15.78,0,0,1-15.78,15.78H141.61a19.72,19.72,0,0,0,0,39.44h12.23a101.83,101.83,0,0,0,118,93.34A102.5,102.5,0,0,1,185,204.72V157.39a31.56,31.56,0,0,1,31.56-31.56h94.66A15.77,15.77,0,0,0,327,110.05v-7.88Z" style="fill:#b67f5f"/><path d="M311.22,504.5H445.33v-77a55.22,55.22,0,0,0-39.64-53l-77.48-22.79a23.63,23.63,0,0,1-16.83-20.78h-.16V504.5Z" style="fill:#772953"/><path d="M358.56,504.5l13.57-61.06a15.79,15.79,0,0,0-5.94-16.05l-15.94-11.95a15.79,15.79,0,0,1-6.15-14.86l5.61-39.26A15.57,15.57,0,0,0,346,348.74c-6.34-7.15-18.75-18.42-34.78-19.73V504.5Z" style="fill:#772953"/><path d="M358.56,504.5l13.57-61.06a15.79,15.79,0,0,0-5.94-16.05l-15.94-11.95a15.79,15.79,0,0,1-6.15-14.86l5.61-39.26A15.57,15.57,0,0,0,346,348.74c-6.34-7.15-18.75-18.42-34.78-19.73V504.5Z" style="fill:#999;opacity:0.5;mix-blend-mode:multiply"/><path d="M200.78,504.5H66.67v-77a55.22,55.22,0,0,1,39.64-53l77.48-22.79a23.63,23.63,0,0,0,16.83-20.78h.16V504.5Z" style="fill:#772953"/><path d="M153.44,504.5l-13.57-61.06a15.79,15.79,0,0,1,5.94-16.05l15.94-11.95a15.79,15.79,0,0,0,6.15-14.86l-5.61-39.26A15.57,15.57,0,0,1,166,348.74c6.34-7.15,18.75-18.42,34.78-19.73V504.5Z" style="fill:#772953"/><path d="M153.44,504.5l-13.57-61.06a15.79,15.79,0,0,1,5.94-16.05l15.94-11.95a15.79,15.79,0,0,0,6.15-14.86l-5.61-39.26A15.57,15.57,0,0,1,166,348.74c6.34-7.15,18.75-18.42,34.78-19.73V504.5Z" style="fill:#999;opacity:0.5;mix-blend-mode:multiply"/><path d="M256,409.83A86.36,86.36,0,0,1,200.78,390V504.5H311.22V390A86.36,86.36,0,0,1,256,409.83Z" style="fill:#38b44a"/><path d="M256,409.83A86.36,86.36,0,0,1,200.78,390V504.5H311.22V390A86.36,86.36,0,0,1,256,409.83Z" style="fill:#999;opacity:0.75;mix-blend-mode:multiply"/><path d="M311.22,409.33V367.58a70.83,70.83,0,0,1-110.44,0v41.75a101.79,101.79,0,0,0,110.44,0Z" style="fill:#38b44a"/><path d="M311.22,409.33V367.58a70.83,70.83,0,0,1-110.44,0v41.75a101.79,101.79,0,0,0,110.44,0Z" style="fill:#38b44a"/><path d="M207.65,216.93l17.91-6.71a22.6,22.6,0,0,0,14.66-21.16V173.17h-40.5a22.6,22.6,0,0,0-22.61,22.6h0A22.6,22.6,0,0,0,207.65,216.93Z" style="fill:#38b44a"/><path d="M304.35,216.93l-17.9-6.71a22.59,22.59,0,0,1-14.67-21.16V173.17h40.51a22.6,22.6,0,0,1,22.6,22.6h0A22.6,22.6,0,0,1,304.35,216.93Z" style="fill:#38b44a"/><path d="M274.4,238.83c-2.68,2.64-9.1,5.72-18.4,5.72s-15.72-3.08-18.4-5.72a7.5,7.5,0,1,0-10.53,10.67c6.37,6.3,17.19,10.05,28.93,10.05s22.56-3.75,28.94-10.05a7.5,7.5,0,1,0-10.54-10.67Z" style="fill:#222"/><path d="M200.78,449.67a7.49,7.49,0,0,0-7.5,7.5V504.5a7.5,7.5,0,0,0,15,0V457.17A7.5,7.5,0,0,0,200.78,449.67Z" style="fill:#222"/><path d="M312.28,165.67H199.72A30.1,30.1,0,1,0,210.29,224l17.9-6.72a30.23,30.23,0,0,0,19.53-28.18v-8.4h16.56v8.4a30.24,30.24,0,0,0,19.53,28.18l17.9,6.72a30.1,30.1,0,1,0,10.57-58.29Zm-79.56,23.39a15.18,15.18,0,0,1-9.8,14.14L205,209.91a15.11,15.11,0,0,1-20.41-14.14,15.12,15.12,0,0,1,15.11-15.1h1.45v7.5a7.5,7.5,0,0,0,15,0v-7.5h16.55v8.39Zm88.17,19.12A14.88,14.88,0,0,1,307,209.91l-17.9-6.71a15.18,15.18,0,0,1-9.8-14.14v-8.4h16.55v7.5a7.5,7.5,0,1,0,15,0v-7.5h1.45a15.13,15.13,0,0,1,15.11,15.11A14.9,14.9,0,0,1,320.89,208.18Z" style="fill:#222"/><path d="M407.81,367.31l-51.48-15.14a22.79,22.79,0,0,0-4.72-8.41c-5.93-6.68-17.51-17.48-32.89-21.13V295.1a109.77,109.77,0,0,0,11.51-9.21A145.76,145.76,0,0,0,437.05,145.55C437.06,65.29,371.76,0,291.5,0h-71C140.24,0,74.94,65.29,74.94,145.55A145.84,145.84,0,0,0,181.76,285.89a110.24,110.24,0,0,0,11.52,9.22v27.53c-15.38,3.64-27,14.44-32.89,21.12a22.79,22.79,0,0,0-4.72,8.41l-51.48,15.14a63.07,63.07,0,0,0-45,60.18v77a7.5,7.5,0,0,0,15,0v-77a48,48,0,0,1,34.25-45.78l47.22-13.89,4.84,33.83a8.3,8.3,0,0,1-3.23,7.8l-15.94,11.95a23.32,23.32,0,0,0-8.76,23.67l13.57,61.07a7.51,7.51,0,0,0,7.32,5.87,7.68,7.68,0,0,0,1.63-.18,7.5,7.5,0,0,0,5.69-8.95l-13.57-61.06a8.3,8.3,0,0,1,3.12-8.42l15.94-11.95a23.25,23.25,0,0,0,9.07-21.91l-5.6-39.26a8.07,8.07,0,0,1,1.89-6.55c4.19-4.72,11.9-12.05,21.67-15.46v87.35a7.5,7.5,0,0,0,15,0v-3.46a109.37,109.37,0,0,0,95.44,0V504.5a7.5,7.5,0,0,0,15,0V338.26c9.77,3.41,17.48,10.74,21.67,15.46a8.06,8.06,0,0,1,1.89,6.54l-5.61,39.26a23.29,23.29,0,0,0,9.08,21.92l15.94,11.95a8.27,8.27,0,0,1,3.11,8.42l-13.56,61.06a7.5,7.5,0,0,0,5.69,8.95,7.61,7.61,0,0,0,1.63.18,7.51,7.51,0,0,0,7.32-5.88l13.57-61.06a23.32,23.32,0,0,0-8.76-23.67l-15.94-11.95a8.3,8.3,0,0,1-3.23-7.8l4.84-33.83,47.22,13.89a48,48,0,0,1,34.25,45.78v77a7.5,7.5,0,0,0,15,0v-77A63.07,63.07,0,0,0,407.81,367.31ZM89.94,145.55C89.94,73.57,148.51,15,220.5,15h71c72,0,130.56,58.57,130.56,130.55a130.83,130.83,0,0,1-72.44,116.94A109.14,109.14,0,0,0,365,220.11h4.28c14.45,0,26.84-10.74,28.21-24.44a27.22,27.22,0,0,0-27.08-30H358.56a8.29,8.29,0,0,1-8.28-8.28V117.94A23.3,23.3,0,0,0,327,94.67h-7.89a7.5,7.5,0,0,0,0,15H327a8.29,8.29,0,0,1,8.28,8.27v39.45a23.31,23.31,0,0,0,23.28,23.28h11.83a12.23,12.23,0,0,1,12.16,13.51c-.62,6.13-6.45,10.93-13.29,10.93h-3.21v-.31a7.5,7.5,0,0,0-7.5-7.5h0a7.49,7.49,0,0,0-7.5,7.49,95.06,95.06,0,0,1-190.11-.07,7.5,7.5,0,1,0-15,0v.39h-4.33a12.22,12.22,0,0,1-12.16-13.51c.62-6.13,6.45-10.93,13.29-10.93h10.7a23.3,23.3,0,0,0,23.28-23.28V118a8.28,8.28,0,0,1,8.28-8.28H287.55a7.5,7.5,0,0,0,0-15H185A23.31,23.31,0,0,0,161.72,118v39.44a8.29,8.29,0,0,1-8.27,8.28H142.74c-14.45,0-26.84,10.73-28.21,24.44a27.22,27.22,0,0,0,27.08,30H147a109.39,109.39,0,0,0,15.34,42.37A130.94,130.94,0,0,1,89.94,145.55ZM256,314.78a109.23,109.23,0,0,0,47.72-10.91v61a63.34,63.34,0,0,1-95.44,0v-61A109.36,109.36,0,0,0,256,314.78Zm0,103.33a94.6,94.6,0,0,1-47.72-12.94V385.36a78.42,78.42,0,0,0,95.44,0v19.81A94.6,94.6,0,0,1,256,418.11Z" style="fill:#222"/></g></svg>