<svg xmlns="http://www.w3.org/2000/svg" viewBox="0 0 512 512"><title>man-01</title><g style="isolation:isolate"><path d="M256,7.5c-54.57,0-100.18,34.22-112.23,80.16H368.23C356.18,41.72,310.57,7.5,256,7.5Z" style="fill:#df382c"/><path d="M256,7.5c-54.57,0-100.18,34.22-112.23,80.16H368.23C356.18,41.72,310.57,7.5,256,7.5Z" style="fill:#999;opacity:0.5;mix-blend-mode:multiply"/><path d="M402,318.77c-11.28-17.14-10.42-28-10.86-47.13-.84-36.42-16.3-38-20.9-63.74H141.77c-4.6,25.71-20.06,27.32-20.9,63.74-.44,19.15.42,30-10.87,47.13-17,25.84-4.63,46.45-4.63,46.45H406.63S419,344.61,402,318.77Z" style="fill:#8c5f4b"/><path d="M413.86,366.09l-125.8-37.95H223.93L98.14,366.09a48.09,48.09,0,0,0-34.53,46.14V504.5H448.39V412.23A48.09,48.09,0,0,0,413.86,366.09Z" style="fill:#20b5e9"/><path d="M363.81,351l-75.75-22.85H223.94L148.19,351a112.11,112.11,0,0,0,215.62,0Z" style="fill:#20b5e9"/><path d="M363.81,351l-75.75-22.85H223.94L148.19,351a112.11,112.11,0,0,0,215.62,0Z" style="fill:#999;opacity:0.5;mix-blend-mode:multiply"/><polygon points="135.76 504.5 175.84 504.5 175.84 342.65 135.76 354.74 135.76 504.5" style="fill:#df382c"/><polygon points="376.24 504.5 336.16 504.5 336.16 342.65 376.24 354.74 376.24 504.5" style="fill:#df382c"/><path d="M372.23,175.84h-12V119.72H151.79v56.12h-12a20,20,0,0,0,0,40.08H152.2a104.1,104.1,0,0,0,207.6,0h12.43a20,20,0,0,0,0-40.08Z" style="fill:#f5b97d"/><path d="M151.79,119.73v56.11h-12a20,20,0,0,0,0,40.08H152.2a104,104,0,0,0,31.65,67V199.89a40.08,40.08,0,0,1,40.09-40.08H360.21V119.72Z" style="fill:#e3aa75"/><path d="M153.76,177.58l-18,2.22v-44h32.06v25.91A16,16,0,0,1,153.76,177.58Z" style="fill:#a06e50"/><path d="M358.24,177.58l18,2.22v-44H344.18v25.91A16,16,0,0,0,358.24,177.58Z" style="fill:#a06e50"/><path d="M376.24,135.76H135.76a8,8,0,0,1-8-8V95.68a8,8,0,0,1,8-8H376.24a8,8,0,0,1,8,8v32.06A8,8,0,0,1,376.24,135.76Z" style="fill:#df382c"/><path d="M251.61,7.57l-.35.12a101.87,101.87,0,0,0-26.32,25.66c-11.42,16-.25,38.28,19.43,38.28H362.43C344.52,32.85,301.49,5.9,251.61,7.57Z" style="fill:#df382c"/><path d="M135.76,432.35h0V504.5h-24V456.4A24.05,24.05,0,0,1,135.76,432.35Z" style="fill:#20b5e9"/><path d="M135.76,432.35h0V504.5h-24V456.4A24.05,24.05,0,0,1,135.76,432.35Z" style="fill:#999;opacity:0.5;mix-blend-mode:multiply"/><path d="M376.24,432.35h0V504.5h24.05V456.4A24.05,24.05,0,0,0,376.24,432.35Z" style="fill:#20b5e9"/><path d="M376.24,432.35h0V504.5h24.05V456.4A24.05,24.05,0,0,0,376.24,432.35Z" style="fill:#999;opacity:0.5;mix-blend-mode:multiply"/><path d="M175.84,342.65l-7,2.1L148.19,351a111.89,111.89,0,0,0,27.65,47.39Z" style="fill:#df382c"/><path d="M175.84,342.65l-7,2.1L148.19,351a111.89,111.89,0,0,0,27.65,47.39Z" style="fill:#999;opacity:0.5;mix-blend-mode:multiply"/><path d="M336.16,342.65l7,2.1L363.81,351a111.89,111.89,0,0,1-27.65,47.39V342.65Z" style="fill:#df382c"/><path d="M336.16,342.65l7,2.1L363.81,351a111.89,111.89,0,0,1-27.65,47.39V342.65Z" style="fill:#999;opacity:0.5;mix-blend-mode:multiply"/><path d="M320.13,223.93H191.87a24.05,24.05,0,0,0-24.05,24v72.15A88.17,88.17,0,0,0,256,408.3h0a88.17,88.17,0,0,0,88.18-88.17V248A24.05,24.05,0,0,0,320.13,223.93Z" style="fill:#a06e50"/><path d="M296.08,392.27A88.17,88.17,0,0,1,207.9,304.1V223.93h-16a24.05,24.05,0,0,0-24.05,24v72.15a88.07,88.07,0,0,0,139.93,71.28A88.05,88.05,0,0,1,296.08,392.27Z" style="fill:#8c5f4b"/><path d="M207.9,176.35a7.5,7.5,0,0,0-7.5,7.5v8a7.5,7.5,0,0,0,15,0v-8A7.5,7.5,0,0,0,207.9,176.35Z" style="fill:#222"/><path d="M304.1,176.35a7.5,7.5,0,0,0-7.5,7.5v8a7.5,7.5,0,0,0,15,0v-8A7.5,7.5,0,0,0,304.1,176.35Z" style="fill:#222"/><path d="M274.78,250.66c-2.74,2.7-9.3,5.85-18.78,5.85s-16-3.15-18.78-5.85a7.5,7.5,0,0,0-10.54,10.68c6.46,6.37,17.42,10.18,29.32,10.18s22.86-3.81,29.31-10.18a7.5,7.5,0,1,0-10.53-10.68Z" style="fill:#222"/><path d="M416.27,359c3-8.93,5.09-25.08-8.2-43.47-8.92-12.35-9.06-19.68-9.35-34.28q0-2.14-.09-4.44c-.54-21.45-6.91-31.41-12.52-40.2-2.91-4.55-5.5-8.61-7.27-14.21,11.07-3,19.66-12.35,20.79-23.69a27.47,27.47,0,0,0-15.89-27.82V141.31a15.49,15.49,0,0,0,8-13.57V95.68a15.53,15.53,0,0,0-15.52-15.52h-2.42c-7.11-21.89-21.61-41.57-41.36-55.88C310.54,8.4,284.1,0,256,0s-54.54,8.4-76.46,24.28c-19.75,14.31-34.26,34-41.36,55.88h-2.42a15.53,15.53,0,0,0-15.52,15.52v32.06a15.52,15.52,0,0,0,8,13.58V171.2c-8.63,4.12-14.93,12.27-15.89,21.86a27.52,27.52,0,0,0,20.73,29.53c-1.77,5.49-4.34,9.51-7.21,14-5.61,8.79-12,18.75-12.52,40.2q0,2.29-.09,4.44c-.29,14.6-.43,21.93-9.35,34.28-13.3,18.39-11.21,34.54-8.2,43.47a55.92,55.92,0,0,0-39.62,53.25V504.5a7.5,7.5,0,0,0,15,0V412.23a40.83,40.83,0,0,1,29.14-39l28-8.23V504.5a7.5,7.5,0,0,0,15,0V360.63l23.19-6.82q.88,2.35,1.89,4.63V504.5a7.5,7.5,0,0,0,15,0V382.3a95.61,95.61,0,0,0,162.21-28.49l23.19,6.82V504.5a7.5,7.5,0,0,0,15,0V365.05l28,8.23a40.83,40.83,0,0,1,29.14,39V504.5a7.5,7.5,0,0,0,15,0V412.23A55.92,55.92,0,0,0,416.27,359ZM351.68,143.26h17.06v25.08h-8.53a8.54,8.54,0,0,1-8.53-8.53V143.26ZM135.24,95.68a.52.52,0,0,1,.52-.52H312.11a7.5,7.5,0,0,0,0-15h-158a98.27,98.27,0,0,1,34.24-43.73C207.68,22.41,231.08,15,256,15s48.32,7.41,67.66,21.43A98.32,98.32,0,0,1,357.9,80.16H344.17a7.5,7.5,0,0,0,0,15h32.07a.52.52,0,0,1,.52.52v32.06a.52.52,0,0,1-.52.52H135.76a.52.52,0,0,1-.52-.52Zm25.08,47.58v16.55a8.54,8.54,0,0,1-8.53,8.53h-8.53V143.26Zm-33,51.3c.63-6.29,6.61-11.22,13.62-11.22h10.88a23.56,23.56,0,0,0,23.53-23.53V143.26H336.68v16.55a23.56,23.56,0,0,0,23.53,23.53h12a12.54,12.54,0,0,1,12.48,13.86c-.63,6.29-6.61,11.22-13.62,11.22h-3.38V208a7.5,7.5,0,0,0-7.5-7.5h0a7.5,7.5,0,0,0-7.5,7.5,97.11,97.11,0,0,1-3.85,27,31.58,31.58,0,0,0-28.73-18.53H191.87A31.58,31.58,0,0,0,163.14,235a97,97,0,0,1-3.85-27.08,7.5,7.5,0,0,0-15,0v.52h-4.52a12.54,12.54,0,0,1-12.48-13.86Zm-17.2,160.19c-2-5.36-3.93-16.72,6-30.45,11.68-16.15,11.9-27.32,12.2-42.78,0-1.4.05-2.85.09-4.36.43-17.27,4.94-24.32,10.16-32.49a76.93,76.93,0,0,0,7.92-14.86,111.22,111.22,0,0,0,13.87,35.77v54.55a95.74,95.74,0,0,0,2,19.28ZM256,400.8a80.77,80.77,0,0,1-80.68-80.67V248a16.58,16.58,0,0,1,16.55-16.55H320.13A16.58,16.58,0,0,1,336.68,248v72.15A80.77,80.77,0,0,1,256,400.8Zm95.68-80.67V265.57a111.48,111.48,0,0,0,13.87-35.76,77,77,0,0,0,7.92,14.86c5.22,8.17,9.73,15.22,10.16,32.49,0,1.51.07,3,.09,4.36.31,15.46.52,26.63,12.2,42.78,9.88,13.68,7.91,25.06,6,30.45l-52.17-15.34A95.74,95.74,0,0,0,351.68,320.13Z" style="fill:#222"/><path d="M336.16,400.81a7.5,7.5,0,0,0-7.5,7.5V504.5a7.5,7.5,0,0,0,15,0V408.31A7.5,7.5,0,0,0,336.16,400.81Z" style="fill:#222"/><path d="M199.88,171.65a7.9,7.9,0,0,0,2-.26l16-4.35A7.5,7.5,0,1,0,214,152.57l-16,4.34a7.5,7.5,0,0,0,1.95,14.74Z" style="fill:#222"/><path d="M294.12,167l16,4.35a7.9,7.9,0,0,0,2,.26,7.5,7.5,0,0,0,1.95-14.74l-16-4.34A7.5,7.5,0,1,0,294.12,167Z" style="fill:#222"/></g></svg>