<svg xmlns="http://www.w3.org/2000/svg" viewBox="0 0 512 512"><title>woman-01</title><g style="isolation:isolate"><circle cx="135.76" cy="63.61" r="56.11" style="fill:#44c4a1"/><circle cx="376.24" cy="63.61" r="56.11" style="fill:#44c4a1"/><path d="M380.09,207.9a136.27,136.27,0,1,0-248.18,0Z" style="fill:#44c4a1"/><path d="M380.09,207.9a136.27,136.27,0,1,0-248.18,0Z" style="fill:#fff;opacity:0.75;mix-blend-mode:soft-light"/><path d="M408.28,405l-82.79-29.22a32.08,32.08,0,0,1-21.39-30.24V304.1H207.9v41.44a32.08,32.08,0,0,1-21.39,30.24L103.72,405a48.09,48.09,0,0,0-32.09,45.35V504.5H440.37V450.35A48.09,48.09,0,0,0,408.28,405Z" style="fill:#e3aa75"/><path d="M408.28,405l-31.92-11.27a159.84,159.84,0,0,1-240.72,0L103.72,405a48.09,48.09,0,0,0-32.09,45.35V504.5H440.37V450.35A48.09,48.09,0,0,0,408.28,405Z" style="fill:#e95420"/><path d="M207.9,333.92a117.88,117.88,0,0,0,96.2,0V304.1H207.9v29.82Z" style="fill:#d29b6e"/><path d="M372.23,183.85h-12v-8a104.21,104.21,0,0,0-208.42,0v8h-12a20,20,0,1,0,0,40.08h12.42a104.11,104.11,0,0,0,207.61,0h12.43a20,20,0,0,0,0-40.08Z" style="fill:#f5b97d"/><path d="M183.85,215.92V175.84a102.54,102.54,0,0,1,3.36-26.05c4.07-15.44,21.9-22.82,35.54-14.52A278.61,278.61,0,0,0,360.2,175.61,104.2,104.2,0,0,0,256,71.63c-24.36,0-46.82,7.89-64.54,21.91-.05-.2,0,.2,0,0-24.27,18.95-39.67,48.79-39.67,84.14v6.17H140.91c-10.48,0-20,7.55-21.08,18a20,20,0,0,0,19.94,22.11h12.42a103.48,103.48,0,0,0,119.89,94.84A104.15,104.15,0,0,1,183.85,215.92Z" style="fill:#e3aa75"/><path d="M256,15.52A135.61,135.61,0,0,0,164.47,51,256,256,0,0,0,368.23,151.79c8.09,0,16.08-.42,24-1.15A136.24,136.24,0,0,0,256,15.52Z" style="fill:#44c4a1"/><path d="M256,15.52A135.61,135.61,0,0,0,164.47,51,256,256,0,0,0,368.23,151.79c8.09,0,16.08-.42,24-1.15A136.24,136.24,0,0,0,256,15.52Z" style="fill:#44c4a1"/><path d="M256,472.43a176.1,176.1,0,0,0,141.59-71.21l-21.23-7.49a159.84,159.84,0,0,1-240.72,0l-21.23,7.49A176.1,176.1,0,0,0,256,472.43Z" style="fill:#e95420"/><path d="M256,472.43a176.1,176.1,0,0,0,141.59-71.21l-21.23-7.49a159.84,159.84,0,0,1-240.72,0l-21.23,7.49A176.1,176.1,0,0,0,256,472.43Z" style="fill:#999;opacity:0.5;mix-blend-mode:multiply"/><path d="M184.83,409.28,160.5,385,103.72,405a48.09,48.09,0,0,0-32.09,45.35V504.5H191.87V426.28A24,24,0,0,0,184.83,409.28Z" style="fill:#efb73e"/><path d="M327.17,409.28,351.5,385,408.28,405a48.09,48.09,0,0,1,32.09,45.35V504.5H320.13V426.28A24,24,0,0,1,327.17,409.28Z" style="fill:#efb73e"/><path d="M410.78,397.92,328,368.7a24.6,24.6,0,0,1-16.38-23.16V312.78a112,112,0,0,0,55-81.35h5.6a27.53,27.53,0,0,0,22.8-43,144.26,144.26,0,0,0,2-64.71,63.62,63.62,0,1,0-71.9-98,143.6,143.6,0,0,0-138.24,0,63.62,63.62,0,1,0-71.9,98,144.26,144.26,0,0,0,2,64.71,27.53,27.53,0,0,0,22.8,43h5.6a112,112,0,0,0,55,81.35v32.75A24.61,24.61,0,0,1,184,368.71l-82.79,29.22a55.69,55.69,0,0,0-37.09,52.42V504.5a7.5,7.5,0,0,0,15,0V450.35a40.65,40.65,0,0,1,27.08-38.28l52.33-18.47,21,21a16.43,16.43,0,0,1,4.85,11.7V504.5a7.5,7.5,0,0,0,15,0V445.18a155.07,155.07,0,0,0,113.26,0v3.2a7.5,7.5,0,0,0,15,0v-22.1a16.43,16.43,0,0,1,4.85-11.7l21-21,52.33,18.47a40.65,40.65,0,0,1,27.08,38.28V504.5a7.5,7.5,0,0,0,15,0V450.35A55.7,55.7,0,0,0,410.78,397.92ZM376.24,15a48.62,48.62,0,0,1,17.08,94.14,144.39,144.39,0,0,0-55.4-75.43A48.26,48.26,0,0,1,376.24,15ZM87.14,63.61a48.61,48.61,0,0,1,86.93-29.9,144.42,144.42,0,0,0-55.39,75.43A48.51,48.51,0,0,1,87.14,63.61Zm72.15,152.31a7.5,7.5,0,0,0-15,0c0,.17,0,.34,0,.52h-4.53a12.55,12.55,0,0,1,0-25.09h6c7.9,0,7.92,0,9.6-.92a7.51,7.51,0,0,0,3.91-6.63v-8c0-23.88,7.48-44.71,22.24-61.9a7.5,7.5,0,1,0-11.38-9.77c-17.16,20-25.86,44.1-25.86,71.67v.52h-4.52a27.26,27.26,0,0,0-9.84,1.83,128.78,128.78,0,1,1,252.13,0,27.2,27.2,0,0,0-9.83-1.82h-4.52V158.62h.52a7.5,7.5,0,0,0,0-15C305.44,143.62,260,123.3,233,106.25c-29.38-18.53-44.08-37.34-44.22-37.53a7.5,7.5,0,0,0-11.9,9.14c.64.84,16.1,20.74,47.49,40.68,26.51,16.84,69.58,36.63,128.32,39.67v25.64h0a7.5,7.5,0,0,0,3.63,6.44c1.78,1.07,1.81,1.06,9.87,1.07h6a12.55,12.55,0,0,1,0,25.09H367.7c0-.18,0-.35,0-.52a7.5,7.5,0,0,0-15,0,96.71,96.71,0,0,1-193.42,0ZM321.87,404a31.33,31.33,0,0,0-9.24,22.3v2.58a139.3,139.3,0,0,1-113.26,0v-2.58a31.31,31.31,0,0,0-9.24-22.3l-15.91-15.91L189,382.85a39.63,39.63,0,0,0,26.39-37.31V320a111.7,111.7,0,0,0,81.2,0v25.55A39.62,39.62,0,0,0,323,382.85l14.79,5.22Z" style="fill:#222"/><path d="M285.32,261.34a7.5,7.5,0,1,0-10.54-10.68c-2.74,2.7-9.3,5.86-18.78,5.86s-16-3.16-18.78-5.86a7.5,7.5,0,0,0-10.54,10.68c6.46,6.37,17.42,10.18,29.32,10.18S278.85,267.71,285.32,261.34Z" style="fill:#222"/><path d="M320.13,473a7.5,7.5,0,0,0-7.5,7.5V504.5a7.5,7.5,0,0,0,15,0V480.45A7.5,7.5,0,0,0,320.13,473Z" style="fill:#222"/><path d="M207.9,184.37a7.5,7.5,0,0,0-7.5,7.5v8a7.5,7.5,0,0,0,15,0v-8A7.5,7.5,0,0,0,207.9,184.37Z" style="fill:#222"/><path d="M304.1,207.39a7.5,7.5,0,0,0,7.5-7.5v-8a7.5,7.5,0,0,0-15,0v8A7.5,7.5,0,0,0,304.1,207.39Z" style="fill:#222"/><path d="M207.91,175.32a7.5,7.5,0,0,0,.18-15l-8-.19a7.5,7.5,0,1,0-.37,15l8,.2Z" style="fill:#222"/><path d="M304.09,175.32h.19l8-.2a7.5,7.5,0,1,0-.37-15l-8,.2a7.5,7.5,0,0,0,.18,15Z" style="fill:#222"/></g></svg>