<svg xmlns="http://www.w3.org/2000/svg" viewBox="0 0 512 512"><title>woman-02-operator</title><g style="isolation:isolate"><path d="M360.21,240H151.79c0,61.72-32.06,97-16,176.35H376.24C392.27,337,360.21,301.69,360.21,240Z" style="fill:#efb73e"/><path d="M256,240H151.79c0,61.72-32.07,97-16,176.35H256Z" style="fill:#efb73e"/><path d="M256,240H151.79c0,61.72-32.07,97-16,176.35H256Z" style="fill:#999;opacity:0.5;mix-blend-mode:multiply"/><path d="M408.28,421l-82.79-29.22a32.07,32.07,0,0,1-21.39-30.24V312.11H207.9v49.46a32.07,32.07,0,0,1-21.39,30.24L103.72,421a48.09,48.09,0,0,0-32.09,45.35V504.5H440.37V466.38A48.1,48.1,0,0,0,408.28,421Z" style="fill:#f7d291"/><path d="M408.28,421l-80.65-28.47a72.11,72.11,0,0,1-143.26,0L103.72,421a48.09,48.09,0,0,0-32.09,45.35V504.5H440.37V466.38A48.1,48.1,0,0,0,408.28,421Z" style="fill:#df382c"/><path d="M207.9,358.31a121.57,121.57,0,0,0,96.2,0V320.13H207.9v38.18Z" style="fill:#f0c382"/><path d="M256,344.18h0A104.21,104.21,0,0,1,151.79,240V127.74H360.21V240A104.21,104.21,0,0,1,256,344.18Z" style="fill:#ffe1a0"/><path d="M151.79,127.74V240A103.5,103.5,0,0,0,272,342.82,104.14,104.14,0,0,1,183.86,240V212.55a31.86,31.86,0,0,1,.82-7.2c1.93-8.29,9.74-13.34,18.2-14.37a24.49,24.49,0,0,0,3.41-.68q33.51-9.26,58.17-20.51a24.06,24.06,0,0,0,24,22,225.18,225.18,0,0,0,58.54-9,23.8,23.8,0,0,0,12.35-8.83l.89-2V127.74Z" style="fill:#f7d291"/><path d="M250.19,39.7c-64.68,3-114.43,58.76-114.43,123.5v36.69h16v-7.28a16,16,0,0,1,11.94-15.5c31.41-8.14,82-23,112.7-41.33a8,8,0,0,1,12,6.93v16.63a8,8,0,0,0,8.5,8A200.48,200.48,0,0,0,340,159.72c9.26-2.79,20.21,8.1,20.21,19.68v20.49h16V159.81A120.25,120.25,0,0,0,250.19,39.7Z" style="fill:#efb73e"/><path d="M250.19,39.7c-64.68,3-114.43,58.76-114.43,123.5v36.69h16v-7.28a16,16,0,0,1,11.94-15.5c31.41-8.14,82-23,112.7-41.33a8,8,0,0,1,12,6.93v16.63a8,8,0,0,0,8.5,8A200.48,200.48,0,0,0,340,159.72c9.26-2.79,20.21,8.1,20.21,19.68v20.49h16V159.81A120.25,120.25,0,0,0,250.19,39.7Z" style="fill:#999;opacity:0.5;mix-blend-mode:multiply"/><path d="M250.19,39.7a115.66,115.66,0,0,0-49.47,13.83,156.34,156.34,0,0,0,48,95.95,229.31,229.31,0,0,0,27.75-13.7,8,8,0,0,1,12,6.93v16.63a8,8,0,0,0,8.49,8A200.48,200.48,0,0,0,340,159.72c9.26-2.79,20.21,8.1,20.21,19.68v20.49h16V159.81A120.25,120.25,0,0,0,250.19,39.7Z" style="fill:#efb73e"/><path d="M127.74,248h24V183.85h-24a16,16,0,0,0-16,16V232A16,16,0,0,0,127.74,248Z" style="fill:#777"/><path d="M384.26,248H360.21V183.85h24.05a16,16,0,0,1,16,16V232A16,16,0,0,1,384.26,248Z" style="fill:#777"/><path d="M161.31,400.7a96.09,96.09,0,0,0,189.38,0l-23.06-8.14a72.11,72.11,0,0,1-143.26,0Z" style="fill:#df382c"/><path d="M161.31,400.7a96.09,96.09,0,0,0,189.38,0l-23.06-8.14a72.11,72.11,0,0,1-143.26,0Z" style="fill:#999;opacity:0.5;mix-blend-mode:multiply"/><path d="M275.14,274.71c-2.74,2.7-9.3,5.85-18.78,5.85s-16-3.15-18.78-5.85A7.5,7.5,0,0,0,227,285.39c6.46,6.37,17.42,10.17,29.32,10.17s22.85-3.8,29.31-10.17a7.5,7.5,0,1,0-10.53-10.68Z" style="fill:#222"/><path d="M208.26,216.32a7.5,7.5,0,0,0-7.5,7.5v8a7.5,7.5,0,1,0,15,0v-8A7.5,7.5,0,0,0,208.26,216.32Z" style="fill:#222"/><path d="M304.45,216.32a7.5,7.5,0,0,0-7.5,7.5v8a7.5,7.5,0,0,0,15,0v-8A7.49,7.49,0,0,0,304.45,216.32Z" style="fill:#222"/><path d="M216.28,192.27h-16a7.5,7.5,0,0,0,0,15h16a7.5,7.5,0,0,0,0-15Z" style="fill:#222"/><path d="M312.47,192.27h-16a7.5,7.5,0,0,0,0,15h16a7.5,7.5,0,0,0,0-15Z" style="fill:#222"/><path d="M410.78,414l-26.13-9.23c8.36-42.54.5-71.46-7.11-99.45-4.45-16.33-8.67-31.87-9.63-49.8h16.35A23.55,23.55,0,0,0,407.79,232V151.79C407.79,68.09,339.7,0,256,0S104.21,68.09,104.21,151.79V256a31.58,31.58,0,0,0,31.55,31.55h3.34c-1.42,5.91-3,11.76-4.63,17.73-7.62,28-15.48,56.91-7.11,99.45L101.22,414a55.69,55.69,0,0,0-37.09,52.42V504.5a7.5,7.5,0,0,0,15,0V466.38a40.44,40.44,0,0,1,5.48-20.32L120,476.43a24.54,24.54,0,0,1,8.58,18.65v9.3a7.5,7.5,0,0,0,15,0v-9.3a39.54,39.54,0,0,0-13.82-30L94.39,434.68a40.41,40.41,0,0,1,11.82-6.58l72.28-25.51a79.69,79.69,0,0,0,114,52.46,7.5,7.5,0,0,0-6.89-13.33A63.84,63.84,0,0,1,256,448.9a64.77,64.77,0,0,1-63.3-51.54,39.65,39.65,0,0,0,22.7-35.79V343.75a108.17,108.17,0,0,0,35.57,7.8c1.82.09,3.64.13,5.45.13a111.26,111.26,0,0,0,40.18-7.43v17.32a39.63,39.63,0,0,0,22.71,35.79,64.67,64.67,0,0,1-11.41,25.45,7.5,7.5,0,0,0,12,8.95,79.73,79.73,0,0,0,13.57-29.17l72.28,25.51A40.45,40.45,0,0,1,418,435L382.92,465a39.51,39.51,0,0,0-13.82,30v9.3a7.5,7.5,0,0,0,15,0v-9.3a24.54,24.54,0,0,1,8.58-18.65l34.95-30a40.44,40.44,0,0,1,5.24,19.91V504.5a7.5,7.5,0,0,0,15,0V466.38A55.69,55.69,0,0,0,410.78,414Zm-18-182a8.54,8.54,0,0,1-8.53,8.53h-16.2c0-.17,0-.34,0-.51V191.35h16.19a8.55,8.55,0,0,1,8.53,8.54V232ZM119.21,151.79C119.21,76.36,180.57,15,256,15S392.79,76.36,392.79,151.79V178a23.48,23.48,0,0,0-8.53-1.61h-.52V159.81a127.74,127.74,0,1,0-255.48,0v16.55h-.52a23.47,23.47,0,0,0-8.53,1.6V151.79Zm0,48.1a8.55,8.55,0,0,1,8.53-8.54h16.55v49.13H127.74a8.54,8.54,0,0,1-8.53-8.53Zm16.55,72.66A16.57,16.57,0,0,1,119.21,256v-2.12a23.47,23.47,0,0,0,8.53,1.6h16.35a153.3,153.3,0,0,1-1.91,17.07Zm64.64,89A24.6,24.6,0,0,1,184,384.74l-42.36,14.94c-7-37.88-.07-63.47,7.28-90.46,1.92-7.08,3.87-14.24,5.55-21.67h1.66a116.12,116.12,0,0,0,19,28.11,112.8,112.8,0,0,0,25.21,20.62v25.29Zm51.27-25a94.43,94.43,0,0,1-65.42-31,101.24,101.24,0,0,1-13.14-18h26.46a7.71,7.71,0,0,0,7.81-7.27,7.49,7.49,0,0,0-7.49-7.73H166.06A101.7,101.7,0,0,1,159.65,237V184.41c3.18-.65,6.35-1.31,9.5-2a7.69,7.69,0,0,0,6-8.78,7.51,7.51,0,0,0-9-5.94c-7.6,1.67-15.29,3.22-23,4.63V161.05c0-62.21,49.87-113.63,112.08-114a112.86,112.86,0,0,1,113.4,112.74v16.55h-.67v-.75a24.14,24.14,0,0,0-9.54-19.46,23.2,23.2,0,0,0-20.7-3.6,194.39,194.39,0,0,1-41.91,7.34v-32a7.72,7.72,0,0,0-2.8-6.07,7.51,7.51,0,0,0-9.5.09c-16.84,14-46.48,27.18-85.73,38a7.5,7.5,0,0,0,4,14.46c33.72-9.32,60.22-20.07,79-32.06v25.42a7.5,7.5,0,0,0,7.5,7.5,206.62,206.62,0,0,0,53.74-8.31,8.39,8.39,0,0,1,7.45,1.31l0,0a8,8,0,0,1,3,6.38V248c0,.1,0,.2,0,.3a96.75,96.75,0,0,1-101.05,88.29Zm118.67,63.12L328,384.74a24.6,24.6,0,0,1-16.39-23.17V337.13a113,113,0,0,0,21.86-16.32,111.85,111.85,0,0,0,24.05-33.25c1.68,7.42,3.63,14.59,5.55,21.66C370.41,336.21,377.36,361.8,370.34,399.69Z" style="fill:#222"/></g></svg>