<svg xmlns="http://www.w3.org/2000/svg" viewBox="0 0 512 512"><title>woman-03</title><g style="isolation:isolate"><path d="M182.61,280.8a24,24,0,1,0-38.25,25.55,31.25,31.25,0,0,0-.59,5.76,32.07,32.07,0,1,0,38.84-31.31Z" style="fill:#5a4650"/><path d="M329.38,280.8a24,24,0,1,1,38.26,25.55,32,32,0,1,1-38.26-25.55Z" style="fill:#5a4650"/><path d="M408.28,413l-82.79-29.22c-12.82-4.52-12.71-16.64-12.71-30.24V312.11H199.22v41.44c0,13.6.11,25.72-12.71,30.24L103.72,413a48.1,48.1,0,0,0-32.09,45.36V504.5H440.37V458.37A48.11,48.11,0,0,0,408.28,413Z" style="fill:#a06e50"/><path d="M408.28,413l-82.79-29.22A32,32,0,0,1,307.13,367c-13.88,5.75-31.7,9.21-51.13,9.21s-37.25-3.46-51.13-9.21a32,32,0,0,1-18.36,16.76L103.72,413a48.1,48.1,0,0,0-32.09,45.36V504.5H440.37V458.37A48.11,48.11,0,0,0,408.28,413Z" style="fill:#eee"/><path d="M372.23,207.9h-12V175.84H151.79V207.9h-12a20,20,0,0,0,0,40.08h12.42a104.11,104.11,0,0,0,207.61,0h12.43a20,20,0,0,0,0-40.08Z" style="fill:#cd916e"/><path d="M328.14,183.85v-8H151.79V207.9H140.91c-11.75,0-20,7.55-21.08,18A20,20,0,0,0,139.77,248h12.42a103.48,103.48,0,0,0,119.89,94.85A104.15,104.15,0,0,1,183.85,240v-8a32.06,32.06,0,0,1,32.07-32.06h96.19A16,16,0,0,0,328.14,183.85Z" style="fill:#b67f5f"/><path d="M146.79,210.56l-11,1.4V175.84h32.06V186.7A24,24,0,0,1,146.79,210.56Z" style="fill:#5a4650"/><path d="M365.21,210.56l11,1.4V175.84H344.18V186.7A24,24,0,0,0,365.21,210.56Z" style="fill:#5a4650"/><path d="M400.29,71.63a40.07,40.07,0,0,0-40.08-40.08H319.9A52,52,0,0,0,276,7.5H236A52,52,0,0,0,192.1,31.55H151.79a40.06,40.06,0,0,0-16,76.78v67.51H376.24V108.33A40,40,0,0,0,400.29,71.63Z" style="fill:#eee"/><path d="M135.76,175.84h32.06v-48.1a16,16,0,0,0-16-16h-16v64.13Z" style="fill:#eee"/><path d="M135.76,175.84h32.06v-48.1a16,16,0,0,0-16-16h-16v64.13Z" style="fill:#999;opacity:0.5;mix-blend-mode:multiply"/><path d="M325.49,383.79A32,32,0,0,1,307.13,367c-13.88,5.75-31.7,9.21-51.13,9.21s-37.25-3.46-51.13-9.21a32,32,0,0,1-18.36,16.76l-16,5.67c16,20.69,48.23,34.88,85.54,34.88a138.61,138.61,0,0,0,32.77-4L306,414.93c15.06-6.15,27.41-15,35.52-25.47Z" style="fill:#eee"/><path d="M325.49,383.79A32,32,0,0,1,307.13,367c-13.88,5.75-31.7,9.21-51.13,9.21s-37.25-3.46-51.13-9.21a32,32,0,0,1-18.36,16.76l-16,5.67c16,20.69,48.23,34.88,85.54,34.88a138.61,138.61,0,0,0,32.77-4L306,414.93c15.06-6.15,27.41-15,35.52-25.47Z" style="fill:#999;opacity:0.5;mix-blend-mode:multiply"/><path d="M256,295.56c11.9,0,22.86-3.8,29.31-10.17a7.5,7.5,0,1,0-10.53-10.68c-2.74,2.7-9.3,5.85-18.78,5.85s-16-3.15-18.78-5.85a7.5,7.5,0,0,0-10.54,10.68C233.14,291.76,244.1,295.56,256,295.56Z" style="fill:#222"/><path d="M207.9,231.44a7.5,7.5,0,0,0,7.5-7.5v-8a7.5,7.5,0,0,0-15,0v8A7.5,7.5,0,0,0,207.9,231.44Z" style="fill:#222"/><path d="M304.1,231.44a7.5,7.5,0,0,0,7.5-7.5v-8a7.5,7.5,0,1,0-15,0v8A7.5,7.5,0,0,0,304.1,231.44Z" style="fill:#222"/><path d="M410.78,405.94,325.3,375.77a8.54,8.54,0,0,1-5.69-8V348a39.54,39.54,0,0,0,56.11-35.93c0-1,0-2-.13-3A31.38,31.38,0,0,0,366,259.7c.25-1.4.47-2.81.67-4.22h5.6a27.53,27.53,0,0,0,11.51-52.55V113a47.56,47.56,0,0,0-23.53-88.91H323.89A59.34,59.34,0,0,0,276,0H236a59.34,59.34,0,0,0-47.85,24.05H151.79A47.56,47.56,0,0,0,128.26,113v90a27.53,27.53,0,0,0,11.51,52.55h5.6c.2,1.42.41,2.82.66,4.22a31.39,31.39,0,0,0-9.62,49.38c-.09,1-.14,2-.14,3A39.55,39.55,0,0,0,192.39,348v19.69a8.54,8.54,0,0,1-5.7,8l-85.47,30.17a55.68,55.68,0,0,0-37.09,52.43V504.5a7.5,7.5,0,0,0,15,0V458.37A40.47,40.47,0,0,1,81.75,444l37.93,32.51a24.54,24.54,0,0,1,8.58,18.65v9.3a7.5,7.5,0,0,0,15,0v-9.3a39.51,39.51,0,0,0-13.82-30L89.69,431.08a40.53,40.53,0,0,1,16.52-11l61.8-21.8c16.23,20.52,50.06,33.56,88,33.56a153.69,153.69,0,0,0,39.82-5.12l1.55,1.55a24.4,24.4,0,0,1,7.19,17.37V504.5a7.5,7.5,0,0,0,15,0V445.64a39.24,39.24,0,0,0-8.25-24.18c13.8-5.74,25.15-13.65,32.69-23.16l61.74,21.78a40.53,40.53,0,0,1,16.52,11l-39.75,34.08a39.51,39.51,0,0,0-13.82,30v9.3a7.5,7.5,0,0,0,15,0v-9.3a24.54,24.54,0,0,1,8.58-18.65L430.25,444a40.51,40.51,0,0,1,2.62,14.33V504.5a7.5,7.5,0,0,0,15,0V458.37A55.69,55.69,0,0,0,410.78,405.94Zm-42-117.88a16.46,16.46,0,0,1-5.94,12.56,7.48,7.48,0,0,0-2.53,7.07,24.94,24.94,0,0,1,.46,4.42,24.56,24.56,0,0,1-40.17,19,112.13,112.13,0,0,0,41.57-56.25A16.5,16.5,0,0,1,368.74,288.06ZM351.68,183.34h17.06V200.4h-.49a16.56,16.56,0,0,1-16.57-16.55ZM151.79,119.21a7.5,7.5,0,0,0,0-15,32.58,32.58,0,0,1,0-65.16h28.26a60.74,60.74,0,0,0-2,6.8,7.5,7.5,0,0,0,5.57,9,7.35,7.35,0,0,0,1.73.2,7.49,7.49,0,0,0,7.29-5.77A44.4,44.4,0,0,1,236,15H276A44.4,44.4,0,0,1,319.4,49.31,7.5,7.5,0,1,0,334,45.85a60.74,60.74,0,0,0-2-6.8h28.26a32.58,32.58,0,1,1,0,65.16,7.5,7.5,0,0,0,0,15,48,48,0,0,0,8.53-.78v17.84H344.17a7.5,7.5,0,0,0,0,15h24.57v17.07H143.26V151.27H312.11a7.5,7.5,0,0,0,0-15H143.26V118.43A48,48,0,0,0,151.79,119.21Zm8.53,64.13v.52a16.56,16.56,0,0,1-16.57,16.54h-.49V183.34Zm-20.55,57.14a12.54,12.54,0,1,1,0-25.08h4a31.56,31.56,0,0,0,31.57-31.55v-.51H336.68v.51a31.55,31.55,0,0,0,31.57,31.55h4a12.54,12.54,0,0,1,0,25.08H367.7c0-.17,0-.34,0-.51a7.5,7.5,0,1,0-15,0,96.71,96.71,0,0,1-193.42,0,7.5,7.5,0,0,0-15,0c0,.17,0,.34,0,.51Zm11.5,71.63a24.94,24.94,0,0,1,.46-4.42,7.5,7.5,0,0,0-2.53-7.07,16.4,16.4,0,0,1,.67-25.79,112.13,112.13,0,0,0,41.57,56.25,24.56,24.56,0,0,1-40.17-19ZM256.05,416.84c-30.41,0-58.23-9.38-72.79-23.95l8.43-3a23.6,23.6,0,0,0,14.58-15c2.47.91,4.95,1.77,7.46,2.53a7.31,7.31,0,0,0,2.2.34,7.51,7.51,0,0,0,2.2-14.68c-3.62-1.11-7.21-2.4-10.74-3.84V340.53a111.54,111.54,0,0,0,97.22,0v18.71a127.73,127.73,0,0,1-48.61,9.5c-2.53,0-5.08-.07-7.59-.22a7.5,7.5,0,0,0-.87,15c2.8.16,5.65.24,8.46.24a142.94,142.94,0,0,0,49.74-8.84,23.57,23.57,0,0,0,14.58,15l8.48,3C314.2,407.45,286.31,416.84,256.05,416.84Z" style="fill:#222"/></g></svg>